<?xml version="1.0" encoding="utf-8"?>
<!-- Generator: Adobe Illustrator 16.0.0, SVG Export Plug-In . SVG Version: 6.00 Build 0)  -->
<!DOCTYPE svg PUBLIC "-//W3C//DTD SVG 1.1//EN" "http://www.w3.org/Graphics/SVG/1.1/DTD/svg11.dtd">
<svg version="1.1" id="图层_1" xmlns="http://www.w3.org/2000/svg" xmlns:xlink="http://www.w3.org/1999/xlink" x="0px" y="0px"
	 width="200px" height="200px" viewBox="0 0 200 200" enable-background="new 0 0 200 200" xml:space="preserve">
<g opacity="0.3">
	<g>
		<g>
			<g>
				<path fill="#3E3A39" d="M113.637,55.701c-0.162-0.066-0.281-0.059-0.313,0.119C113.484,55.891,113.607,55.881,113.637,55.701z"
					/>
			</g>
		</g>
		<g>
			<g>
				<path fill="#3E3A39" d="M137.213,74.146l0.137-0.456c-0.385-0.075-0.816,0.041-0.717,0.402
					C136.695,74.319,136.945,74.231,137.213,74.146z"/>
			</g>
		</g>
		<g>
			<g>
				<path fill="#3E3A39" d="M90.983,54.651c-0.347,0.094-0.102,0.496,0.075,0.447C91.25,55.052,91.122,54.618,90.983,54.651z"/>
			</g>
		</g>
		<g>
			<g>
				<path fill="#3E3A39" d="M129.221,65.353c0.432,0.132,0.492-0.714,0.029-0.558C128.996,64.876,128.996,65.287,129.221,65.353z"/>
			</g>
		</g>
		<g>
			<g>
				<path fill="#3E3A39" d="M144.098,93.332c-0.244,0.063-0.295,0.569-0.152,0.736c0.123,0.143,0.684-0.067,0.979,0.253
					c-0.018-0.21-0.027-0.42-0.049-0.628C144.613,93.528,144.227,93.296,144.098,93.332z"/>
			</g>
		</g>
		<g>
			<g>
				<path fill="#3E3A39" d="M88.83,55.078c0.024,0.448,0.178,0.919,0.317,1.03c0.767,0.597,0.751-0.86,1.218-0.568
					c0.489,0.299-0.936,1.239-1.249,0.915c0.015,0.09,0.004,0.199-0.012,0.311c9.128-2.617,19.083-2.242,28.351,1.696
					c0.131,0.012,0.264,0.018,0.32-0.047c0.244-0.272-0.178-0.825,0.297-0.978c0.199-0.063,0.463,0.225,0.684,0.271
					c0.342,0.068,0.461-0.173,0.764,0.013c-0.6,0.636,0.363,0.972,0.623,0.251c0.014-0.034,0.014-0.097,0.006-0.164
					c-0.258-0.127-0.508-0.26-0.768-0.383c-2.869-1.321-5.811-2.309-8.777-2.974c0.053,0.221-0.178,0.541-0.443,0.512
					c-0.313-0.041-0.451-0.47-0.188-0.642C102.875,52.832,95.633,53.155,88.83,55.078z M113.637,55.701
					c-0.029,0.181-0.152,0.19-0.313,0.119C113.355,55.642,113.475,55.634,113.637,55.701z M91.058,55.098
					c-0.176,0.049-0.421-0.354-0.075-0.447C91.122,54.618,91.25,55.052,91.058,55.098z"/>
			</g>
		</g>
		<g>
			<g>
				<path fill="#3E3A39" d="M143.906,102.747c-0.445,0.039-0.34,0.722-0.07,0.694C144.045,103.42,144.25,102.722,143.906,102.747z"
					/>
			</g>
		</g>
		<g>
			<g>
				<path fill="#3E3A39" d="M143.252,102.069c0.363-0.359,0.672-1.4,0.41-1.744c-0.018,0.172-0.162,0.299-0.324,0.415
					C143.313,101.182,143.289,101.626,143.252,102.069z"/>
			</g>
		</g>
		<g>
			<g>
				<path fill="#3E3A39" d="M143.633,96.257c-0.133,0.03-0.213,0.139-0.256,0.272c0.008,0.192,0.012,0.389,0.018,0.586
					c0.047,0.116,0.113,0.198,0.199,0.198C143.914,97.316,144.215,96.129,143.633,96.257z"/>
			</g>
		</g>
		<g>
			<g>
				<path fill="#3E3A39" d="M143.25,94.475c0.047-0.009,0.086-0.015,0.086-0.015c0.424,0.015,0.492,0.357,0.662,0.125
					c0.25-0.336-0.432-0.547-0.801-0.767C143.221,94.037,143.23,94.256,143.25,94.475z"/>
			</g>
		</g>
		<g>
			<g>
				<path fill="#3E3A39" d="M143.551,99.302c0.313-0.298,0.111-0.831-0.135-1.177c0.002,0.405-0.01,0.815-0.021,1.224
					C143.467,99.339,143.525,99.324,143.551,99.302z"/>
			</g>
		</g>
		<g>
			<g>
				<path fill="#3E3A39" d="M143.07,103.716c-0.014,0.095-0.023,0.189-0.033,0.287l0.107,0.049
					C143.154,103.933,143.139,103.819,143.07,103.716z"/>
			</g>
		</g>
		<g>
			<g>
				<path fill="#3E3A39" d="M145.082,98.913c-0.15,0.304-0.199,0.601-0.014,0.776C145.076,99.431,145.078,99.169,145.082,98.913z"/>
			</g>
		</g>
		<g>
			<g>
				<path fill="#3E3A39" d="M136.131,72.521c-0.143-0.019-0.773-0.322-1.096-0.539c-0.1-0.07-0.203-0.269-0.326-0.31
					c-0.068-0.022-0.162-0.036-0.26-0.052c0.754,0.984,1.465,1.998,2.129,3.039c0.119,0.092,0.217,0.207,0.209,0.333
					c3.465,5.549,5.65,11.858,6.367,18.433c0.203-0.086,0.521-0.15,0.6-0.338c0.141-0.336-0.35-1.582-0.135-2.318
					c0.215-0.754,0.168-1.098-0.516-1.299c0.545-0.255,0.387-0.547,0.766-0.913c0.047-0.047,0.107-0.086,0.172-0.121
					c-1.199-5.503-3.389-10.74-6.488-15.411l-0.094,0.309c-0.326-0.059-0.465-0.882-0.586-0.955
					C136.633,72.244,136.486,72.566,136.131,72.521z M137.35,73.69l-0.137,0.456c-0.268,0.085-0.518,0.173-0.58-0.054
					C136.533,73.731,136.965,73.615,137.35,73.69z"/>
			</g>
		</g>
		<g>
			<g>
				<path fill="#3E3A39" d="M87.035,55.623c0.139,0.14,0.331,0.224,0.534,0.162c0.097-0.03,0.194-0.206,0.24-0.396
					C87.552,55.466,87.292,55.54,87.035,55.623z"/>
			</g>
		</g>
		<g>
			<g>
				<path fill="#3E3A39" d="M87.816,56.357c-0.26,0.285-0.605,0.305-0.75,0.633c-0.084,0.188-0.126,0.34-0.147,0.468
					c0.361-0.122,0.719-0.245,1.082-0.359c-0.009-0.125-0.001-0.24,0.035-0.321c0.087-0.188,1.286-0.651,0.51-0.994
					C88.145,55.615,88.04,56.108,87.816,56.357z"/>
			</g>
		</g>
		<g>
			<g>
				<path fill="#3E3A39" d="M74.594,63.25c-0.179-0.056-0.296-0.237-0.544-0.263c-0.165-0.013-0.587,0.328-0.748,0.106
					c-0.08-0.112,0.084-0.572,0.482-0.559c0.071,0.004,0.353,0.142,0.378,0.13c0.372-0.14,0.425-0.455,0.53-0.685
					c-0.164-0.057-0.33-0.104-0.48-0.155c-1.213,1.012-2.371,2.099-3.487,3.245l1.561,0.814c0.89-0.894,1.801-1.756,2.752-2.563
					C74.834,63.297,74.673,63.275,74.594,63.25z"/>
			</g>
		</g>
		<g>
			<g>
				<path fill="#3E3A39" d="M120.621,58.474c-0.408,0.373-1.109,0.185-1.402,0.783c0.84,0.402,1.66,0.832,2.459,1.283
					c0.209-0.303,0.111-0.791,0.195-1.131c0.039-0.156,0.146-0.375,0.273-0.57c-0.344-0.186-0.686-0.375-1.031-0.555
					c-0.014,0.309,0.34,0.258,0.023,0.555C120.902,59.06,120.654,58.841,120.621,58.474z"/>
			</g>
		</g>
		<g>
			<g>
				<path fill="#3E3A39" d="M81.874,58.449c-0.19-0.01-0.333-0.321-0.52-0.361c-0.518-0.123-0.83,0.383-0.872,0.807
					c0.272-0.02,0.754-0.341,0.622,0.26c-0.591-0.285-0.697,0.405-0.537,0.621c0.071,0.101,0.396-0.027,0.551,0.021
					c0.043,0.014,0.091,0.039,0.142,0.067c0.076-0.04,0.151-0.083,0.229-0.12c-0.108-0.123-0.165-0.26-0.105-0.363
					c0.145-0.256,0.487-0.106,0.739,0.051c0.597-0.29,1.204-0.564,1.815-0.828c-0.306,0.042-0.426,0.279-0.633,0.201
					c-0.335-0.123-0.341-0.807-0.66-0.832C82.474,57.951,82.1,58.469,81.874,58.449z"/>
			</g>
		</g>
		<g>
			<g>
				<path fill="#3E3A39" d="M75.351,62.017c-0.049,0.012-0.209,0.04-0.186,0.158C75.279,62.854,76.172,61.756,75.351,62.017z"/>
			</g>
		</g>
		<g>
			<g>
				<path fill="#3E3A39" d="M75.251,63.561c0.082-0.058,0.162-0.116,0.242-0.172c-0.041-0.1-0.202-0.165-0.308-0.142
					C74.891,63.321,75.067,63.513,75.251,63.561z"/>
			</g>
		</g>
		<g>
			<g>
				<path fill="#3E3A39" d="M82.582,57.733c0.164,0.315,0.559-0.296,0.97-0.214c0.47,0.098,0.606,0.828,0.848,0.889
					c0,0,0.01,0,0.014,0c0.161-0.063,0.317-0.13,0.48-0.194c0.165-0.146,0.283-0.315,0.279-0.285c0.038-0.528-0.8-0.231-0.843-0.891
					c0.272,0.132,0.662-0.293,0.969-0.212c0.106,0.028,0.163,0.387,0.287,0.436c0.426,0.189,1.209-0.32,1.301-0.607
					c0.096-0.29-0.278-0.449-0.136-0.93c-0.271,0.09-0.537,0.189-0.804,0.287c-0.033,0.284-0.209,0.592-0.419,0.523
					c-0.147-0.046-0.33-0.114-0.516-0.193c-0.549,0.207-1.094,0.438-1.634,0.666c0.028,0.089,0.047,0.164,0.063,0.201
					C83.142,57.121,82.393,57.379,82.582,57.733z"/>
			</g>
		</g>
		<g>
			<g>
				<path fill="#3E3A39" d="M72.252,63.952c-0.089,0.015-0.178-0.023-0.23-0.01c-0.013,0.01-0.026,0.021-0.037,0.032
					c-0.018,0.027-0.022,0.081-0.006,0.182C72.055,64.596,72.87,63.863,72.252,63.952z"/>
			</g>
		</g>
		<g>
			<g>
				<path fill="#3E3A39" d="M118.441,58.888c0.072,0.032,0.146,0.059,0.221,0.093c0.164,0.077,0.322,0.165,0.488,0.242
					C119.125,58.569,118.844,58.687,118.441,58.888z"/>
			</g>
		</g>
		<g>
			<g>
				<path fill="#3E3A39" d="M123.281,60.754c-0.268,0.016-0.533-0.307-0.813-0.313c-0.238-0.008-0.398,0.126-0.535,0.242
					c0.979,0.557,1.932,1.149,2.852,1.778c-0.061-0.226-0.018-0.57,0.195-0.638c0.313-0.099,0.355,0.701,0.063,0.819
					c1.08,0.754,2.123,1.544,3.119,2.384c-0.02-0.357,0.365-1.027,0.756-0.978c0.09,0.395-0.186,1.137-0.492,1.208
					c0.422,0.361,0.842,0.729,1.25,1.107c0.287-0.301,0.584-0.596,0.959-0.381c-0.021,0.475-0.268,0.674-0.568,0.758
					c0.191,0.178,0.379,0.355,0.563,0.541c0.033-0.018,0.072-0.035,0.121-0.055c0.133-0.044,0.375-0.009,0.406,0.047
					c0.121,0.236,0.002,0.336-0.166,0.355c1,1.014,1.945,2.075,2.834,3.176c0.275-0.316,1.078-0.359,1.221-0.244
					c0.189,0.148-0.141,0.379,0.184,0.551c0.387,0.208,0.494-0.086,0.82-0.207c-0.525-0.7-1.074-1.38-1.641-2.049
					c-0.172,0.002-0.32,0.018-0.375-0.018c-0.324-0.195,0-0.086-0.113-0.321c-0.084-0.171-0.109-0.273-0.092-0.343
					c-0.674-0.763-1.381-1.501-2.113-2.219c-0.336-0.04-0.572-0.162-0.516-0.448c0.004-0.014,0.01-0.023,0.016-0.037
					c-0.518-0.486-1.045-0.965-1.584-1.435c-0.031-0.002-0.061-0.006-0.082-0.014c-0.107-0.043-0.141-0.107-0.158-0.191
					c-1.242-1.055-2.543-2.051-3.916-2.976c-0.193,0.167-0.363,0.378-0.346,0.726c-0.668-0.246,0.088-0.559,0.176-0.841
					c-0.744-0.497-1.512-0.964-2.291-1.414c-0.002,0.259-0.061,0.521-0.215,0.715c0.191,0.265,0.936-0.34,1.088,0.106
					C123.967,60.391,123.41,60.745,123.281,60.754z M129.25,64.795c0.463-0.156,0.402,0.689-0.029,0.558
					C128.996,65.287,128.996,64.876,129.25,64.795z"/>
			</g>
		</g>
	</g>
	<g>
		<g>
			<g>
				<path fill="#3E3A39" d="M83.506,143.373c0.367,0.392,1.295-0.433,0.703-0.685C83.739,142.495,83.195,143.044,83.506,143.373z"/>
			</g>
		</g>
		<g>
			<g>
				<path fill="#3E3A39" d="M78.911,140.489c-0.205,0.01-0.398-0.96-0.717-0.871c-0.141,0.045-0.361,0.552-0.336,0.646
					C77.901,140.4,78.754,140.838,78.911,140.489z"/>
			</g>
		</g>
		<g>
			<g>
				<path fill="#3E3A39" d="M126.531,136.906C127.299,136.754,126.496,136.014,126.531,136.906L126.531,136.906z"/>
			</g>
		</g>
		<g>
			<g>
				<path fill="#3E3A39" d="M126.771,135.206c-0.105,0.045-0.523,0.605-0.336,0.864C126.934,136.75,127.504,134.912,126.771,135.206
					z"/>
			</g>
		</g>
		<g>
			<g>
				<path fill="#3E3A39" d="M130.906,131.092c-0.018,0.017-0.033,0.033-0.051,0.051
					C131.004,132.124,132.186,131.283,130.906,131.092z"/>
			</g>
		</g>
		<g>
			<g>
				<path fill="#3E3A39" d="M126.117,136.194C125.17,136.174,125.822,137.193,126.117,136.194L126.117,136.194z"/>
			</g>
		</g>
		<g>
			<g>
				<path fill="#3E3A39" d="M125.529,137.867c-0.008,0.025-0.006,0.045-0.008,0.069c0.254-0.184,0.508-0.379,0.76-0.565
					C126.023,137.394,125.643,137.567,125.529,137.867z"/>
			</g>
		</g>
		<g>
			<g>
				<path fill="#3E3A39" d="M128.594,135.546c0.018-0.016,0.035-0.026,0.049-0.044c0.053-0.044,0.096-0.093,0.123-0.154
					c-0.271-0.313-0.715-0.146-0.836,0.194C128.092,135.694,128.391,135.684,128.594,135.546z"/>
			</g>
		</g>
		<g>
			<g>
				<path fill="#3E3A39" d="M132.391,131.086c-0.725,0.138,0.119,1.005,0.365,0.402
					C132.857,131.252,132.494,131.065,132.391,131.086z"/>
			</g>
		</g>
		<g>
			<g>
				<path fill="#3E3A39" d="M55.896,105.12c-0.032,0.273,0.501,0.52,0.459,0.796c-0.003,0.031-0.355,0.477-0.62,0.799
					c0.16,1.467,0.383,2.915,0.672,4.349c0.488,0.198,0.854,0.341,1.327-0.035c0.058-0.323-0.553-0.271-0.69-0.49
					c0.334-0.096,0.687-0.339,0.858-0.271c0.037,0.017,0.074,0.046,0.11,0.094c-0.394-2.001-0.651-4.038-0.774-6.094
					c-0.142-0.008-0.453-0.152-0.554-0.101c-0.184,0.101-0.08,0.332-0.333,0.64C56.106,105.099,55.942,104.808,55.896,105.12z"/>
			</g>
		</g>
		<g>
			<g>
				<path fill="#3E3A39" d="M66.164,128.876C65.289,128.413,65.643,129.639,66.164,128.876L66.164,128.876z"/>
			</g>
		</g>
		<g>
			<g>
				<path fill="#3E3A39" d="M64.662,128.733c-0.115,0.037-0.332,0.136-0.17,0.317C64.757,129.35,65.008,128.629,64.662,128.733z"/>
			</g>
		</g>
		<g>
			<g>
				<path fill="#3E3A39" d="M55.705,96.526c0.156-0.038,0.306-0.088,0.432-0.179c0.026-0.022,0.507-0.571,0.781-0.893l-1.02-0.472
					C55.828,95.498,55.758,96.011,55.705,96.526z"/>
			</g>
		</g>
		<g>
			<g>
				<path fill="#3E3A39" d="M66.386,129.751c0.163-0.109,0.372-0.121,0.592-0.112c-0.084-0.105-0.175-0.21-0.262-0.315
					c-0.001,0.049-0.009,0.095-0.033,0.143C66.593,129.636,66.457,129.421,66.386,129.751z"/>
			</g>
		</g>
		<g>
			<g>
				<path fill="#3E3A39" d="M56.765,112.593c-0.006,0.031,0.473,0.828,0.281,1.196c0.718,2.7,1.669,5.318,2.848,7.821
					c0.557,0.145,0.963,0.354,0.552,0.964c-0.018,0.025-0.042,0.042-0.063,0.062c0.712,1.422,1.494,2.803,2.351,4.139
					c0.028-0.015,0.056-0.024,0.085-0.05c0.119-0.102,0.089-0.782,0.122-0.85c0.286-0.532,0.665-0.179,1.146-0.228
					c-0.117-0.181-0.222-0.365-0.331-0.547c-0.101,0.019-0.197,0.019-0.283-0.03c-0.189-0.104-0.339-0.591-0.34-1.001
					c-2.188-3.785-3.807-7.899-4.805-12.217l-0.002,0.008C58.05,112.396,56.889,112.179,56.765,112.593z"/>
			</g>
		</g>
		<g>
			<g>
				<path fill="#3E3A39" d="M65.598,130.259c-0.07-0.009-0.176,0.047-0.296,0.107c4.077,5.141,9.329,9.396,15.614,12.297
					c7.767,3.587,16.087,4.646,24.107,3.518c-0.16-0.327,0.746-0.698,1.189-0.36c-0.029,0.065-0.08,0.132-0.139,0.193
					c6.27-1.034,12.328-3.398,17.77-6.941c-0.227-0.046-0.539-0.026-0.729-0.429c0.523-0.113,0.492-0.126,0.787-0.729
					c0.17-0.359,0.613-0.989,0.822-1.504c-9.725,6.978-21.78,9.915-33.417,7.72c-0.049,0.107-0.126,0.23-0.159,0.422
					c-0.081,0.472,0.216,0.616,0.073,0.906c-0.113,0.24-0.485,0.346-0.64,0.257c-0.544-0.294,0.172-0.746,0.246-1.257
					c0.02-0.137-0.007-0.286-0.063-0.437c-3.084-0.624-6.139-1.596-9.104-2.968c-5.624-2.599-10.389-6.331-14.183-10.815
					c-0.436,0.288-1.083,0.409-1.405,0.303C65.894,130.487,65.776,130.267,65.598,130.259z M84.209,142.688
					c0.592,0.252-0.336,1.076-0.703,0.685C83.195,143.044,83.739,142.495,84.209,142.688z M78.194,139.618
					c0.318-0.089,0.512,0.881,0.717,0.871c-0.157,0.349-1.009-0.089-1.053-0.225C77.833,140.17,78.053,139.663,78.194,139.618z"/>
			</g>
		</g>
		<g>
			<g>
				<path fill="#3E3A39" d="M56.61,96.634c-0.012-0.124-0.262-0.23-0.385-0.112C55.9,96.827,56.651,97.007,56.61,96.634z"/>
			</g>
		</g>
	</g>
	<g>
		<g>
			<g>
				<path fill="#3E3A39" d="M111.422,63.599c-0.121-0.048-0.207-0.046-0.229,0.075C111.314,63.729,111.404,63.723,111.422,63.599z"
					/>
			</g>
		</g>
		<g>
			<g>
				<path fill="#3E3A39" d="M129.092,76.97l0.094-0.314c-0.285-0.061-0.602,0.015-0.52,0.266
					C128.719,77.082,128.896,77.026,129.092,76.97z"/>
			</g>
		</g>
		<g>
			<g>
				<path fill="#3E3A39" d="M94.782,62.403c-0.252,0.059-0.062,0.346,0.063,0.315C94.988,62.691,94.884,62.382,94.782,62.403z"/>
			</g>
		</g>
		<g>
			<g>
				<path fill="#3E3A39" d="M123.053,70.665c0.316,0.098,0.346-0.491,0.008-0.393C122.875,70.33,122.887,70.611,123.053,70.665z"/>
			</g>
		</g>
		<g>
			<g>
				<path fill="#3E3A39" d="M134.535,90.519c-0.18,0.039-0.207,0.394-0.098,0.513c0.092,0.101,0.5-0.035,0.723,0.196
					c-0.016-0.145-0.029-0.291-0.047-0.439C134.916,90.667,134.629,90.498,134.535,90.519z"/>
			</g>
		</g>
		<g>
			<g>
				<path fill="#3E3A39" d="M93.213,62.661c0.023,0.312,0.146,0.643,0.252,0.722c0.575,0.436,0.534-0.585,0.883-0.37
					c0.363,0.221-0.664,0.847-0.898,0.614c0.014,0.063,0.007,0.138-0.005,0.217c6.644-1.643,13.957-1.181,20.832,1.764
					c0.096,0.01,0.195,0.018,0.236-0.024c0.172-0.187-0.146-0.581,0.199-0.681c0.143-0.039,0.342,0.168,0.504,0.204
					c0.254,0.057,0.338-0.111,0.563,0.027c-0.428,0.427,0.285,0.683,0.459,0.185c0.01-0.023,0.008-0.064,0.004-0.112
					c-0.191-0.094-0.379-0.19-0.572-0.282c-2.131-0.984-4.309-1.731-6.498-2.261c0.043,0.156-0.119,0.378-0.314,0.35
					c-0.23-0.031-0.342-0.338-0.152-0.451C103.469,61.374,98.163,61.451,93.213,62.661z M111.422,63.599
					c-0.018,0.124-0.107,0.13-0.229,0.075C111.215,63.553,111.301,63.551,111.422,63.599z M94.845,62.718
					c-0.125,0.03-0.315-0.257-0.063-0.315C94.884,62.382,94.988,62.691,94.845,62.718z"/>
			</g>
		</g>
		<g>
			<g>
				<path fill="#3E3A39" d="M134.586,97.099c-0.326,0.017-0.232,0.496-0.037,0.478C134.701,97.569,134.838,97.085,134.586,97.099z"
					/>
			</g>
		</g>
		<g>
			<g>
				<path fill="#3E3A39" d="M134.092,96.609c0.262-0.242,0.465-0.963,0.264-1.212c-0.008,0.122-0.109,0.206-0.229,0.286
					C134.119,95.993,134.109,96.298,134.092,96.609z"/>
			</g>
		</g>
		<g>
			<g>
				<path fill="#3E3A39" d="M134.252,92.556c-0.096,0.016-0.154,0.089-0.182,0.184c0.01,0.138,0.018,0.272,0.027,0.408
					c0.033,0.083,0.084,0.144,0.148,0.146C134.482,93.298,134.68,92.476,134.252,92.556z"/>
			</g>
		</g>
		<g>
			<g>
				<path fill="#3E3A39" d="M133.936,91.3c0.035-0.004,0.063-0.008,0.064-0.008c0.309,0.016,0.365,0.26,0.488,0.102
					c0.176-0.229-0.328-0.391-0.605-0.552C133.902,90.995,133.916,91.148,133.936,91.3z"/>
			</g>
		</g>
		<g>
			<g>
				<path fill="#3E3A39" d="M134.254,94.678c0.223-0.199,0.068-0.575-0.123-0.821c0.01,0.284,0.01,0.57,0.012,0.853
					C134.195,94.702,134.238,94.696,134.254,94.678z"/>
			</g>
		</g>
		<g>
			<g>
				<path fill="#3E3A39" d="M133.992,97.757c-0.008,0.063-0.014,0.129-0.018,0.2l0.08,0.034
					C134.061,97.909,134.045,97.831,133.992,97.757z"/>
			</g>
		</g>
		<g>
			<g>
				<path fill="#3E3A39" d="M135.369,94.441c-0.104,0.209-0.131,0.414,0.008,0.542C135.377,94.8,135.373,94.622,135.369,94.441z"/>
			</g>
		</g>
		<g>
			<g>
				<path fill="#3E3A39" d="M128.266,75.81c-0.104-0.014-0.576-0.237-0.814-0.396c-0.076-0.052-0.156-0.19-0.246-0.222
					c-0.051-0.019-0.121-0.029-0.193-0.041c0.574,0.701,1.119,1.425,1.625,2.163c0.09,0.069,0.164,0.152,0.158,0.239
					c2.658,3.949,4.387,8.403,5.051,13.013c0.145-0.057,0.379-0.096,0.432-0.225c0.098-0.231-0.287-1.111-0.145-1.624
					c0.143-0.521,0.102-0.759-0.406-0.915c0.395-0.168,0.273-0.376,0.543-0.622c0.035-0.034,0.076-0.06,0.125-0.082
					c-0.99-3.868-2.703-7.578-5.076-10.903l-0.063,0.213c-0.24-0.047-0.359-0.626-0.449-0.678
					C128.627,75.63,128.525,75.851,128.266,75.81z M129.186,76.656l-0.094,0.314c-0.195,0.056-0.373,0.111-0.426-0.049
					C128.584,76.67,128.9,76.595,129.186,76.656z"/>
			</g>
		</g>
		<g>
			<g>
				<path fill="#3E3A39" d="M91.907,63c0.104,0.103,0.249,0.165,0.394,0.128c0.072-0.02,0.139-0.143,0.169-0.274
					C92.283,62.904,92.093,62.95,91.907,63z"/>
			</g>
		</g>
		<g>
			<g>
				<path fill="#3E3A39" d="M92.494,63.527c-0.184,0.196-0.439,0.205-0.536,0.429c-0.057,0.134-0.086,0.237-0.098,0.328
					c0.26-0.081,0.522-0.157,0.786-0.23c-0.009-0.087-0.007-0.169,0.017-0.226c0.062-0.126,0.93-0.427,0.354-0.682
					C92.721,63.018,92.65,63.362,92.494,63.527z"/>
			</g>
		</g>
		<g>
			<g>
				<path fill="#3E3A39" d="M80.184,70.52c-0.133-0.034-0.23-0.163-0.412-0.175c-0.122-0.007-0.41,0.235-0.541,0.08
					c-0.065-0.074,0.031-0.4,0.323-0.395c0.049,0,0.267,0.094,0.284,0.088c0.266-0.105,0.286-0.325,0.35-0.486
					c-0.125-0.04-0.25-0.067-0.36-0.106c-0.832,0.725-1.622,1.501-2.373,2.319l1.188,0.546c0.601-0.637,1.221-1.253,1.873-1.829
					C80.361,70.55,80.242,70.537,80.184,70.52z"/>
			</g>
		</g>
		<g>
			<g>
				<path fill="#3E3A39" d="M116.6,65.679c-0.289,0.253-0.809,0.107-1.01,0.519c0.623,0.304,1.232,0.616,1.828,0.948
					c0.148-0.208,0.066-0.549,0.119-0.787c0.027-0.107,0.102-0.261,0.191-0.393c-0.256-0.139-0.506-0.276-0.768-0.408
					c-0.006,0.218,0.252,0.187,0.027,0.389C116.822,66.094,116.633,65.938,116.6,65.679z"/>
			</g>
		</g>
		<g>
			<g>
				<path fill="#3E3A39" d="M88.178,64.873c-0.142-0.012-0.251-0.229-0.388-0.265c-0.382-0.097-0.602,0.251-0.625,0.546
					c0.199-0.007,0.548-0.22,0.462,0.192c-0.44-0.209-0.503,0.269-0.381,0.426c0.054,0.07,0.291-0.009,0.405,0.028
					c0.034,0.012,0.067,0.027,0.102,0.048c0.059-0.024,0.112-0.056,0.167-0.08c-0.079-0.084-0.126-0.186-0.084-0.257
					c0.101-0.176,0.357-0.063,0.545,0.055c0.434-0.193,0.872-0.374,1.314-0.543c-0.222,0.02-0.306,0.184-0.46,0.126
					c-0.247-0.093-0.267-0.569-0.501-0.595C88.608,64.533,88.343,64.888,88.178,64.873z"/>
			</g>
		</g>
		<g>
			<g>
				<path fill="#3E3A39" d="M83.465,67.233c-0.035,0.006-0.151,0.024-0.132,0.104C83.433,67.814,84.063,67.066,83.465,67.233z"/>
			</g>
		</g>
		<g>
			<g>
				<path fill="#3E3A39" d="M83.424,68.312c0.055-0.04,0.115-0.081,0.173-0.121c-0.031-0.065-0.151-0.118-0.229-0.099
					C83.154,68.134,83.288,68.272,83.424,68.312z"/>
			</g>
		</g>
		<g>
			<g>
				<path fill="#3E3A39" d="M88.683,64.387c0.126,0.223,0.403-0.196,0.706-0.129c0.349,0.077,0.461,0.589,0.641,0.638l0.009,0.004
					c0.116-0.045,0.232-0.088,0.349-0.131c0.118-0.104,0.2-0.215,0.201-0.193c0.016-0.371-0.594-0.177-0.637-0.64
					c0.202,0.097,0.479-0.195,0.705-0.128c0.078,0.02,0.128,0.271,0.217,0.313c0.318,0.136,0.883-0.201,0.945-0.402
					c0.065-0.199-0.215-0.317-0.12-0.652c-0.196,0.059-0.392,0.12-0.584,0.182c-0.019,0.203-0.142,0.413-0.297,0.361
					c-0.11-0.037-0.242-0.09-0.38-0.146c-0.399,0.137-0.794,0.284-1.189,0.434c0.025,0.063,0.043,0.114,0.054,0.139
					C89.082,63.972,88.536,64.137,88.683,64.387z"/>
			</g>
		</g>
		<g>
			<g>
				<path fill="#3E3A39" d="M81.232,68.521c-0.065,0.008-0.13-0.018-0.17-0.01c-0.008,0.007-0.017,0.012-0.027,0.021
					c-0.013,0.02-0.014,0.055,0,0.126C81.101,68.969,81.684,68.471,81.232,68.521z"/>
			</g>
		</g>
		<g>
			<g>
				<path fill="#3E3A39" d="M115.01,65.924c0.055,0.026,0.111,0.042,0.166,0.069c0.123,0.055,0.238,0.123,0.359,0.18
					C115.506,65.718,115.303,65.792,115.01,65.924z"/>
			</g>
		</g>
		<g>
			<g>
				<path fill="#3E3A39" d="M118.602,67.327c-0.199,0.008-0.398-0.222-0.605-0.233c-0.172-0.012-0.291,0.081-0.387,0.156
					c0.73,0.409,1.439,0.847,2.127,1.303c-0.047-0.159-0.023-0.4,0.133-0.442c0.229-0.063,0.273,0.495,0.061,0.576
					c0.809,0.544,1.59,1.124,2.34,1.727c-0.025-0.249,0.244-0.71,0.533-0.664c0.074,0.274-0.115,0.788-0.338,0.828
					c0.316,0.265,0.637,0.526,0.939,0.8c0.205-0.202,0.418-0.402,0.695-0.244c-0.004,0.332-0.182,0.468-0.398,0.518
					c0.141,0.13,0.283,0.256,0.422,0.39c0.025-0.012,0.053-0.021,0.088-0.034c0.096-0.029,0.273-0.002,0.297,0.04
					c0.094,0.165,0.012,0.235-0.111,0.246c0.752,0.729,1.467,1.489,2.143,2.274c0.195-0.213,0.783-0.228,0.891-0.145
					c0.143,0.107-0.098,0.265,0.146,0.395c0.289,0.147,0.357-0.057,0.594-0.135c-0.398-0.498-0.813-0.983-1.244-1.465
					c-0.127-0.002-0.234,0.01-0.275-0.022c-0.242-0.139-0.002-0.058-0.088-0.224c-0.064-0.122-0.084-0.192-0.072-0.24
					c-0.512-0.547-1.045-1.076-1.598-1.595c-0.25-0.036-0.422-0.123-0.387-0.323c0.004-0.012,0.006-0.018,0.01-0.023
					c-0.387-0.354-0.787-0.699-1.191-1.035c-0.023-0.003-0.043-0.006-0.057-0.012c-0.084-0.034-0.109-0.08-0.121-0.139
					c-0.934-0.764-1.91-1.487-2.936-2.16c-0.139,0.115-0.258,0.259-0.242,0.502c-0.49-0.188,0.057-0.391,0.115-0.588
					c-0.559-0.359-1.129-0.701-1.711-1.032c0.004,0.183-0.033,0.361-0.145,0.496c0.152,0.187,0.682-0.219,0.801,0.095
					C119.096,67.091,118.691,67.321,118.602,67.327z M123.061,70.272c0.338-0.099,0.309,0.49-0.008,0.393
					C122.887,70.611,122.875,70.33,123.061,70.272z"/>
			</g>
		</g>
	</g>
	<g>
		<g>
			<g>
				<path fill="#3E3A39" d="M82.898,132.879c-0.104,0.031-0.264,0.396-0.242,0.463c0.031,0.102,0.661,0.419,0.775,0.172
					C83.279,133.518,83.13,132.815,82.898,132.879z"/>
			</g>
		</g>
		<g>
			<g>
				<path fill="#3E3A39" d="M87.337,135.139c-0.346-0.141-0.743,0.249-0.511,0.49C87.098,135.916,87.773,135.323,87.337,135.139z"/>
			</g>
		</g>
		<g>
			<g>
				<path fill="#3E3A39" d="M66.689,112.095c0.359,0.145,0.629,0.252,0.976-0.014c0.038-0.235-0.409-0.205-0.512-0.361
					c0.246-0.065,0.503-0.242,0.627-0.189c0.03,0.012,0.057,0.033,0.085,0.065c-0.041-0.191-0.065-0.392-0.102-0.586l-1.397-0.644
					C66.464,110.944,66.568,111.522,66.689,112.095z"/>
			</g>
		</g>
		<g>
			<g>
				<path fill="#3E3A39" d="M73.984,125.03C73.337,124.691,73.607,125.581,73.984,125.03L73.984,125.03z"/>
			</g>
		</g>
		<g>
			<g>
				<path fill="#3E3A39" d="M72.88,124.919c-0.083,0.025-0.245,0.096-0.122,0.229C72.954,125.362,73.132,124.847,72.88,124.919z"/>
			</g>
		</g>
		<g>
			<g>
				<path fill="#3E3A39" d="M74.151,125.662c0.122-0.073,0.274-0.08,0.437-0.073c-0.064-0.077-0.131-0.155-0.196-0.232
					c0,0.037-0.007,0.07-0.022,0.104C74.305,125.586,74.201,125.428,74.151,125.662z"/>
			</g>
		</g>
		<g>
			<g>
				<path fill="#3E3A39" d="M72.433,122.685c-0.086-0.131-0.163-0.266-0.246-0.398c-0.073,0.012-0.146,0.012-0.209-0.023
					c-0.14-0.077-0.253-0.429-0.254-0.727c-1.633-2.746-2.856-5.735-3.62-8.857l-0.002,0.006c-0.196,0.383-1.051,0.22-1.137,0.517
					c-0.004,0.021,0.353,0.604,0.214,0.866c0.545,1.954,1.265,3.854,2.147,5.67c0.41,0.11,0.71,0.264,0.412,0.701
					c-0.011,0.018-0.031,0.029-0.046,0.043c0.533,1.033,1.117,2.035,1.756,3.008c0.021-0.013,0.042-0.016,0.063-0.037
					c0.085-0.072,0.06-0.563,0.082-0.611C71.8,122.46,72.08,122.718,72.433,122.685z"/>
			</g>
		</g>
		<g>
			<g>
				<path fill="#3E3A39" d="M114.41,132.56c-6.58,3.74-14.319,5.14-21.849,3.67c-0.032,0.076-0.091,0.169-0.112,0.304
					c-0.057,0.341,0.161,0.45,0.061,0.658c-0.081,0.172-0.354,0.241-0.47,0.18c-0.401-0.218,0.123-0.536,0.172-0.907
					c0.015-0.097-0.007-0.204-0.05-0.316c-2.269-0.471-4.521-1.197-6.707-2.211c-4.153-1.915-7.679-4.643-10.496-7.913
					c-0.317,0.205-0.795,0.289-1.028,0.212c-0.135-0.043-0.222-0.202-0.354-0.208c-0.052-0.006-0.129,0.031-0.216,0.075
					c3.03,3.743,6.92,6.855,11.558,8.992c5.73,2.65,11.85,3.472,17.733,2.717c-0.12-0.238,0.543-0.501,0.869-0.254
					c-0.02,0.048-0.059,0.093-0.099,0.137c4.354-0.666,8.554-2.2,12.362-4.498L114.41,132.56z M82.656,133.342
					c-0.022-0.066,0.138-0.432,0.242-0.463c0.232-0.063,0.381,0.639,0.533,0.635C83.317,133.761,82.687,133.443,82.656,133.342z
					 M86.827,135.629c-0.232-0.241,0.165-0.631,0.511-0.49C87.773,135.323,87.098,135.916,86.827,135.629z"/>
			</g>
		</g>
	</g>
	<g>
		<g>
			<path fill="#3E3A39" d="M63.083,76.812l1.426,0.658l-1.857,4.025l15.963,7.367l3.505-7.597l-17.982-8.299l0.606-1.313
				l19.408,8.957l-4.723,10.233l-17.389-8.025l-3.174,6.877c-0.529,1.124-0.663,1.99-0.403,2.6c0.234,0.619,0.952,1.199,2.15,1.742
				l11.66,5.382c0.13,0.07,0.267,0.139,0.409,0.204c1.91,0.882,3.407,0.491,4.49-1.172c0.515-0.671,1.161-1.597,1.941-2.778
				c0.425,0.493,0.8,0.854,1.123,1.085c-0.771,1.205-1.397,2.109-1.881,2.714c-0.944,1.228-1.869,1.938-2.775,2.132
				c-0.9,0.228-2.067,0.004-3.503-0.668l-12.328-5.689c-2.975-1.271-3.779-3.265-2.413-5.981L63.083,76.812z"/>
			<path fill="#3E3A39" d="M83.399,106.407c1.824-1.035,3.668-2.266,5.529-3.693l1.002,1.183c-2.003,1.463-3.886,2.758-5.649,3.882
				L83.399,106.407z M105.289,88.192l1.4,0.647l-1.52,3.294l11.42,5.27l-0.594,1.287l-11.42-5.27l-1.66,3.596l9.035,4.17
				l-3.744,8.114l-18.399-8.491l3.744-8.114l7.963,3.675L105.289,88.192z M94.372,94.604l-2.574,5.577l15.609,7.204l2.574-5.578
				L94.372,94.604z M94.208,105.472c-0.086,1.471-0.237,3.365-0.45,5.686l-1.604-0.204c0.247-1.642,0.444-3.54,0.592-5.696
				L94.208,105.472z M98.75,113.706c0.002-0.051,0.007-0.129,0.017-0.236c0.112-2.52,0.164-4.379,0.156-5.576l1.453,0.135
				c0.012,1.076,0,3.006-0.038,5.783L98.75,113.706z M105.881,117.258c-0.08-1.527-0.27-3.604-0.568-6.231l1.485-0.034
				c0.223,1.817,0.446,3.875,0.672,6.173L105.881,117.258z"/>
			<path fill="#3E3A39" d="M125.051,108.013l-5.557,12.038l5.049-1.022c-0.164,0.445-0.289,0.984-0.379,1.617
				c-1.867,0.29-3.684,0.631-5.445,1.021c-0.357,0.09-0.777,0.213-1.258,0.369c-0.119,0.037-0.209,0.066-0.271,0.09l-0.487-1.664
				c0.767-0.289,1.385-0.957,1.859-2.004l4.531-9.818l-3.156-1.455l0.582-1.263L125.051,108.013z M125.074,113.534l8.266,3.814
				l4.758-10.31l-7.154-3.302l0.594-1.287l15.42,7.116l-0.595,1.287l-6.901-3.186l-4.758,10.31l8.252,3.809l-0.6,1.3l-8.252-3.809
				l-4.473,9.691l-1.363-0.629l4.473-9.691l-8.266-3.815L125.074,113.534z M126.822,104.973c-0.369-1.477-0.943-3.374-1.721-5.692
				l1.439-0.33c0.805,2.188,1.43,4.063,1.871,5.625L126.822,104.973z M129.724,106.909l1.47-0.133
				c0.391,2.445,0.67,4.539,0.838,6.279l-1.57,0.148C130.271,110.963,130.025,108.864,129.724,106.909z M139.412,117.487
				l-0.807-1.367c1.986-1.031,3.83-2.154,5.535-3.369l0.965,1.258C143.217,115.228,141.318,116.388,139.412,117.487z"/>
		</g>
	</g>
	<g>
		<g>
			<path fill="#3E3A39" d="M148.948,137.41c-0.195,0.4-0.002,0.313-0.007,0.384C149.222,137.103,148.908,137.411,148.948,137.41z"/>
		</g>
		<g>
			<polygon fill="#3E3A39" points="151.713,130.575 151.711,130.719 152.034,129.672 			"/>
		</g>
		<g>
			<path fill="#3E3A39" d="M154.569,124.311c-0.486,0.493-0.999,2.286-1.585,3.368l-0.133,0.161l-0.055,0.583
				C153.387,127.053,154.074,125.237,154.569,124.311z"/>
		</g>
		<g>
			<path fill="#3E3A39" d="M156.56,121.182c-0.179,0.169,0.257-0.756-0.382,0.768c0.045-0.068,0.06-0.091,0.086-0.131
				C156.326,121.684,156.412,121.498,156.56,121.182z"/>
		</g>
		<g>
			<path fill="#3E3A39" d="M156.264,121.818C155.969,122.481,156.53,121.419,156.264,121.818L156.264,121.818z"/>
		</g>
		<g>
			<path fill="#3E3A39" d="M157.604,118.748l-0.321,0.904c0.133-0.16,0.497-0.93,0.401-0.624
				C158.05,118.116,157.916,118.278,157.604,118.748z"/>
		</g>
		<g>
			<path fill="#3E3A39" d="M157.82,117.853l-0.173,0.465C157.704,118.247,157.766,118.131,157.82,117.853z"/>
		</g>
		<g>
			<path fill="#3E3A39" d="M157.28,119.302l0.367-0.984c-0.092,0.108-0.168,0.09-0.175,0.448
				C157.443,118.659,157.419,118.876,157.28,119.302z"/>
		</g>
		<g>
			<path fill="#3E3A39" d="M157.001,119.828c-0.27,0.466-0.586,1.083-0.264,0.177C156.01,121.681,156.272,121.506,157.001,119.828z"
				/>
		</g>
		<g>
			<path fill="#3E3A39" d="M154.491,123.889l-0.36,0.623l-0.185,0.598C154.039,124.811,154.577,123.88,154.491,123.889z"/>
		</g>
		<g>
			<path fill="#3E3A39" d="M160.151,113.225c-0.026-0.079-0.246,0.312-0.333,0.361c0,0-0.052,0.194-0.104,0.39
				c-0.053,0.196-0.116,0.349-0.116,0.349C159.787,114.037,160.06,113.238,160.151,113.225z"/>
		</g>
		<g>
			<path fill="#3E3A39" d="M159.818,113.586c0,0,0.075-0.289,0.149-0.578c0.089-0.284,0.125-0.576,0.111-0.579
				C159.805,113.44,159.729,113.627,159.818,113.586z"/>
		</g>
		<g>
			<polygon fill="#3E3A39" points="157.651,117.586 157.099,119.241 157.787,117.282 			"/>
		</g>
		<g>
			<path fill="#3E3A39" d="M160.147,108.62l0.295,0.646c0,0-0.123-0.29-0.247-0.581c-0.116-0.29-0.258-0.562-0.271-0.557
				C159.949,108.117,160.147,108.62,160.147,108.62z"/>
		</g>
		<g>
			<path fill="#3E3A39" d="M158.646,105.936c0.394,0.349-0.316-0.672,0.068-0.277c-0.294-0.316-0.633-0.549-0.927-0.777
				c-0.287-0.241-0.606-0.389-0.911-0.515c0.154,0.084,0.309,0.168,0.468,0.254c0.148,0.104,0.283,0.236,0.43,0.366
				C158.047,105.267,158.398,105.523,158.646,105.936z"/>
		</g>
		<g>
			<path fill="#3E3A39" d="M155.891,103.933c0.302,0.133,0.628,0.276,0.985,0.434C156.55,104.203,156.209,104.033,155.891,103.933z"
				/>
		</g>
		<g>
			<path fill="#3E3A39" d="M160.216,110.424c0.007-0.091,0.129-0.282,0.033-0.95c0,0-0.008,0.121-0.015,0.241
				c-0.025,0.122-0.052,0.244-0.052,0.244C160.193,110.101,160.204,110.261,160.216,110.424z"/>
		</g>
		<g>
			<path fill="#3E3A39" d="M160.18,109.976l0.003-0.017c-0.036-0.504-0.186-0.833-0.205-0.982
				C159.99,109.105,160.133,109.393,160.18,109.976z"/>
		</g>
		<g>
			<path fill="#3E3A39" d="M160.224,110.541c-0.003-0.042-0.005-0.074-0.008-0.117C160.205,110.471,160.202,110.497,160.224,110.541
				z"/>
		</g>
		<g>
			<path fill="#3E3A39" d="M158.916,115.122c0.185-0.598,0.643-1.81,0.014-0.721C158.834,114.846,159.193,114.223,158.916,115.122z"
				/>
		</g>
		<g>
			<path fill="#3E3A39" d="M160.083,111.114c0.004,0.001-0.003,0.077-0.021,0.191c-0.018,0.113-0.04,0.266-0.063,0.418
				c-0.047,0.303-0.094,0.605-0.094,0.605c0.04-0.015,0.123-0.229,0.117,0.118c0,0,0.019-0.336,0.036-0.671
				c0.008-0.166,0.016-0.331,0.021-0.456C160.087,111.197,160.088,111.115,160.083,111.114z"/>
		</g>
		<g>
			<polygon fill="#3E3A39" points="159.998,110.52 160.083,111.114 160.065,110.661 			"/>
		</g>
		<g>
			<path fill="#3E3A39" d="M157.642,105.222c-0.421-0.354-0.966-0.604-1.545-0.939l0.921,0.576c0.305,0.193,0.546,0.471,0.814,0.694
				C157.934,105.585,158.226,105.737,157.642,105.222z"/>
		</g>
		<g>
			<path fill="#3E3A39" d="M159.311,107.306c-0.021-0.034-0.043-0.074-0.062-0.104C159.271,107.273,159.295,107.329,159.311,107.306
				z"/>
		</g>
		<g>
			<polygon fill="#3E3A39" points="150.721,101.808 150.797,101.871 150.826,101.857 			"/>
		</g>
		<g>
			<path fill="#3E3A39" d="M157.903,105.652c0.398,0.355,0.565,0.63,0.8,0.837c-0.248-0.317-0.509-0.652-0.871-0.937
				C157.785,105.537,157.77,105.542,157.903,105.652z"/>
		</g>
		<g>
			<path fill="#3E3A39" d="M154.366,103.312c0.224,0.128,0.47,0.269,0.728,0.417C154.89,103.587,154.463,103.314,154.366,103.312z"
				/>
		</g>
		<g>
			<path fill="#3E3A39" d="M159.201,107.018l0.043,0.07C159.189,106.912,159.172,106.947,159.201,107.018z"/>
		</g>
		<g>
			<path fill="#3E3A39" d="M159.201,107.018c-0.181-0.216-0.342-0.371-0.498-0.528c0.192,0.263,0.428,0.476,0.546,0.712
				C159.228,107.135,159.212,107.068,159.201,107.018z"/>
		</g>
		<g>
			<path fill="#3E3A39" d="M148.717,101.899c0.133-0.085,1.338,0.33,2.274,0.912c1.021,0.356,0.561-0.33-0.194-0.94
				c-0.056,0.038-0.077,0.086-1.116-0.302c0.322,0.227,2.167,1.173,1.267,0.894c-1.364-0.547-1.075-0.541-1.696-0.9
				c0.483,0.4-1.798-0.556-1.607-0.204l1.206,0.456C148.857,101.859,148.407,101.72,148.717,101.899z"/>
		</g>
		<g>
			<path fill="#3E3A39" d="M152.713,102.759l0.421,0.173c-0.463-0.235-0.78-0.438-1.36-0.815c-0.718-0.257-0.882-0.277-0.947-0.259
				l2.036,0.947L152.713,102.759z"/>
		</g>
		<g>
			<path fill="#3E3A39" d="M154.997,103.78c-0.383-0.017-1.404-0.415-0.859,0.004c1.224,0.546,0.903,0.279,1.657,0.555
				c-1.98-0.863,0.599,0.185-0.789-0.536c0.403,0.168,0.734,0.274,1.091,0.479c-0.373-0.239-0.687-0.369-1.003-0.554
				c0.017,0.012,0.028,0.02,0.042,0.029l0.009,0.003l-0.002,0.002c0.077,0.055,0.1,0.077,0.009,0.024
				c-0.008-0.003-0.03-0.012-0.041-0.016C155.089,103.783,155.044,103.782,154.997,103.78c-0.556-0.287-0.073-0.075,0.113-0.009
				c0.008-0.004,0.026-0.003,0.032-0.009l-0.007-0.005l-2.002-0.826C153.543,103.141,154.065,103.374,154.997,103.78z"/>
		</g>
		<g>
			<path fill="#3E3A39" d="M159.077,113.198c0.033-0.06,0.042-0.054,0.054-0.054C159.159,113.004,159.165,112.95,159.077,113.198z"
				/>
		</g>
		<g>
			<path fill="#3E3A39" d="M159.431,112.363c0.005,0.164-0.008,0.301-0.184,0.798c-0.187,0.417-0.063-0.025-0.116-0.017
				c-0.063,0.303-0.262,1.086,0.126,0.165l0.032-0.155c0.088-0.206,0.184-0.43,0.278-0.65c0.058-0.226,0.114-0.446,0.163-0.639
				c0.102-0.38,0.183-0.638,0.183-0.555C159.752,111.571,159.63,111.801,159.431,112.363z"/>
		</g>
		<g>
			<path fill="#3E3A39" d="M158.828,107.259c0,0-0.299-0.376-0.599-0.745c-0.148-0.187-0.295-0.374-0.444-0.477
				c-0.137-0.114-0.229-0.19-0.229-0.19s0.157,0.183,0.313,0.365c0.133,0.201,0.246,0.415,0.246,0.415l0.028-0.086
				C158.763,107.413,158.704,107.177,158.828,107.259z"/>
		</g>
		<g>
			<polygon fill="#3E3A39" points="150.563,101.657 150.844,101.619 149.808,101.382 			"/>
		</g>
		<g>
			<polygon fill="#3E3A39" points="148.426,100.704 148.559,100.62 147.963,100.436 			"/>
		</g>
		<g>
			<path fill="#3E3A39" d="M41.998,88.727c-0.011,0.006-0.175,0.492-0.155,0.48C41.888,89.001,41.968,88.835,41.998,88.727z"/>
		</g>
		<g>
			<path fill="#3E3A39" d="M43.595,85.243l-0.02-0.112C43.534,85.308,43.527,85.385,43.595,85.243z"/>
		</g>
		<g>
			<path fill="#3E3A39" d="M96.101,76.887c-0.651-0.432-1.357-0.963-1.333-0.789l0.156,0.229
				C95.424,76.527,95.792,76.713,96.101,76.887z"/>
		</g>
		<g>
			<path fill="#3E3A39" d="M59.88,61.44l0.199,0.113c0.194,0.014,0.377,0.026,0.542,0.038C60.397,61.545,60.144,61.494,59.88,61.44z
				"/>
		</g>
		<g>
			<path fill="#3E3A39" d="M59.241,61.875l-0.907-0.207C58.539,61.727,58.832,61.797,59.241,61.875z"/>
		</g>
		<g>
			<path fill="#3E3A39" d="M54.088,100.87l0.623,0.122C53.831,100.591,54.187,100.835,54.088,100.87z"/>
		</g>
		<g>
			<path fill="#3E3A39" d="M126.586,90.815c-0.584-0.328-1.055-0.568-1.475-0.768C125.806,90.455,126.343,90.836,126.586,90.815z"/>
		</g>
		<g>
			<path fill="#3E3A39" d="M41.228,86.719c-0.11,0.305-0.142,0.444-0.108,0.448C41.236,86.854,41.29,86.67,41.228,86.719z"/>
		</g>
		<g>
			<path fill="#3E3A39" d="M123.361,89.251c0.104,0.06,0.202,0.117,0.307,0.177c0.453,0.18,0.906,0.365,1.443,0.619
				C124.598,89.746,123.997,89.43,123.361,89.251z"/>
		</g>
		<g>
			<path fill="#3E3A39" d="M123.111,132.441c0.049,0.028,0.104,0.061,0.149,0.087C123.284,132.518,123.215,132.484,123.111,132.441z
				"/>
		</g>
		<g>
			<path fill="#3E3A39" d="M143.278,141.802c-0.229,0.056-0.622,0.065-0.987,0.099C142.469,141.893,142.773,141.89,143.278,141.802z
				"/>
		</g>
		<g>
			<path fill="#3E3A39" d="M139.881,96.743C140.335,96.939,139.959,96.761,139.881,96.743L139.881,96.743z"/>
		</g>
		<g>
			<path fill="#3E3A39" d="M141.841,98.264c-0.104-0.029-0.185-0.044-0.209-0.018C141.684,98.23,141.755,98.239,141.841,98.264z"/>
		</g>
		<g>
			<path fill="#3E3A39" d="M118.488,88.02c-0.013-0.006-0.023-0.011-0.039-0.019C118.572,88.088,118.551,88.073,118.488,88.02z"/>
		</g>
		<g>
			<path fill="#3E3A39" d="M140.532,97.111c-0.168-0.09-0.355-0.192-0.561-0.302C140.066,96.86,140.236,96.952,140.532,97.111z"/>
		</g>
		<g>
			<path fill="#3E3A39" d="M140.471,97.008c0.152,0.076,0.273,0.136,0.389,0.192C140.925,97.205,140.881,97.167,140.471,97.008z"/>
		</g>
		<g>
			<path fill="#3E3A39" d="M139.247,96.462c0.261,0.116,0.499,0.232,0.725,0.347c-0.083-0.048-0.117-0.073-0.091-0.066
				C139.747,96.684,139.559,96.6,139.247,96.462z"/>
		</g>
		<g>
			<path fill="#3E3A39" d="M85.94,115.935c0.029,0.018,0.06,0.037,0.092,0.058C86.514,116.145,86.308,116.062,85.94,115.935z"/>
		</g>
		<g>
			<path fill="#3E3A39" d="M83.718,72.896c0.021,0.007,0.035,0.011,0.055,0.017c-0.021-0.011-0.046-0.025-0.065-0.035L83.718,72.896
				z"/>
		</g>
		<g>
			<path fill="#3E3A39" d="M82.052,72.256c0.765,0.151,1.149,0.35,1.656,0.623l-0.363-0.623L82.052,72.256z"/>
		</g>
		<g>
			<path fill="#3E3A39" d="M43.618,96.02c0.01-0.02-0.749-0.794-0.694-0.836c1.029,0.807,1.799,1.201,1.079,0.578
				c-0.174,0.127-1.005-0.496-1.579-1.362c-0.529-0.895-0.739-1.904-0.994-1.942c-0.017-0.001,0.038-0.73,0.038-0.73
				c0.01,0.206,0.039,0.236,0.047,0.438c0.057-0.7-0.056-0.94-0.088-1.26c-0.05-0.313-0.196-0.728,0.181-1.597
				c0.223-0.598,0.569-1.06,0.39-0.581l0.564-1.509c0.201-0.42,0.226-0.285,0.024,0.136l0.983-2.246l0.004,0.023
				c0.08-0.348,0.309-1.114,0.427-1.486c0.317-0.54-0.085,0.304,0.032,0.183l0.462-1.279c0.336-0.455-0.027,0.615-0.431,1.462
				c0.936-0.966,0.364-1.073,1.737-3.451l-0.479,1.188c0.575-0.644,0.905-1.592,1.652-2.845c-0.219,0.278-1.57,2.473-1.061,1.085
				c0.202-0.362,0.444-0.854,0.691-1.615c0.148,0.062,0.435-0.661,0.829-1.549l0.167,0.149c0.378-0.98,0.246-0.951,0.415-1.552
				c0.503-1.054,0.754-1.207,0.995-1.4c0.807-1.69-0.777,1.067,0.105-0.966c0.72-1.384,1.093-2.414,1.75-4.163
				c0.519-0.961,0.04,0.228,0.257-0.104l0.246-0.949c0.102-0.214,0.118-0.123,0.125-0.076c0.278-0.77-0.166-0.149,0.313-1.339
				c-0.028-0.19,0.298-0.802,0.742-1.438c0.244-0.291,0.424-0.66,0.71-0.944c0.292-0.275,0.502-0.624,0.754-0.887
				c0.324-0.166-0.054,0.202,0.089,0.198c0.363-0.313,0.61-0.57,0.833-0.729c0.236-0.142,0.407-0.245,0.571-0.344
				c0.316-0.236,0.627-0.334,1.412-0.674c0,0,1.428,0,1.416,0.061c-0.507-0.102-0.45-0.165-0.09-0.267
				c0.179-0.021,0.432-0.032,0.721-0.038c0.147-0.002,0.3-0.004,0.456-0.006c0.155,0.012,0.306,0.056,0.46,0.083
				c-0.345-0.229-0.68-0.317-0.906-0.378c0,0,0.127,0.009,0.319,0.022c0.196-0.006,0.439,0.074,0.687,0.142
				c0.249,0.069,0.498,0.139,0.685,0.19c0.191,0.049,0.305,0.098,0.305,0.098c0.202,0.139,0,0.1-0.349,0.076
				c0.139,0.023,0.264,0.061,0.36,0.089c0.617,0.368,0.229,0.326-0.284,0.223c-0.208-0.117-0.415-0.234-0.619-0.35
				c-0.251-0.017-0.488-0.025-0.652-0.01c-0.171,0.045-0.266,0.103-0.229,0.169c0.126-0.028,0.353,0.028,0.598,0.104
				c-0.124-0.005-0.203,0.001-0.158,0.039c0.054,0.042,0.247,0.059,0.555,0.104l0.305,0.353l0.139-0.041l2.314,1.217
				c1.798,0.556,3.423,0.91,6.16,2.049c-0.741-0.146-0.262,0.193-0.384,0.365c-0.645-0.534-2.128-0.868-3.506-1.544
				c0.719,0.353,0.518,0.369,0.318,0.316l2.575,0.955c-0.126,0.128,0.478,0.356,1.101,0.717c-0.354-0.528,1.95,0.644,3.007,1.014
				c0.016,0.13-0.274,0.124-1.5-0.464c1.261,0.85,1.926,0.447,3.178,1.251c-0.303-0.135-0.458-0.224-0.601-0.227
				c0.746,0.231,2.439,1.088,1.993,0.993l-0.303-0.136c1.99,0.95,6.108,2.785,6.525,2.664c0.003,0.042-0.405,0.19-0.549,0.188
				l3.975,0.763c-0.417,0.078,0.553,1.156-1.167,0.523c0.464,0.25,1.039,0.556,2.081,0.937c-0.312-0.18-0.668-0.691-0.213-0.508
				c1.111,0.804,0.79,0.519,2.201,1.415c-0.466-0.27,0.234-0.37,1.001-0.007c-0.146-0.003-0.092,0.372-0.391,0.279l2.077,0.534
				c-0.507-0.157-0.216,0.25,0.17,0.543c-0.169-0.158,1.658,0.763,2.186,0.962l-0.779-0.45c2.146,1.04,2.361,0.497,4.505,1.495
				c-0.292-0.048-0.841,0.14,0.234,0.682c0.582,0.054,2.604,0.172,4.57,0.905l0.319,0.266l1.513,0.552
				c-1.029-0.152-3.835-0.762-5.327-1.182c0.776,0.449,0.173,0.221,1.393,0.765c0.387,0.289-0.728-0.16-1.088-0.317l2.804,1.35
				c-0.032-0.261,2.258,0.782,2.227,0.563l-3.17-1.189c-0.032-0.26,2.042,0.232,4.032,1.182c0.472,0.313-0.547,0.189-0.537,0.275
				c0.293,0.049,1.966,0.733,2.126,0.867l-0.9-0.279c1.082,0.585,1.946,0.561,3.199,1.366c0.458,0.224,1.264,0.892,1.398,0.808
				c-0.649-0.577-0.471-1.364,0.112-1.309c0.156,0.09,2.332,1.331,2.808,1.686c0.68,0.53-1.343-0.087-0.766,0.366
				c0.055-0.042,0.508,0.081,0.692,0.138c0.465,0.269-0.279,0.081,0.789,0.538c0.27-0.127,2.142,0.996,0.578,0.052
				c1.061,0.412,1.081,0.543,2.299,1.087c-0.326-0.31,1.296,0.042,2.359,0.455c-0.085,0.025,0.115,0.199,0.214,0.281
				c2.11,0.984,3.206,1.596,5.18,2.498c0.16,0.133,1.087,0.628,0.64,0.532c0.302,0.093,0.594,0.141,1.205,0.414
				c1.099,0.716-1.371-0.591-0.568,0.034c0.131-0.085,1.65,0.552,2.553,0.872c-0.184-0.307-1.99-0.949-2.894-1.271
				c0.114-0.257,1.749,0.165,3.868,0.987c1.669,0.684,0.636,0.489,0.938,0.583c3.063,1.448,2.83,0.75,5.307,2.1
				c0.94,0.625-0.104,0.345,0.068,0.565c-1.363-0.547-2.004-1.038-2.913-1.444l1.08,0.585c-0.451-0.14-1.361-0.505-1.826-0.774
				c0.784,0.534,5.195,2.4,7.514,3.62c0.446,0.137,1.202,0.413,0.886,0.19l-0.763-0.32c-0.632-0.446,1.501,0.464,0.574-0.032
				c1.052,0.367,2.25,0.738,3.638,1.459l0.183,0.308c-0.005-0.068-0.878-0.533-1.304-0.659c0.63,0.188,2.064,1.244,2.824,1.296
				l-0.938-0.583c1.058,0.369,2.399,0.742,3.633,1.375c-0.49-0.445-0.301-0.112-1.098-0.734c0.653,0.62-3.217-1.479-2.099-0.63
				c-0.805-0.667-1.542-0.83-2.646-1.589c0.009,0.078,0.373,0.312-0.671-0.201c-0.056-0.003-0.18-0.033-0.258-0.052
				c-0.03-0.017-0.041-0.022-0.069-0.038l0.055,0.034c-0.049-0.012-0.054-0.011,0.021,0.013c0.239,0.142,0.429,0.267,0.497,0.339
				c-0.589-0.098-2.27-0.869-2.87-1.055c-0.615-0.315,0.294,0.049-0.02-0.173l-0.898-0.278c-0.023-0.175-1.564-0.985-0.049-0.392
				l-1.328-0.612c-0.75-0.434-1.812-0.954-2.503-1.2c-0.615-0.315-1.654-0.571-1.06-0.429l-2.124-0.866l-0.003-0.042
				c-2.052-0.955-4.341-1.705-6.583-3.022c-0.71-0.282-1.444-0.566-2.587-1.133l-0.173-0.221c-0.907-0.364-2.618-1.334-3.056-1.386
				c-0.816-0.754-4.288-2.037-5.826-2.805l-0.13,0.126c-1.073-0.5-2.127-0.927-3.491-1.473l0.021,0.173
				c-1.204-0.414-2.921-1.447-4.75-2.264c0.146,0.004,0.604,0.229,0.916,0.409c-2.039-1.299-4.698-1.87-6.572-2.993
				c-0.514-0.175-0.864-0.354-1.193-0.545c0.045,0.02,0.089,0.037,0.125,0.048c-0.051-0.023-0.125-0.058-0.201-0.094
				c-0.208-0.122-0.424-0.25-0.651-0.384c0.19,0.127,0.375,0.244,0.542,0.335c-0.382-0.17-0.966-0.416-1.546-0.639l-0.173-0.255
				c-0.047-0.02-0.084-0.035-0.133-0.056c-0.529-0.306-0.477-0.133-0.23,0.111c-0.296-0.105-0.57-0.196-0.788-0.252
				c-0.343-0.441-1.518-0.596-2.017-1.126c-0.436-0.051-2.879-1.2-3.299-1.08c-0.003-0.042-0.163-0.134,0.143,0.003
				c-0.615-0.316-1.23-0.632-1.828-0.816l-0.182-0.307L85.1,72.428c-0.783-0.494-1.098-0.716-0.205-0.482
				c-2.103-0.692-1.661-0.656-3.463-1.214l0.138-0.082c-0.611-0.273-1.657-0.555-1.978-0.821c-1.258-0.848-6.72-3.099-10.119-4.902
				c0.517,0.662-1.551-0.898-1.815-0.688c-0.165-0.176-0.631-0.445-0.032-0.26c-1.82-0.729-2.618-1.353-3.956-1.683
				c-0.166-0.177,0.438,0.051,0.28-0.081c-0.151-0.047-0.601-0.186-0.763-0.32c-0.159-0.132,0.293,0.049,0.592,0.141
				c-1.827-0.815-2.13-0.642-2.373-0.461c-0.418-0.278-0.805-0.427-1.159-0.535c-0.354-0.103-0.675-0.193-1.076-0.127
				c-0.35-0.131-0.982-0.305,0.356-0.165c-0.187-0.028-0.566-0.084-1.031-0.153c-0.466-0.088-1.025,0.019-1.561,0.035
				c-0.527,0.088-1.02,0.261-1.386,0.371c-0.351,0.158-0.559,0.318-0.556,0.369c-0.116,0.026-0.354,0.138-0.581,0.256
				c-0.232,0.11-0.405,0.308-0.483,0.367c-0.332,0.253-0.607,0.428-0.805,0.617c-0.186,0.203-0.34,0.37-0.493,0.536
				c-0.142,0.175-0.325,0.319-0.459,0.556c-0.135,0.235-0.293,0.511-0.498,0.869l0.259-0.376c-0.13,0.675-0.557,1.191-1.048,2.339
				l-0.009-0.044c-1.351,2.518-0.43,1.158-1.787,3.627l0.208-0.073c0.204,0.381-1.217,2.184-1.773,3.722l0.327-0.498
				c-0.262,0.86-1.458,2.072-1.867,2.868c-0.108,0.165,0.083-0.299,0.176-0.557c-1.155,2.048,0.065,0.363-0.615,1.973
				c-0.235,0.245-0.088-0.498-0.595,0.564c-0.326,0.495-1.079,3.253-1.941,4.622c0.226-0.286,0.45-0.568,0.174,0.196
				c-0.487,1.145-1.692,2.922-1.909,4.058c-0.087,0.135-0.132,0.178-0.155,0.176c-0.152,0.47-0.489,1.107-0.686,1.906
				c-0.271,0.744-0.254,1.487-0.225,1.791c-0.382,0.427-0.229,2.123,0.434,3.437c0.18,0.322,0.343,0.642,0.517,0.922
				c0.206,0.262,0.393,0.5,0.552,0.702c0.285,0.433,0.545,0.645,0.442,0.744c0,0,0.15,0.132,0.376,0.331
				c0.113,0.099,0.245,0.213,0.386,0.336c0.162,0.094,0.335,0.194,0.508,0.295c0.703,0.434,1.365,0.701,1.365,0.702l-0.092,0.016
				c1.687,0.805,2.338,0.968,2.985,1.128c0.379,0.211,0.072,0.123,0.029,0.133c2.441,1.225,2.698,1.318,4.885,2.036l0.149,0.249
				c0.604,0.17,3.484,1.871,6,2.806c-0.032,0.006-0.095,0.013-0.299-0.055c2.822,1.072,6.373,3.406,7.626,3.316l1.872,0.689
				c-2.321-1.108,0.456-0.079-0.465-0.608c0.935,0.387,2.305,1.249,1.161,0.762l-0.165-0.108c-0.545,0.097,2.863,1.427,2.712,1.593
				c4.61,2.083,9.028,4.285,13.334,6.262l-0.395-0.447l1.499,0.698c0.371,0.231,0.451,0.414-0.618-0.084
				c0.507,0.383,1.849,0.716,1.9,0.681c2.061,1.047-0.938-0.115-0.295,0.184l0.882,0.382l-0.186-0.115
				c0.75,0.232,0.857,0.165,2.144,0.764c0.796,0.417,0.356,0.328,0.673,0.482c-0.01,0.015,0.096,0.071,0.49,0.231l1.886,0.882
				l-0.678-0.521c0.88,0.297,1.78,0.821,0.996,0.225c1.144,0.891,7.021,3.331,7.765,3.784c1.235,0.409,2.396,0.94,3.828,1.611
				c-0.341-0.199-0.465-0.493,0.765,0.096c-0.639,0.199,2.192,1.212,3.063,1.961c-0.808-0.603,3.55,1.559,2.269,0.644
				c1.021,0.504-0.007,0.18,0.736,0.634c2.537,0.966,5.385,2.576,8.457,3.911c0.071-0.031-0.402-0.346,0.288-0.127l1.487,0.999
				c0.613,0.248,0.694-0.055,1.708,0.631c-0.134-0.116-0.335-0.289,0.077-0.122c2.925,1.489,5.998,2.825,9.069,4.194
				c1.536,0.685,3.072,1.378,4.588,2.104c0.771,0.356,1.486,0.744,2.284,1.103c0.428,0.155,0.849,0.357,1.292,0.479
				c0.451,0.08,0.907,0.185,1.369,0.246c-0.498-0.09-0.574-0.15-0.438-0.146c0.068,0,0.19,0.009,0.342,0.023
				c0.152-0.002,0.336-0.023,0.524-0.035c-0.49,0.006,0.006-0.146-0.093-0.218c0,0,0.186,0,0.465,0.001c0.142,0,0.306,0,0.481,0
				c0.174-0.02,0.356-0.063,0.542-0.096c0.365-0.083,0.755-0.116,1.016-0.229c0.266-0.105,0.442-0.176,0.442-0.176
				c0.102-0.11,0.332-0.255,0.623-0.416c0.266-0.206,0.577-0.447,0.885-0.686c0.588-0.502,1.037-1.119,1.068-1.28l-0.597,0.727
				c0.327-0.551-0.079-0.305-0.537-0.013c-0.519,0.238-1.125,0.476-1.142,0.296c-0.439,0.452-1.253,0.751-2.154,0.848
				c-0.442,0.098-0.927,0.005-1.402,0.064c-0.474-0.063-0.974-0.045-1.479-0.089c-0.399-0.205,0.382,0.024,0.175-0.125
				c-0.502-0.039-1.096-0.152-2.192-0.756l0.141,0.026c-3.143-1.396-4.43-2.129-7.906-3.812l0.194,0.262
				c-0.747-0.363-0.886-0.48-1.222-0.678c-0.966-0.177,2.115,0.979,1.216,0.858c-0.869-0.748-5.324-2.43-5.851-3.07
				c-1.161-0.531,0.266,0.321-0.896-0.21l-0.266-0.23l-0.348-0.018c-0.752-0.366-1.085-0.653-1.079-0.742
				c0.182,0.093,0.534,0.218,0.736,0.302c-0.94-0.557-2.803-1.233-3.126-1.422l1.091,0.563c-3.208-1.36-7.026-3.242-10.174-4.455
				l0.201,0.174c-2.396-0.94-1.84-0.928-4.437-2.041l0.102,0.027c-0.545-0.167-1.247-0.445-1.947-0.773
				c0.686,0.216-1.148-0.71-0.258-0.41c-2.599-1.021-1.305-0.467-3.094-0.978l-0.336-0.289c-0.616-0.157-0.688-0.126-1.984-0.681
				c1.096,0.383-0.741-0.545,0.495-0.136c-2.58-1.472-4.111-1.573-5.183-2.495c-1.377-0.251,2.251,1.234,1.529,0.985
				c0.534,0.366-1.126-0.231-1.958-0.648c-0.855-0.397-1.28-1.063-3.447-2.043c0.215,0.1,0.241,0.083,0.455,0.182
				c-0.774-0.448-1.635-0.615-2.569-1.196c-0.642-0.065-1.286-0.599-1.554-0.431l2.009,0.848c-1.154-0.449-2.336-0.649-4.127-1.629
				c0.165,0.017,0.745,0.204,1.141,0.341c-0.508-0.317-1.064-0.428-1.593-0.757c0.27-0.167,2.436,1.047,3.724,1.412
				c-0.534-0.365-2.358-0.864-1.634-0.849c-1.021-0.065-2.113-1.013-3.693-1.428l0.163-0.1c-0.242-0.083-0.754-0.234-1.18-0.432
				l0.859,0.166c-1.26-0.382-2.224-1.182-3.4-1.612c2.383,1.08,0.455,0.416,1.414,0.979c-3.025-1.146-1.518-1.146-4.839-2.575
				c0.455,0.183,1.633,0.849,0.906,0.598c-0.612-0.314-1.414-0.746-1.764-0.997c-2.193-0.963,0.267,0.301-0.701-0.034
				c-0.663-0.513-1.104-0.416-2.083-0.794l0.059-0.15c-2.441-1.225-0.796,0.005-2.981-1.127l1.039,0.229l-1.19-0.479l0.317-0.057
				c-1.326-0.454-1.706-0.666-2.927-1.278c0.242,0.234-0.284,0.191-1.386-0.306c-0.71-0.429,0.485,0.053-1.084-0.637
				c0.393,0.068,0.832,0.13,1.449,0.574c0.09-0.017,0.389,0.066,0.482,0.052c-0.763-0.468-2.02-0.947-2.585-1.203
				c0.215,0.104,0.471,0.23,0.594,0.312l-2.353-0.827c-0.33-0.217-0.028-0.132,0.271-0.048c-0.465-0.193-0.812-0.27-1.49-0.563
				c0.228-0.04,0.242-0.182,1.219,0.196l-2.212-0.849c-0.121-0.117-1.041-0.646-0.743-0.563c-1.161-0.613-3.034-1.104-4.574-1.917
				c-0.093-0.014-0.267-0.067-0.612-0.203c-1.476-0.705-2.728-1.452-4.564-2.091l-0.904-0.669c-1.403-0.581,1.232,0.885-1.104-0.082
				c-1.658-0.673-0.524-0.458-1.07-0.778c-0.428-0.13-1.049-0.294-1.569-0.573c-0.142-0.07-0.287-0.142-0.434-0.215
				c-0.14-0.088-0.258-0.214-0.389-0.326c-0.25-0.239-0.538-0.464-0.691-0.808c0.151,0.186,0.289,0.345,0.457,0.473
				C43.3,95.737,43.452,95.872,43.618,96.02z M45.896,80.02c-0.12,0.344-0.324,1.044-0.521,1.247
				C45.379,80.815,45.591,80.562,45.896,80.02z M62.29,62.775c-0.267-0.063-0.635-0.26-1.04-0.511
				C61.567,62.394,61.916,62.559,62.29,62.775z M134.873,94.605l-0.038-0.009C134.124,94.205,134.377,94.346,134.873,94.605z
				 M136.373,95.366c0.163,0.049,0.162,0.024,0.106-0.026c-0.124-0.012-0.468-0.165-0.854-0.354
				C135.716,95.074,135.902,95.19,136.373,95.366z M90.318,119.117l-0.279-0.174C90.729,119.207,90.523,119.159,90.318,119.117z"/>
		</g>
		<g>
			<path fill="#3E3A39" d="M59.321,61.814c-0.087-0.038-0.108-0.07-0.123-0.102C59.061,61.723,59.055,61.754,59.321,61.814z"/>
		</g>
		<g>
			<path fill="#3E3A39" d="M53.972,100.846l0.051,0.025c0.033,0.004,0.052,0.002,0.065-0.002L53.972,100.846z"/>
		</g>
		<g>
			<path fill="#3E3A39" d="M112.13,85.82c-0.305-0.164-0.469-0.271-0.573-0.352C111.525,85.497,111.654,85.592,112.13,85.82z"/>
		</g>
		<g>
			<path fill="#3E3A39" d="M144.586,98.806l-0.995-0.407c0.477,0.208,0.63,0.317,0.859,0.449
				C144.443,98.804,144.28,98.67,144.586,98.806z"/>
		</g>
		<g>
			<path fill="#3E3A39" d="M152.674,103.583c0.151,0.047,0.304,0.136,0.453,0.182l-0.007-0.085
				C152.508,103.406,152.057,103.267,152.674,103.583z"/>
		</g>
		<g>
			<path fill="#3E3A39" d="M145.271,99.705c0.022,0.159,0.654,0.396,1.352,0.687c-0.041-0.019-0.079-0.036-0.122-0.056
				C146.782,100.256,146.026,99.98,145.271,99.705z"/>
		</g>
		<g>
			<path fill="#3E3A39" d="M146.784,100.459c0.215,0.091,0.431,0.185,0.635,0.285C147.531,100.713,147.168,100.613,146.784,100.459z
				"/>
		</g>
		<g>
			<path fill="#3E3A39" d="M138.35,96.167c0.31,0.18,0.275-0.064,0.437,0.07C139.221,96.246,136.532,95.438,138.35,96.167z"/>
		</g>
		<g>
			<polygon fill="#3E3A39" points="145.644,100.364 145.466,100.1 145.026,100.047 			"/>
		</g>
		<g>
			<path fill="#3E3A39" d="M140.278,97.785l1.076,0.542c-0.004-0.033,0.141,0.015,0.318,0.082
				C140.999,98.096,140.273,97.729,140.278,97.785z"/>
		</g>
		<g>
			<path fill="#3E3A39" d="M141.673,98.409c0.35,0.163,0.687,0.313,0.893,0.376C142.375,98.7,141.962,98.518,141.673,98.409z"/>
		</g>
		<g>
			<polygon fill="#3E3A39" points="144.124,99.727 143.813,99.547 143.045,99.184 			"/>
		</g>
		<g>
			<path fill="#3E3A39" d="M128.51,92.39l-1.216-0.502c-0.146-0.003,0.166,0.177,0.62,0.359
				C128.217,92.341,128.672,92.524,128.51,92.39z"/>
		</g>
		<g>
			<path fill="#3E3A39" d="M131.938,94.453c-0.31-0.179-0.315-0.222-0.475-0.355l-0.122,0.172L131.938,94.453z"/>
		</g>
		<g>
			<path fill="#3E3A39" d="M128.43,92.908c-0.144-0.002-1.805-0.641-0.283,0.038C128.292,92.95,129.51,93.452,128.43,92.908z"/>
		</g>
		<g>
			<polygon fill="#3E3A39" points="110.517,84.462 110.82,84.598 110.919,84.27 			"/>
		</g>
		<g>
			<path fill="#3E3A39" d="M94.294,77.965c1.384,0.72,0.423-0.037,1.663,0.639c0.366,0.078-1.013-0.552-0.643-0.46
				C94.424,77.832,93.995,77.583,94.294,77.965z"/>
		</g>
		<g>
			<path fill="#3E3A39" d="M95.314,78.144c0.142,0.047,0.294,0.098,0.458,0.152C95.516,78.202,95.393,78.164,95.314,78.144z"/>
		</g>
		<g>
			<path fill="#3E3A39" d="M146.969,140.206c0.027,0.035,0.823-0.775,0.822-0.775l-0.57,0.465
				C147.221,139.896,146.982,140.22,146.969,140.206z"/>
		</g>
		<g>
			<path fill="#3E3A39" d="M148.122,138.414l0.316-0.113l0.158-0.664C148.483,137.854,148.258,138.279,148.122,138.414z"/>
		</g>
		<g>
			<path fill="#3E3A39" d="M47.446,77.668l-0.016-0.091c-0.115,0.117-0.217,0.33-0.419,0.753L47.446,77.668z"/>
		</g>
		<g>
			<polygon fill="#3E3A39" points="41.806,89.864 41.874,89.679 41.564,89.979 			"/>
		</g>
		<g>
			<path fill="#3E3A39" d="M46.691,97.162c-0.426-0.185-0.928-0.402-1.358-0.588C46.272,96.962,46.706,97.437,46.691,97.162z"/>
		</g>
	</g>
	<g>
		<g>
			<polygon fill="#3E3A39" points="102.016,67.742 103.625,67.65 102.721,68.982 103.305,70.482 101.758,70.033 100.512,71.055 
				100.459,69.445 99.104,68.574 100.62,68.027 101.028,66.469 			"/>
		</g>
	</g>
	<g>
		<g>
			<polygon fill="#3E3A39" points="113.014,70.125 114.305,69.161 114.285,70.772 115.602,71.7 114.066,72.179 113.59,73.72 
				112.658,72.405 111.047,72.429 112.008,71.136 111.488,69.611 			"/>
		</g>
	</g>
	<g>
		<g>
			<polygon fill="#3E3A39" points="122.531,77.65 124.074,77.196 123.498,78.699 124.406,80.027 122.799,79.941 121.816,81.219 
				121.4,79.662 119.883,79.121 121.234,78.246 121.281,76.635 			"/>
		</g>
	</g>
	<g>
		<g>
			<polygon fill="#3E3A39" points="96.622,133.345 95.013,133.24 96.072,132.029 95.673,130.47 97.154,131.1 98.515,130.238 
				98.373,131.842 99.613,132.869 98.043,133.229 97.448,134.727 			"/>
		</g>
	</g>
	<g>
		<g>
			<polygon fill="#3E3A39" points="86.898,130.466 85.587,131.403 85.642,129.794 84.346,128.835 85.895,128.39 86.406,126.861 
				87.307,128.197 88.918,128.211 87.927,129.481 88.413,131.017 			"/>
		</g>
	</g>
	<g>
		<g>
			<polygon fill="#3E3A39" points="78.1,123.845 76.516,124.135 77.25,122.701 76.485,121.282 78.075,121.538 79.187,120.374 
				79.436,121.964 80.887,122.661 79.45,123.392 79.236,124.987 			"/>
		</g>
	</g>
</g>
</svg>
