<?xml version="1.0" encoding="utf-8"?>
<!-- Generator: Adobe Illustrator 16.0.0, SVG Export Plug-In . SVG Version: 6.00 Build 0)  -->
<!DOCTYPE svg PUBLIC "-//W3C//DTD SVG 1.1//EN" "http://www.w3.org/Graphics/SVG/1.1/DTD/svg11.dtd">
<svg version="1.1" id="图层_1" xmlns="http://www.w3.org/2000/svg" xmlns:xlink="http://www.w3.org/1999/xlink" x="0px" y="0px"
	 width="200px" height="200px" viewBox="0 0 200 200" enable-background="new 0 0 200 200" xml:space="preserve">
<g opacity="0.3">
	<g>
		<g>
			<g>
				<path fill="#DD8911" d="M113.638,55.701c-0.164-0.066-0.281-0.059-0.313,0.119C113.483,55.891,113.606,55.881,113.638,55.701z"
					/>
			</g>
		</g>
		<g>
			<g>
				<path fill="#DD8911" d="M137.212,74.146l0.137-0.456c-0.385-0.075-0.816,0.041-0.717,0.402
					C136.696,74.319,136.944,74.231,137.212,74.146z"/>
			</g>
		</g>
		<g>
			<g>
				<path fill="#DD8911" d="M90.983,54.651c-0.347,0.094-0.102,0.496,0.075,0.447C91.25,55.052,91.122,54.618,90.983,54.651z"/>
			</g>
		</g>
		<g>
			<g>
				<path fill="#DD8911" d="M129.222,65.353c0.43,0.132,0.49-0.714,0.029-0.558C128.995,64.876,128.997,65.287,129.222,65.353z"/>
			</g>
		</g>
		<g>
			<g>
				<path fill="#DD8911" d="M144.099,93.332c-0.246,0.063-0.297,0.569-0.152,0.736c0.121,0.143,0.684-0.067,0.977,0.253
					c-0.016-0.21-0.025-0.42-0.049-0.628C144.612,93.528,144.226,93.296,144.099,93.332z"/>
			</g>
		</g>
		<g>
			<g>
				<path fill="#DD8911" d="M88.83,55.078c0.024,0.448,0.178,0.919,0.317,1.03c0.767,0.597,0.751-0.86,1.218-0.568
					c0.489,0.299-0.936,1.239-1.249,0.915c0.015,0.09,0.004,0.199-0.012,0.311c9.128-2.617,19.084-2.242,28.35,1.696
					c0.131,0.012,0.264,0.018,0.32-0.047c0.244-0.272-0.178-0.825,0.297-0.978c0.199-0.063,0.463,0.225,0.684,0.271
					c0.344,0.068,0.461-0.173,0.764,0.013c-0.6,0.636,0.363,0.972,0.623,0.251c0.016-0.034,0.014-0.097,0.008-0.164
					c-0.26-0.127-0.51-0.26-0.77-0.383c-2.869-1.321-5.809-2.309-8.775-2.974c0.051,0.221-0.178,0.541-0.445,0.512
					c-0.313-0.041-0.451-0.47-0.188-0.642C102.875,52.832,95.633,53.155,88.83,55.078z M113.638,55.701
					c-0.031,0.181-0.154,0.19-0.313,0.119C113.356,55.642,113.474,55.634,113.638,55.701z M91.058,55.098
					c-0.176,0.049-0.421-0.354-0.075-0.447C91.122,54.618,91.25,55.052,91.058,55.098z"/>
			</g>
		</g>
		<g>
			<g>
				<path fill="#DD8911" d="M143.907,102.748c-0.445,0.039-0.34,0.722-0.072,0.694C144.046,103.421,144.249,102.723,143.907,102.748
					z"/>
			</g>
		</g>
		<g>
			<g>
				<path fill="#DD8911" d="M143.251,102.07c0.365-0.359,0.674-1.401,0.41-1.745c-0.018,0.172-0.16,0.299-0.322,0.415
					C143.312,101.183,143.288,101.627,143.251,102.07z"/>
			</g>
		</g>
		<g>
			<g>
				<path fill="#DD8911" d="M143.632,96.257c-0.131,0.03-0.211,0.139-0.256,0.272c0.008,0.192,0.012,0.389,0.018,0.586
					c0.049,0.116,0.113,0.198,0.201,0.198C143.913,97.316,144.214,96.129,143.632,96.257z"/>
			</g>
		</g>
		<g>
			<g>
				<path fill="#DD8911" d="M143.251,94.475c0.047-0.009,0.086-0.015,0.086-0.015c0.422,0.015,0.49,0.357,0.662,0.125
					c0.25-0.336-0.434-0.547-0.803-0.767C143.22,94.037,143.229,94.256,143.251,94.475z"/>
			</g>
		</g>
		<g>
			<g>
				<path fill="#DD8911" d="M143.55,99.302c0.313-0.298,0.111-0.831-0.133-1.177c0.002,0.405-0.012,0.815-0.021,1.224
					C143.466,99.339,143.526,99.324,143.55,99.302z"/>
			</g>
		</g>
		<g>
			<g>
				<path fill="#DD8911" d="M143.069,103.717c-0.012,0.095-0.023,0.189-0.033,0.286l0.107,0.049
					C143.153,103.934,143.138,103.82,143.069,103.717z"/>
			</g>
		</g>
		<g>
			<g>
				<path fill="#DD8911" d="M145.083,98.913c-0.152,0.304-0.201,0.601-0.014,0.776C145.077,99.431,145.077,99.169,145.083,98.913z"
					/>
			</g>
		</g>
		<g>
			<g>
				<path fill="#DD8911" d="M136.13,72.521c-0.141-0.019-0.773-0.322-1.096-0.539c-0.1-0.07-0.203-0.269-0.326-0.31
					c-0.068-0.022-0.162-0.036-0.258-0.052c0.752,0.984,1.465,1.998,2.127,3.039c0.119,0.092,0.217,0.207,0.209,0.333
					c3.465,5.549,5.65,11.858,6.367,18.433c0.203-0.086,0.521-0.15,0.6-0.338c0.143-0.336-0.348-1.582-0.135-2.318
					c0.215-0.754,0.168-1.098-0.516-1.299c0.545-0.255,0.387-0.547,0.766-0.913c0.049-0.047,0.107-0.086,0.172-0.121
					c-1.197-5.503-3.389-10.74-6.488-15.411l-0.094,0.309c-0.326-0.059-0.465-0.882-0.586-0.955
					C136.632,72.244,136.485,72.566,136.13,72.521z M137.349,73.69l-0.137,0.456c-0.268,0.085-0.516,0.173-0.58-0.054
					C136.532,73.731,136.964,73.615,137.349,73.69z"/>
			</g>
		</g>
		<g>
			<g>
				<path fill="#DD8911" d="M87.035,55.623c0.139,0.14,0.331,0.224,0.534,0.162c0.097-0.03,0.194-0.206,0.24-0.396
					C87.552,55.466,87.292,55.54,87.035,55.623z"/>
			</g>
		</g>
		<g>
			<g>
				<path fill="#DD8911" d="M87.816,56.357c-0.26,0.285-0.605,0.305-0.75,0.633c-0.084,0.188-0.126,0.34-0.147,0.468
					c0.361-0.122,0.719-0.245,1.082-0.359c-0.009-0.125-0.001-0.24,0.035-0.321c0.087-0.188,1.286-0.651,0.51-0.994
					C88.145,55.615,88.04,56.108,87.816,56.357z"/>
			</g>
		</g>
		<g>
			<g>
				<path fill="#DD8911" d="M74.594,63.25c-0.179-0.056-0.296-0.237-0.544-0.263c-0.165-0.013-0.587,0.328-0.748,0.106
					c-0.08-0.112,0.084-0.572,0.482-0.559c0.071,0.004,0.353,0.142,0.378,0.13c0.372-0.14,0.425-0.455,0.53-0.685
					c-0.164-0.057-0.33-0.104-0.48-0.155c-1.213,1.012-2.371,2.099-3.487,3.245l1.561,0.814c0.89-0.894,1.801-1.756,2.752-2.563
					C74.834,63.297,74.673,63.275,74.594,63.25z"/>
			</g>
		</g>
		<g>
			<g>
				<path fill="#DD8911" d="M120.62,58.474c-0.408,0.373-1.109,0.185-1.4,0.783c0.84,0.402,1.658,0.832,2.457,1.283
					c0.209-0.303,0.111-0.791,0.195-1.131c0.039-0.156,0.146-0.375,0.273-0.57c-0.344-0.186-0.684-0.375-1.031-0.555
					c-0.014,0.309,0.342,0.258,0.025,0.555C120.901,59.06,120.653,58.841,120.62,58.474z"/>
			</g>
		</g>
		<g>
			<g>
				<path fill="#DD8911" d="M81.874,58.449c-0.19-0.01-0.333-0.321-0.52-0.361c-0.518-0.123-0.83,0.383-0.872,0.807
					c0.272-0.02,0.754-0.341,0.622,0.26c-0.591-0.285-0.697,0.405-0.537,0.621c0.071,0.101,0.396-0.027,0.551,0.021
					c0.043,0.014,0.091,0.039,0.142,0.067c0.076-0.04,0.151-0.083,0.229-0.12c-0.108-0.123-0.165-0.26-0.105-0.363
					c0.145-0.256,0.487-0.106,0.739,0.051c0.597-0.29,1.204-0.564,1.815-0.828c-0.306,0.042-0.426,0.279-0.633,0.201
					c-0.335-0.123-0.341-0.807-0.66-0.832C82.474,57.951,82.1,58.469,81.874,58.449z"/>
			</g>
		</g>
		<g>
			<g>
				<path fill="#DD8911" d="M75.351,62.017c-0.049,0.012-0.209,0.04-0.186,0.158C75.279,62.854,76.172,61.756,75.351,62.017z"/>
			</g>
		</g>
		<g>
			<g>
				<path fill="#DD8911" d="M75.251,63.561c0.082-0.058,0.162-0.116,0.242-0.172c-0.041-0.1-0.202-0.165-0.308-0.142
					C74.891,63.321,75.067,63.513,75.251,63.561z"/>
			</g>
		</g>
		<g>
			<g>
				<path fill="#DD8911" d="M82.582,57.733c0.164,0.315,0.559-0.296,0.97-0.214c0.47,0.098,0.606,0.828,0.848,0.889
					c0,0,0.01,0,0.014,0c0.161-0.063,0.317-0.13,0.48-0.194c0.165-0.146,0.283-0.315,0.279-0.285c0.038-0.528-0.8-0.231-0.843-0.891
					c0.272,0.132,0.662-0.293,0.969-0.212c0.106,0.028,0.163,0.387,0.287,0.436c0.426,0.189,1.209-0.32,1.301-0.607
					c0.096-0.29-0.278-0.449-0.136-0.93c-0.271,0.09-0.537,0.189-0.804,0.287c-0.033,0.284-0.209,0.592-0.419,0.523
					c-0.147-0.046-0.33-0.114-0.516-0.193c-0.549,0.207-1.094,0.438-1.634,0.666c0.028,0.089,0.047,0.164,0.063,0.201
					C83.142,57.121,82.393,57.379,82.582,57.733z"/>
			</g>
		</g>
		<g>
			<g>
				<path fill="#DD8911" d="M72.252,63.952c-0.089,0.015-0.178-0.023-0.23-0.01c-0.013,0.01-0.026,0.021-0.037,0.032
					c-0.018,0.027-0.022,0.081-0.006,0.182C72.055,64.596,72.87,63.863,72.252,63.952z"/>
			</g>
		</g>
		<g>
			<g>
				<path fill="#DD8911" d="M118.44,58.888c0.072,0.032,0.148,0.059,0.221,0.093c0.164,0.077,0.324,0.165,0.488,0.242
					C119.126,58.569,118.845,58.687,118.44,58.888z"/>
			</g>
		</g>
		<g>
			<g>
				<path fill="#DD8911" d="M123.282,60.754c-0.27,0.016-0.533-0.307-0.814-0.313c-0.236-0.008-0.398,0.126-0.535,0.242
					c0.979,0.557,1.932,1.149,2.852,1.778c-0.061-0.226-0.018-0.57,0.195-0.638c0.313-0.099,0.357,0.701,0.063,0.819
					c1.08,0.754,2.125,1.544,3.121,2.384c-0.021-0.357,0.365-1.027,0.754-0.978c0.09,0.395-0.184,1.137-0.492,1.208
					c0.424,0.361,0.844,0.729,1.25,1.107c0.289-0.301,0.584-0.596,0.959-0.381c-0.02,0.475-0.268,0.674-0.566,0.758
					c0.189,0.178,0.379,0.355,0.561,0.541c0.035-0.018,0.072-0.035,0.121-0.055c0.135-0.044,0.375-0.009,0.406,0.047
					c0.121,0.236,0.004,0.336-0.166,0.355c1.002,1.014,1.945,2.075,2.834,3.176c0.275-0.316,1.078-0.359,1.221-0.244
					c0.191,0.148-0.139,0.379,0.186,0.551c0.387,0.208,0.492-0.086,0.818-0.207c-0.525-0.7-1.072-1.38-1.641-2.049
					c-0.172,0.002-0.32,0.018-0.375-0.018c-0.324-0.195,0-0.086-0.113-0.321c-0.084-0.171-0.107-0.273-0.092-0.343
					c-0.674-0.763-1.381-1.501-2.113-2.219c-0.336-0.04-0.572-0.162-0.514-0.448c0.002-0.014,0.01-0.023,0.014-0.037
					c-0.516-0.486-1.045-0.965-1.584-1.435c-0.031-0.002-0.059-0.006-0.08-0.014c-0.109-0.043-0.143-0.107-0.16-0.191
					c-1.24-1.055-2.543-2.051-3.916-2.976c-0.193,0.167-0.363,0.378-0.346,0.726c-0.668-0.246,0.088-0.559,0.176-0.841
					c-0.744-0.497-1.512-0.964-2.291-1.414c-0.002,0.259-0.061,0.521-0.215,0.715c0.191,0.265,0.936-0.34,1.088,0.106
					C123.966,60.391,123.409,60.745,123.282,60.754z M129.251,64.795c0.461-0.156,0.4,0.689-0.029,0.558
					C128.997,65.287,128.995,64.876,129.251,64.795z"/>
			</g>
		</g>
	</g>
	<g>
		<g>
			<g>
				<path fill="#DD8911" d="M83.506,143.374c0.367,0.391,1.295-0.434,0.703-0.686C83.739,142.495,83.195,143.044,83.506,143.374z"/>
			</g>
		</g>
		<g>
			<g>
				<path fill="#DD8911" d="M78.911,140.489c-0.205,0.01-0.398-0.959-0.717-0.871c-0.141,0.045-0.361,0.553-0.336,0.646
					C77.901,140.401,78.754,140.839,78.911,140.489z"/>
			</g>
		</g>
		<g>
			<g>
				<path fill="#DD8911" d="M126.53,136.907C127.298,136.755,126.495,136.015,126.53,136.907L126.53,136.907z"/>
			</g>
		</g>
		<g>
			<g>
				<path fill="#DD8911" d="M126.772,135.206c-0.107,0.045-0.523,0.605-0.338,0.865
					C126.933,136.751,127.505,134.913,126.772,135.206z"/>
			</g>
		</g>
		<g>
			<g>
				<path fill="#DD8911" d="M130.905,131.093c-0.016,0.016-0.033,0.033-0.051,0.051
					C131.003,132.124,132.185,131.284,130.905,131.093z"/>
			</g>
		</g>
		<g>
			<g>
				<path fill="#DD8911" d="M126.116,136.194C125.169,136.175,125.821,137.194,126.116,136.194L126.116,136.194z"/>
			</g>
		</g>
		<g>
			<g>
				<path fill="#DD8911" d="M125.528,137.868c-0.006,0.025-0.004,0.045-0.006,0.068c0.254-0.184,0.506-0.379,0.758-0.564
					C126.022,137.394,125.642,137.567,125.528,137.868z"/>
			</g>
		</g>
		<g>
			<g>
				<path fill="#DD8911" d="M128.595,135.546c0.016-0.016,0.035-0.025,0.049-0.043c0.051-0.045,0.094-0.094,0.123-0.154
					c-0.273-0.314-0.717-0.146-0.838,0.193C128.091,135.694,128.39,135.685,128.595,135.546z"/>
			</g>
		</g>
		<g>
			<g>
				<path fill="#DD8911" d="M132.39,131.087c-0.725,0.137,0.121,1.004,0.367,0.402C132.856,131.253,132.493,131.065,132.39,131.087z
					"/>
			</g>
		</g>
		<g>
			<g>
				<path fill="#DD8911" d="M55.896,105.12c-0.032,0.273,0.501,0.52,0.459,0.797c-0.003,0.031-0.355,0.477-0.62,0.799
					c0.16,1.467,0.383,2.914,0.672,4.348c0.488,0.199,0.854,0.342,1.327-0.035c0.058-0.322-0.553-0.271-0.69-0.49
					c0.334-0.096,0.687-0.338,0.858-0.271c0.037,0.018,0.074,0.047,0.11,0.094c-0.394-2-0.651-4.037-0.774-6.094
					c-0.142-0.008-0.453-0.152-0.554-0.1c-0.184,0.1-0.08,0.332-0.333,0.639C56.106,105.099,55.942,104.808,55.896,105.12z"/>
			</g>
		</g>
		<g>
			<g>
				<path fill="#DD8911" d="M66.164,128.876C65.289,128.413,65.643,129.64,66.164,128.876L66.164,128.876z"/>
			</g>
		</g>
		<g>
			<g>
				<path fill="#DD8911" d="M64.662,128.733c-0.115,0.037-0.332,0.137-0.17,0.318C64.757,129.351,65.008,128.63,64.662,128.733z"/>
			</g>
		</g>
		<g>
			<g>
				<path fill="#DD8911" d="M55.705,96.526c0.156-0.038,0.306-0.088,0.432-0.179c0.026-0.022,0.507-0.571,0.781-0.893l-1.02-0.472
					C55.828,95.498,55.758,96.011,55.705,96.526z"/>
			</g>
		</g>
		<g>
			<g>
				<path fill="#DD8911" d="M66.386,129.751c0.163-0.109,0.372-0.121,0.592-0.111c-0.084-0.105-0.175-0.211-0.262-0.316
					c-0.001,0.049-0.009,0.096-0.033,0.143C66.593,129.636,66.457,129.421,66.386,129.751z"/>
			</g>
		</g>
		<g>
			<g>
				<path fill="#DD8911" d="M56.765,112.593c-0.006,0.031,0.473,0.828,0.281,1.197c0.718,2.699,1.669,5.318,2.848,7.82
					c0.557,0.145,0.963,0.354,0.552,0.965c-0.018,0.025-0.042,0.041-0.063,0.061c0.712,1.422,1.494,2.803,2.351,4.139
					c0.028-0.014,0.056-0.023,0.085-0.049c0.119-0.102,0.089-0.783,0.122-0.85c0.286-0.533,0.665-0.18,1.146-0.229
					c-0.117-0.18-0.222-0.365-0.331-0.547c-0.101,0.02-0.197,0.02-0.283-0.029c-0.189-0.104-0.339-0.592-0.34-1.002
					c-2.188-3.785-3.807-7.898-4.805-12.217l-0.002,0.008C58.05,112.396,56.889,112.179,56.765,112.593z"/>
			</g>
		</g>
		<g>
			<g>
				<path fill="#DD8911" d="M65.598,130.259c-0.07-0.008-0.176,0.047-0.296,0.107c4.077,5.141,9.329,9.396,15.614,12.297
					c7.767,3.588,16.087,4.646,24.108,3.518c-0.162-0.326,0.746-0.697,1.189-0.359c-0.031,0.064-0.082,0.131-0.141,0.193
					c6.271-1.035,12.33-3.398,17.771-6.941c-0.229-0.047-0.541-0.027-0.73-0.43c0.523-0.113,0.494-0.125,0.787-0.729
					c0.17-0.359,0.615-0.99,0.822-1.504c-9.725,6.977-21.778,9.914-33.416,7.719c-0.049,0.107-0.126,0.23-0.159,0.422
					c-0.081,0.473,0.216,0.617,0.073,0.906c-0.113,0.24-0.485,0.346-0.64,0.258c-0.544-0.295,0.172-0.746,0.246-1.258
					c0.02-0.137-0.007-0.285-0.063-0.436c-3.084-0.625-6.139-1.596-9.104-2.969c-5.624-2.598-10.389-6.33-14.183-10.814
					c-0.436,0.287-1.083,0.408-1.405,0.303C65.894,130.487,65.776,130.267,65.598,130.259z M84.209,142.688
					c0.592,0.252-0.336,1.076-0.703,0.686C83.195,143.044,83.739,142.495,84.209,142.688z M78.194,139.618
					c0.318-0.088,0.512,0.881,0.717,0.871c-0.157,0.35-1.009-0.088-1.053-0.225C77.833,140.171,78.053,139.663,78.194,139.618z"/>
			</g>
		</g>
		<g>
			<g>
				<path fill="#DD8911" d="M56.61,96.634c-0.012-0.124-0.262-0.23-0.385-0.112C55.9,96.827,56.651,97.007,56.61,96.634z"/>
			</g>
		</g>
	</g>
	<g>
		<g>
			<g>
				<path fill="#DD8911" d="M111.421,63.599c-0.121-0.048-0.207-0.046-0.227,0.075C111.313,63.729,111.403,63.723,111.421,63.599z"
					/>
			</g>
		</g>
		<g>
			<g>
				<path fill="#DD8911" d="M129.091,76.97l0.096-0.314c-0.285-0.061-0.604,0.015-0.521,0.266
					C128.72,77.082,128.897,77.026,129.091,76.97z"/>
			</g>
		</g>
		<g>
			<g>
				<path fill="#DD8911" d="M94.783,62.403c-0.253,0.059-0.063,0.346,0.063,0.315C94.988,62.691,94.884,62.382,94.783,62.403z"/>
			</g>
		</g>
		<g>
			<g>
				<path fill="#DD8911" d="M123.052,70.665c0.318,0.098,0.346-0.491,0.01-0.393C122.876,70.33,122.886,70.611,123.052,70.665z"/>
			</g>
		</g>
		<g>
			<g>
				<path fill="#DD8911" d="M134.536,90.519c-0.182,0.039-0.209,0.394-0.098,0.513c0.092,0.101,0.498-0.035,0.723,0.196
					c-0.018-0.145-0.029-0.291-0.049-0.439C134.915,90.667,134.628,90.498,134.536,90.519z"/>
			</g>
		</g>
		<g>
			<g>
				<path fill="#DD8911" d="M93.213,62.661c0.023,0.312,0.146,0.643,0.252,0.722c0.575,0.436,0.534-0.585,0.884-0.37
					c0.363,0.221-0.664,0.847-0.898,0.614c0.014,0.063,0.007,0.138-0.005,0.217c6.644-1.643,13.956-1.181,20.833,1.764
					c0.096,0.01,0.193,0.018,0.234-0.024c0.172-0.187-0.146-0.581,0.199-0.681c0.143-0.039,0.342,0.168,0.504,0.204
					c0.254,0.057,0.338-0.111,0.563,0.027c-0.426,0.427,0.287,0.683,0.461,0.185c0.008-0.023,0.008-0.064,0.004-0.112
					c-0.193-0.094-0.379-0.19-0.574-0.282c-2.129-0.984-4.309-1.731-6.498-2.261c0.045,0.156-0.117,0.378-0.314,0.35
					c-0.23-0.031-0.342-0.338-0.152-0.451C103.469,61.374,98.164,61.451,93.213,62.661z M111.421,63.599
					c-0.018,0.124-0.107,0.13-0.227,0.075C111.214,63.553,111.3,63.551,111.421,63.599z M94.845,62.718
					c-0.125,0.03-0.315-0.257-0.063-0.315C94.884,62.382,94.988,62.691,94.845,62.718z"/>
			</g>
		</g>
		<g>
			<g>
				<path fill="#DD8911" d="M134.585,97.099c-0.326,0.017-0.23,0.496-0.035,0.478C134.7,97.569,134.839,97.085,134.585,97.099z"/>
			</g>
		</g>
		<g>
			<g>
				<path fill="#DD8911" d="M134.091,96.609c0.262-0.242,0.465-0.963,0.264-1.212c-0.008,0.122-0.109,0.206-0.227,0.286
					C134.12,95.993,134.108,96.298,134.091,96.609z"/>
			</g>
		</g>
		<g>
			<g>
				<path fill="#DD8911" d="M134.253,92.556c-0.096,0.016-0.154,0.089-0.184,0.184c0.012,0.138,0.018,0.272,0.027,0.408
					c0.035,0.083,0.086,0.144,0.148,0.146C134.481,93.298,134.679,92.476,134.253,92.556z"/>
			</g>
		</g>
		<g>
			<g>
				<path fill="#DD8911" d="M133.935,91.3c0.037-0.004,0.063-0.008,0.064-0.008c0.309,0.016,0.365,0.26,0.488,0.102
					c0.178-0.229-0.328-0.391-0.605-0.552C133.903,90.995,133.915,91.148,133.935,91.3z"/>
			</g>
		</g>
		<g>
			<g>
				<path fill="#DD8911" d="M134.255,94.678c0.221-0.199,0.066-0.575-0.123-0.821c0.01,0.284,0.01,0.57,0.012,0.853
					C134.194,94.702,134.237,94.696,134.255,94.678z"/>
			</g>
		</g>
		<g>
			<g>
				<path fill="#DD8911" d="M133.993,97.757c-0.008,0.063-0.014,0.129-0.02,0.2l0.08,0.034
					C134.06,97.909,134.044,97.831,133.993,97.757z"/>
			</g>
		</g>
		<g>
			<g>
				<path fill="#DD8911" d="M135.37,94.441c-0.105,0.209-0.133,0.414,0.006,0.542C135.376,94.8,135.372,94.622,135.37,94.441z"/>
			</g>
		</g>
		<g>
			<g>
				<path fill="#DD8911" d="M128.265,75.81c-0.102-0.014-0.576-0.237-0.813-0.396c-0.078-0.052-0.158-0.19-0.246-0.222
					c-0.053-0.019-0.121-0.029-0.193-0.041c0.572,0.701,1.117,1.425,1.623,2.163c0.09,0.069,0.164,0.152,0.16,0.239
					c2.656,3.949,4.387,8.403,5.049,13.013c0.146-0.057,0.379-0.096,0.432-0.225c0.098-0.231-0.287-1.111-0.145-1.624
					c0.143-0.521,0.102-0.759-0.406-0.915c0.396-0.168,0.273-0.376,0.543-0.622c0.035-0.034,0.078-0.06,0.125-0.082
					c-0.99-3.868-2.703-7.578-5.076-10.903l-0.063,0.213c-0.238-0.047-0.359-0.626-0.449-0.678
					C128.628,75.63,128.526,75.851,128.265,75.81z M129.187,76.656l-0.096,0.314c-0.193,0.056-0.371,0.111-0.426-0.049
					C128.583,76.67,128.901,76.595,129.187,76.656z"/>
			</g>
		</g>
		<g>
			<g>
				<path fill="#DD8911" d="M91.907,63c0.104,0.103,0.249,0.165,0.394,0.128c0.072-0.02,0.14-0.143,0.17-0.274
					C92.283,62.904,92.093,62.95,91.907,63z"/>
			</g>
		</g>
		<g>
			<g>
				<path fill="#DD8911" d="M92.494,63.527c-0.184,0.196-0.439,0.205-0.536,0.429c-0.057,0.134-0.086,0.237-0.098,0.328
					c0.261-0.081,0.522-0.157,0.786-0.23c-0.009-0.087-0.007-0.169,0.017-0.226c0.062-0.126,0.93-0.427,0.354-0.682
					C92.721,63.018,92.65,63.362,92.494,63.527z"/>
			</g>
		</g>
		<g>
			<g>
				<path fill="#DD8911" d="M80.184,70.52c-0.133-0.034-0.23-0.163-0.412-0.175c-0.122-0.007-0.41,0.235-0.541,0.08
					c-0.065-0.074,0.031-0.4,0.323-0.395c0.049,0,0.267,0.094,0.284,0.088c0.266-0.105,0.286-0.325,0.35-0.486
					c-0.125-0.04-0.25-0.067-0.36-0.106c-0.832,0.725-1.622,1.501-2.373,2.319l1.188,0.546c0.601-0.637,1.221-1.253,1.873-1.829
					C80.361,70.55,80.242,70.537,80.184,70.52z"/>
			</g>
		</g>
		<g>
			<g>
				<path fill="#DD8911" d="M116.599,65.679c-0.289,0.253-0.807,0.107-1.01,0.519c0.625,0.304,1.232,0.616,1.828,0.948
					c0.15-0.208,0.068-0.549,0.121-0.787c0.025-0.107,0.1-0.261,0.189-0.393c-0.254-0.139-0.506-0.276-0.768-0.408
					c-0.004,0.218,0.254,0.187,0.029,0.389C116.821,66.094,116.634,65.938,116.599,65.679z"/>
			</g>
		</g>
		<g>
			<g>
				<path fill="#DD8911" d="M88.178,64.873c-0.142-0.012-0.251-0.229-0.388-0.265c-0.382-0.097-0.602,0.251-0.625,0.546
					c0.199-0.007,0.548-0.22,0.462,0.192c-0.44-0.209-0.503,0.269-0.381,0.426c0.054,0.07,0.291-0.009,0.405,0.028
					c0.034,0.012,0.067,0.027,0.102,0.048c0.059-0.024,0.112-0.056,0.167-0.08c-0.079-0.084-0.126-0.186-0.084-0.257
					c0.101-0.176,0.357-0.063,0.545,0.055c0.434-0.193,0.872-0.374,1.314-0.543c-0.222,0.02-0.306,0.184-0.46,0.126
					c-0.247-0.093-0.267-0.569-0.501-0.595C88.608,64.533,88.343,64.888,88.178,64.873z"/>
			</g>
		</g>
		<g>
			<g>
				<path fill="#DD8911" d="M83.465,67.233c-0.035,0.006-0.151,0.024-0.132,0.104C83.433,67.814,84.063,67.066,83.465,67.233z"/>
			</g>
		</g>
		<g>
			<g>
				<path fill="#DD8911" d="M83.424,68.312c0.055-0.04,0.115-0.081,0.173-0.121c-0.031-0.065-0.151-0.118-0.229-0.099
					C83.154,68.134,83.288,68.272,83.424,68.312z"/>
			</g>
		</g>
		<g>
			<g>
				<path fill="#DD8911" d="M88.683,64.387c0.126,0.223,0.403-0.196,0.706-0.129c0.349,0.077,0.461,0.589,0.641,0.638l0.009,0.004
					c0.116-0.045,0.232-0.088,0.349-0.131c0.118-0.104,0.2-0.215,0.201-0.193c0.016-0.371-0.594-0.177-0.637-0.64
					c0.202,0.097,0.479-0.195,0.705-0.128c0.078,0.02,0.128,0.271,0.217,0.313c0.318,0.136,0.883-0.201,0.945-0.402
					c0.065-0.199-0.215-0.317-0.12-0.652c-0.196,0.059-0.392,0.12-0.584,0.182c-0.019,0.203-0.142,0.413-0.297,0.361
					c-0.11-0.037-0.242-0.09-0.38-0.146c-0.399,0.137-0.794,0.284-1.189,0.434c0.025,0.063,0.043,0.114,0.054,0.139
					C89.082,63.972,88.536,64.137,88.683,64.387z"/>
			</g>
		</g>
		<g>
			<g>
				<path fill="#DD8911" d="M81.232,68.521c-0.065,0.008-0.13-0.018-0.17-0.01c-0.008,0.007-0.017,0.012-0.027,0.021
					c-0.013,0.02-0.014,0.055,0,0.126C81.101,68.969,81.684,68.471,81.232,68.521z"/>
			</g>
		</g>
		<g>
			<g>
				<path fill="#DD8911" d="M115.009,65.924c0.055,0.026,0.111,0.042,0.166,0.069c0.123,0.055,0.238,0.123,0.361,0.18
					C115.507,65.718,115.302,65.792,115.009,65.924z"/>
			</g>
		</g>
		<g>
			<g>
				<path fill="#DD8911" d="M118.603,67.327c-0.199,0.008-0.4-0.222-0.607-0.233c-0.172-0.012-0.291,0.081-0.387,0.156
					c0.73,0.409,1.439,0.847,2.127,1.303c-0.047-0.159-0.023-0.4,0.133-0.442c0.229-0.063,0.275,0.495,0.063,0.576
					c0.809,0.544,1.59,1.124,2.338,1.727c-0.023-0.249,0.246-0.71,0.535-0.664c0.072,0.274-0.115,0.788-0.34,0.828
					c0.316,0.265,0.637,0.526,0.939,0.8c0.207-0.202,0.42-0.402,0.695-0.244c-0.004,0.332-0.182,0.468-0.398,0.518
					c0.141,0.13,0.283,0.256,0.424,0.39c0.023-0.012,0.051-0.021,0.086-0.034c0.098-0.029,0.273-0.002,0.299,0.04
					c0.094,0.165,0.01,0.235-0.111,0.246c0.752,0.729,1.465,1.489,2.141,2.274c0.195-0.213,0.785-0.228,0.891-0.145
					c0.143,0.107-0.096,0.265,0.146,0.395c0.289,0.147,0.359-0.057,0.594-0.135c-0.396-0.498-0.813-0.983-1.242-1.465
					c-0.127-0.002-0.234,0.01-0.277-0.022c-0.242-0.139,0-0.058-0.088-0.224c-0.064-0.122-0.084-0.192-0.072-0.24
					c-0.512-0.547-1.045-1.076-1.598-1.595c-0.25-0.036-0.422-0.123-0.385-0.323c0.002-0.012,0.006-0.018,0.008-0.023
					c-0.387-0.354-0.787-0.699-1.189-1.035c-0.025-0.003-0.045-0.006-0.059-0.012c-0.082-0.034-0.109-0.08-0.121-0.139
					c-0.934-0.764-1.908-1.487-2.936-2.16c-0.139,0.115-0.258,0.259-0.24,0.502c-0.492-0.188,0.055-0.391,0.113-0.588
					c-0.557-0.359-1.129-0.701-1.709-1.032c0.002,0.183-0.035,0.361-0.146,0.496c0.152,0.187,0.682-0.219,0.801,0.095
					C119.095,67.091,118.69,67.321,118.603,67.327z M123.062,70.272c0.336-0.099,0.309,0.49-0.01,0.393
					C122.886,70.611,122.876,70.33,123.062,70.272z"/>
			</g>
		</g>
	</g>
	<g>
		<g>
			<g>
				<path fill="#DD8911" d="M82.898,132.88c-0.104,0.031-0.264,0.396-0.242,0.463c0.031,0.102,0.661,0.418,0.775,0.172
					C83.279,133.519,83.13,132.815,82.898,132.88z"/>
			</g>
		</g>
		<g>
			<g>
				<path fill="#DD8911" d="M87.337,135.14c-0.346-0.141-0.743,0.248-0.511,0.49C87.098,135.917,87.773,135.323,87.337,135.14z"/>
			</g>
		</g>
		<g>
			<g>
				<path fill="#DD8911" d="M66.689,112.095c0.359,0.145,0.629,0.252,0.976-0.014c0.038-0.234-0.409-0.205-0.512-0.361
					c0.246-0.064,0.503-0.242,0.627-0.189c0.03,0.012,0.057,0.033,0.085,0.066c-0.041-0.191-0.065-0.393-0.102-0.586l-1.397-0.645
					C66.464,110.944,66.568,111.522,66.689,112.095z"/>
			</g>
		</g>
		<g>
			<g>
				<path fill="#DD8911" d="M73.984,125.03C73.337,124.692,73.607,125.581,73.984,125.03L73.984,125.03z"/>
			</g>
		</g>
		<g>
			<g>
				<path fill="#DD8911" d="M72.88,124.919c-0.083,0.025-0.245,0.096-0.122,0.229C72.954,125.362,73.132,124.847,72.88,124.919z"/>
			</g>
		</g>
		<g>
			<g>
				<path fill="#DD8911" d="M74.151,125.663c0.122-0.074,0.274-0.08,0.437-0.074c-0.064-0.076-0.131-0.154-0.196-0.232
					c0,0.037-0.007,0.07-0.022,0.105C74.305,125.587,74.201,125.429,74.151,125.663z"/>
			</g>
		</g>
		<g>
			<g>
				<path fill="#DD8911" d="M72.433,122.685c-0.086-0.131-0.163-0.266-0.246-0.398c-0.073,0.012-0.146,0.012-0.209-0.023
					c-0.14-0.076-0.253-0.428-0.254-0.727c-1.633-2.746-2.856-5.734-3.62-8.857l-0.002,0.006c-0.196,0.383-1.051,0.221-1.137,0.518
					c-0.004,0.021,0.353,0.604,0.214,0.865c0.545,1.955,1.265,3.854,2.147,5.67c0.41,0.111,0.71,0.264,0.412,0.701
					c-0.011,0.018-0.031,0.029-0.046,0.043c0.533,1.033,1.117,2.035,1.756,3.008c0.021-0.012,0.042-0.016,0.063-0.037
					c0.085-0.072,0.06-0.563,0.082-0.611C71.8,122.46,72.08,122.718,72.433,122.685z"/>
			</g>
		</g>
		<g>
			<g>
				<path fill="#DD8911" d="M114.409,132.56c-6.58,3.74-14.318,5.141-21.848,3.67c-0.032,0.076-0.091,0.17-0.112,0.305
					c-0.057,0.34,0.16,0.449,0.061,0.658c-0.08,0.172-0.354,0.24-0.47,0.18c-0.401-0.219,0.122-0.537,0.173-0.908
					c0.014-0.096-0.008-0.203-0.051-0.316c-2.269-0.471-4.52-1.197-6.706-2.211c-4.153-1.914-7.679-4.643-10.496-7.912
					c-0.317,0.205-0.795,0.289-1.028,0.211c-0.135-0.043-0.222-0.201-0.354-0.207c-0.052-0.006-0.129,0.031-0.216,0.074
					c3.03,3.744,6.92,6.855,11.558,8.992c5.73,2.65,11.85,3.473,17.733,2.717c-0.119-0.238,0.543-0.5,0.869-0.254
					c-0.02,0.049-0.059,0.094-0.098,0.137c4.353-0.666,8.552-2.199,12.36-4.498L114.409,132.56z M82.656,133.343
					c-0.022-0.066,0.138-0.432,0.242-0.463c0.232-0.064,0.381,0.639,0.533,0.635C83.317,133.761,82.687,133.444,82.656,133.343z
					 M86.827,135.63c-0.232-0.242,0.165-0.631,0.511-0.49C87.773,135.323,87.098,135.917,86.827,135.63z"/>
			</g>
		</g>
	</g>
	<g>
		<g>
			<path fill="#DD8911" d="M56.955,85.479c-0.015-0.608-0.074-1.146-0.175-1.611c3.37-0.955,6.749-2.728,10.138-5.316l0.903,1.228
				c-1.402,1.027-2.786,1.944-4.149,2.754L57.562,95.77l-1.351-0.623l5.3-11.483C59.953,84.434,58.434,85.038,56.955,85.479z
				 M61.007,77.858c-0.041-0.509-0.12-1.023-0.235-1.547c3.097-0.806,6.15-2.238,9.162-4.297l0.868,1.303
				C67.569,75.458,64.304,76.972,61.007,77.858z M77.155,89.169l1.376,0.635l-1.106,2.397l4.266,1.969l-0.565,1.224l-4.266-1.969
				l-2.813,6.095c-0.819,1.907-2.342,2.354-4.565,1.337c-0.484-0.213-0.967-0.426-1.451-0.639c-0.227-0.104-0.476-0.219-0.744-0.344
				c-0.228-0.104-0.568-0.262-1.022-0.471c0.173-0.421,0.302-0.953,0.385-1.598c0.54,0.289,1.025,0.539,1.46,0.75
				c0.214,0.108,0.449,0.222,0.702,0.338c0.21,0.098,0.555,0.256,1.034,0.479c0.846,0.4,1.477,0.523,1.895,0.369
				c0.424-0.121,0.81-0.57,1.158-1.348l2.585-5.604L64.48,87.712l0.565-1.224l11.003,5.078L77.155,89.169z M65.273,90.604
				l1.423-0.431c0.988,2.457,1.651,4.15,1.987,5.082l-1.528,0.457C66.596,94.005,65.969,92.302,65.273,90.604z M71.04,76.749
				l6.31,2.912l1.607-3.482l1.363,0.629l-1.607,3.482l6.574,3.034l-0.559,1.211l-6.574-3.034l-1.922,4.165l7.735,3.569l-0.559,1.211
				l-16.595-7.658l0.559-1.211l7.496,3.459l1.922-4.164l-6.31-2.912L71.04,76.749z"/>
			<path fill="#DD8911" d="M100.743,87.732l1.466-0.395c1.396,2.635,2.053,6.463,1.971,11.486
				c-0.25,7.437,1.133,13.299,4.144,17.587c-0.671,0.281-1.28,0.572-1.825,0.871c-2.834-4.849-4.121-10.928-3.86-18.236
				c-0.009-1.197-0.024-2.113-0.048-2.746c-5.027,5.782-11.11,9.444-18.25,10.986c-0.131-0.602-0.309-1.21-0.536-1.824
				c7.245-1.238,13.465-5.021,18.661-11.348C102.234,91.538,101.66,89.411,100.743,87.732z"/>
			<path fill="#DD8911" d="M118.818,111.305c0.064-0.562,0.076-1.174,0.035-1.835c4.299-2.373,8.279-5.496,11.945-9.365l1.213,1.018
				c-1.799,1.752-3.417,3.225-4.855,4.418l-8.502,18.424l-1.389-0.641l7.238-15.686
				C122.766,108.929,120.871,110.149,118.818,111.305z M127.748,113.712l6.334,2.924l3.081-6.676l-7.029-3.244l0.606-1.313
				l15.445,7.129l-0.606,1.313l-7.028-3.244l-3.08,6.675l6.309,2.912l-0.605,1.313l-6.309-2.912l-3.605,7.811l7.785,3.593
				l-0.605,1.313l-16.934-7.815l0.605-1.313l7.76,3.582l3.605-7.811l-6.334-2.924L127.748,113.712z M138.824,104.236l1.449,0.179
				c-0.055,1.138-0.146,2.693-0.271,4.666l-1.541-0.176C138.615,107.201,138.736,105.646,138.824,104.236z"/>
		</g>
	</g>
	<g>
		<g>
			<path fill="#DD8911" d="M148.946,137.41c-0.195,0.4-0.002,0.313-0.007,0.384C149.22,137.103,148.906,137.411,148.946,137.41z"/>
		</g>
		<g>
			<polygon fill="#DD8911" points="151.712,130.576 151.709,130.719 152.032,129.672 			"/>
		</g>
		<g>
			<path fill="#DD8911" d="M154.568,124.312c-0.486,0.492-1,2.286-1.585,3.368l-0.133,0.16l-0.056,0.583
				C153.386,127.054,154.073,125.238,154.568,124.312z"/>
		</g>
		<g>
			<path fill="#DD8911" d="M156.559,121.183c-0.179,0.168,0.257-0.757-0.382,0.767c0.045-0.067,0.06-0.091,0.086-0.13
				C156.325,121.685,156.411,121.498,156.559,121.183z"/>
		</g>
		<g>
			<path fill="#DD8911" d="M156.263,121.819C155.968,122.481,156.53,121.419,156.263,121.819L156.263,121.819z"/>
		</g>
		<g>
			<path fill="#DD8911" d="M157.603,118.749l-0.321,0.903c0.134-0.16,0.497-0.929,0.401-0.623
				C158.049,118.117,157.915,118.278,157.603,118.749z"/>
		</g>
		<g>
			<path fill="#DD8911" d="M157.82,117.853l-0.174,0.466C157.704,118.248,157.766,118.132,157.82,117.853z"/>
		</g>
		<g>
			<path fill="#DD8911" d="M157.279,119.303l0.367-0.984c-0.092,0.108-0.168,0.09-0.175,0.448
				C157.442,118.66,157.419,118.876,157.279,119.303z"/>
		</g>
		<g>
			<path fill="#DD8911" d="M157,119.828c-0.27,0.467-0.586,1.084-0.264,0.178C156.009,121.681,156.272,121.507,157,119.828z"/>
		</g>
		<g>
			<path fill="#DD8911" d="M154.49,123.889l-0.36,0.623l-0.185,0.598C154.038,124.811,154.576,123.88,154.49,123.889z"/>
		</g>
		<g>
			<path fill="#DD8911" d="M160.151,113.226c-0.026-0.079-0.247,0.311-0.333,0.361c0,0-0.052,0.194-0.104,0.39
				c-0.053,0.196-0.116,0.349-0.116,0.348C159.786,114.038,160.059,113.239,160.151,113.226z"/>
		</g>
		<g>
			<path fill="#DD8911" d="M159.818,113.587c0,0,0.074-0.289,0.149-0.578c0.088-0.284,0.124-0.576,0.111-0.579
				C159.804,113.441,159.729,113.628,159.818,113.587z"/>
		</g>
		<g>
			<polygon fill="#DD8911" points="157.651,117.587 157.098,119.242 157.787,117.282 			"/>
		</g>
		<g>
			<path fill="#DD8911" d="M160.147,108.621l0.295,0.646c0,0-0.124-0.29-0.248-0.581c-0.116-0.29-0.257-0.562-0.271-0.557
				C159.948,108.118,160.147,108.621,160.147,108.621z"/>
		</g>
		<g>
			<path fill="#DD8911" d="M158.646,105.937c0.393,0.349-0.316-0.673,0.068-0.277c-0.294-0.316-0.632-0.549-0.927-0.777
				c-0.287-0.242-0.605-0.389-0.911-0.516c0.154,0.084,0.31,0.168,0.468,0.254c0.149,0.104,0.284,0.237,0.431,0.367
				C158.047,105.268,158.398,105.523,158.646,105.937z"/>
		</g>
		<g>
			<path fill="#DD8911" d="M155.892,103.933c0.301,0.133,0.627,0.276,0.984,0.434C156.55,104.203,156.21,104.033,155.892,103.933z"
				/>
		</g>
		<g>
			<path fill="#DD8911" d="M160.215,110.425c0.008-0.091,0.129-0.282,0.033-0.95c0.021-0.001-0.049,0.485-0.065,0.485
				C160.192,110.102,160.203,110.262,160.215,110.425z"/>
		</g>
		<g>
			<path fill="#DD8911" d="M160.179,109.977l0.004-0.017c-0.037-0.504-0.187-0.833-0.205-0.982
				C159.989,109.106,160.133,109.393,160.179,109.977z"/>
		</g>
		<g>
			<path fill="#DD8911" d="M160.223,110.542c-0.003-0.042-0.005-0.075-0.008-0.117C160.204,110.472,160.201,110.498,160.223,110.542
				z"/>
		</g>
		<g>
			<path fill="#DD8911" d="M158.915,115.123c0.185-0.598,0.644-1.811,0.014-0.721C158.833,114.847,159.193,114.224,158.915,115.123z
				"/>
		</g>
		<g>
			<path fill="#DD8911" d="M160.083,111.115c0,0-0.041,0.306-0.084,0.608c-0.047,0.303-0.094,0.605-0.094,0.605
				c0.039-0.014,0.123-0.229,0.117,0.118c0,0,0.018-0.335,0.036-0.67C160.072,111.444,160.083,111.115,160.083,111.115z"/>
		</g>
		<g>
			<polygon fill="#DD8911" points="159.997,110.52 160.083,111.115 160.064,110.661 			"/>
		</g>
		<g>
			<path fill="#DD8911" d="M157.642,105.223c-0.421-0.354-0.966-0.604-1.545-0.939l0.922,0.575c0.304,0.194,0.545,0.472,0.814,0.695
				C157.935,105.586,158.226,105.738,157.642,105.223z"/>
		</g>
		<g>
			<path fill="#DD8911" d="M159.31,107.307c-0.02-0.034-0.043-0.074-0.061-0.104C159.271,107.274,159.295,107.33,159.31,107.307z"/>
		</g>
		<g>
			<polygon fill="#DD8911" points="150.721,101.808 150.798,101.871 150.826,101.857 			"/>
		</g>
		<g>
			<path fill="#DD8911" d="M157.903,105.653c0.398,0.354,0.565,0.63,0.799,0.837c-0.247-0.317-0.508-0.652-0.869-0.937
				C157.785,105.538,157.771,105.542,157.903,105.653z"/>
		</g>
		<g>
			<path fill="#DD8911" d="M154.366,103.312c0.225,0.128,0.47,0.27,0.729,0.417C154.891,103.587,154.464,103.315,154.366,103.312z"
				/>
		</g>
		<g>
			<path fill="#DD8911" d="M159.201,107.019l0.042,0.069C159.189,106.912,159.172,106.948,159.201,107.019z"/>
		</g>
		<g>
			<path fill="#DD8911" d="M159.201,107.019c-0.181-0.216-0.343-0.371-0.499-0.528c0.193,0.262,0.429,0.476,0.547,0.712
				C159.228,107.136,159.211,107.069,159.201,107.019z"/>
		</g>
		<g>
			<path fill="#DD8911" d="M148.718,101.899c0.133-0.085,1.338,0.33,2.274,0.912c1.02,0.356,0.56-0.33-0.194-0.94
				c-0.056,0.038-0.078,0.087-1.117-0.302c0.322,0.227,2.167,1.173,1.267,0.894c-1.364-0.547-1.075-0.541-1.695-0.9
				c0.482,0.401-1.799-0.556-1.608-0.204l1.207,0.456C148.857,101.859,148.407,101.72,148.718,101.899z"/>
		</g>
		<g>
			<path fill="#DD8911" d="M152.714,102.759l0.42,0.173c-0.462-0.235-0.779-0.438-1.359-0.815c-0.719-0.257-0.882-0.277-0.948-0.259
				l2.036,0.947L152.714,102.759z"/>
		</g>
		<g>
			<path fill="#DD8911" d="M154.997,103.78c-0.383-0.017-1.404-0.415-0.859,0.004c1.224,0.547,0.903,0.28,1.658,0.555
				c-1.981-0.863,0.598,0.185-0.789-0.536c0.402,0.168,0.733,0.274,1.09,0.48c-0.373-0.24-0.687-0.37-1.002-0.555
				c0.017,0.012,0.027,0.02,0.041,0.029l0.01,0.004l-0.003,0.001c0.078,0.055,0.1,0.077,0.009,0.024
				c-0.008-0.003-0.03-0.012-0.041-0.016C155.089,103.783,155.045,103.782,154.997,103.78c-0.556-0.286-0.072-0.075,0.113-0.009
				c0.008-0.004,0.027-0.003,0.032-0.009l-0.007-0.005l-2.002-0.826C153.543,103.141,154.065,103.374,154.997,103.78z"/>
		</g>
		<g>
			<path fill="#DD8911" d="M159.077,113.199c0.033-0.06,0.042-0.054,0.053-0.055C159.159,113.005,159.165,112.95,159.077,113.199z"
				/>
		</g>
		<g>
			<path fill="#DD8911" d="M159.431,112.364c0.004,0.164-0.009,0.301-0.184,0.798c-0.188,0.417-0.064-0.025-0.117-0.018
				c-0.062,0.303-0.261,1.087,0.127,0.166l0.031-0.155c0.089-0.206,0.185-0.43,0.279-0.65c0.058-0.226,0.113-0.446,0.163-0.639
				c0.102-0.381,0.182-0.638,0.182-0.556C159.751,111.572,159.629,111.802,159.431,112.364z"/>
		</g>
		<g>
			<path fill="#DD8911" d="M158.828,107.26c0,0-0.299-0.376-0.599-0.746c-0.149-0.186-0.295-0.373-0.444-0.477
				c-0.137-0.114-0.228-0.19-0.228-0.19s0.156,0.183,0.313,0.365c0.133,0.202,0.246,0.415,0.246,0.416l0.028-0.086
				C158.763,107.414,158.704,107.178,158.828,107.26z"/>
		</g>
		<g>
			<polygon fill="#DD8911" points="150.563,101.658 150.844,101.619 149.808,101.382 			"/>
		</g>
		<g>
			<polygon fill="#DD8911" points="148.427,100.705 148.56,100.62 147.963,100.436 			"/>
		</g>
		<g>
			<path fill="#DD8911" d="M41.999,88.726c-0.011,0.006-0.175,0.492-0.156,0.481C41.888,89,41.969,88.834,41.999,88.726z"/>
		</g>
		<g>
			<path fill="#DD8911" d="M43.595,85.242l-0.02-0.112C43.534,85.307,43.528,85.384,43.595,85.242z"/>
		</g>
		<g>
			<path fill="#DD8911" d="M96.101,76.888c-0.651-0.432-1.357-0.963-1.333-0.79l0.156,0.23
				C95.425,76.528,95.793,76.713,96.101,76.888z"/>
		</g>
		<g>
			<path fill="#DD8911" d="M59.881,61.44l0.199,0.114c0.194,0.013,0.376,0.026,0.542,0.038
				C60.398,61.545,60.145,61.494,59.881,61.44z"/>
		</g>
		<g>
			<path fill="#DD8911" d="M59.241,61.875l-0.907-0.207C58.54,61.727,58.833,61.797,59.241,61.875z"/>
		</g>
		<g>
			<path fill="#DD8911" d="M54.087,100.869l0.623,0.122C53.83,100.591,54.186,100.835,54.087,100.869z"/>
		</g>
		<g>
			<path fill="#DD8911" d="M126.586,90.815c-0.583-0.328-1.055-0.568-1.475-0.767C125.806,90.455,126.343,90.836,126.586,90.815z"/>
		</g>
		<g>
			<path fill="#DD8911" d="M41.229,86.718c-0.11,0.305-0.142,0.444-0.108,0.448C41.236,86.853,41.29,86.669,41.229,86.718z"/>
		</g>
		<g>
			<path fill="#DD8911" d="M123.362,89.251c0.104,0.06,0.202,0.117,0.307,0.177c0.452,0.18,0.906,0.365,1.442,0.62
				C124.598,89.746,123.997,89.431,123.362,89.251z"/>
		</g>
		<g>
			<path fill="#DD8911" d="M123.109,132.44c0.049,0.028,0.104,0.061,0.149,0.087C123.283,132.518,123.213,132.484,123.109,132.44z"
				/>
		</g>
		<g>
			<path fill="#DD8911" d="M143.277,141.803c-0.23,0.055-0.623,0.065-0.988,0.098C142.467,141.893,142.771,141.89,143.277,141.803z"
				/>
		</g>
		<g>
			<path fill="#DD8911" d="M139.881,96.743C140.336,96.939,139.959,96.761,139.881,96.743L139.881,96.743z"/>
		</g>
		<g>
			<path fill="#DD8911" d="M141.842,98.264c-0.104-0.029-0.186-0.043-0.21-0.018C141.684,98.231,141.755,98.239,141.842,98.264z"/>
		</g>
		<g>
			<path fill="#DD8911" d="M118.489,88.02c-0.014-0.006-0.024-0.011-0.04-0.019C118.573,88.089,118.551,88.073,118.489,88.02z"/>
		</g>
		<g>
			<path fill="#DD8911" d="M140.532,97.112c-0.167-0.09-0.355-0.192-0.56-0.302C140.066,96.86,140.237,96.952,140.532,97.112z"/>
		</g>
		<g>
			<path fill="#DD8911" d="M140.471,97.008c0.153,0.076,0.274,0.136,0.389,0.193C140.926,97.205,140.881,97.168,140.471,97.008z"/>
		</g>
		<g>
			<path fill="#DD8911" d="M139.247,96.463c0.261,0.116,0.499,0.232,0.726,0.347c-0.084-0.049-0.117-0.073-0.092-0.067
				C139.748,96.684,139.559,96.601,139.247,96.463z"/>
		</g>
		<g>
			<path fill="#DD8911" d="M85.939,115.935c0.029,0.018,0.06,0.036,0.093,0.057C86.512,116.145,86.307,116.062,85.939,115.935z"/>
		</g>
		<g>
			<path fill="#DD8911" d="M83.719,72.897c0.021,0.007,0.034,0.011,0.055,0.017c-0.021-0.011-0.046-0.025-0.066-0.035L83.719,72.897
				z"/>
		</g>
		<g>
			<path fill="#DD8911" d="M82.052,72.256c0.765,0.151,1.149,0.351,1.656,0.623l-0.362-0.623H82.052z"/>
		</g>
		<g>
			<path fill="#DD8911" d="M43.617,96.02c0.01-0.02-0.749-0.794-0.693-0.836c1.029,0.807,1.799,1.202,1.079,0.578
				c-0.174,0.128-1.005-0.495-1.58-1.361c-0.529-0.895-0.738-1.904-0.993-1.943c-0.017-0.001,0.038-0.73,0.039-0.73
				c0.01,0.206,0.039,0.236,0.047,0.438c0.056-0.7-0.056-0.94-0.088-1.261c-0.051-0.313-0.196-0.728,0.181-1.597
				c0.223-0.598,0.569-1.06,0.39-0.581l0.564-1.509c0.201-0.42,0.226-0.284,0.024,0.136l0.983-2.246l0.004,0.023
				c0.08-0.348,0.309-1.114,0.427-1.486c0.317-0.54-0.085,0.304,0.032,0.183l0.462-1.279c0.336-0.455-0.026,0.615-0.43,1.462
				c0.936-0.966,0.363-1.073,1.737-3.451l-0.479,1.189c0.575-0.644,0.905-1.593,1.651-2.845c-0.218,0.278-1.569,2.473-1.061,1.085
				c0.203-0.362,0.444-0.854,0.691-1.615c0.148,0.061,0.435-0.662,0.829-1.549l0.166,0.149c0.379-0.979,0.247-0.95,0.415-1.552
				c0.503-1.054,0.754-1.208,0.995-1.4c0.807-1.69-0.777,1.067,0.105-0.967c0.72-1.384,1.094-2.414,1.75-4.163
				c0.518-0.961,0.04,0.228,0.257-0.104l0.246-0.949c0.102-0.214,0.118-0.123,0.125-0.076c0.278-0.77-0.166-0.149,0.313-1.339
				c-0.028-0.189,0.298-0.802,0.742-1.438c0.245-0.291,0.424-0.66,0.71-0.944c0.292-0.275,0.502-0.624,0.754-0.887
				c0.324-0.166-0.054,0.202,0.089,0.198c0.363-0.313,0.61-0.571,0.833-0.729c0.236-0.142,0.407-0.245,0.571-0.344
				c0.316-0.236,0.627-0.334,1.412-0.673c0-0.001,1.428,0,1.416,0.061c-0.507-0.102-0.45-0.165-0.09-0.267
				c0.179-0.021,0.432-0.032,0.721-0.038c0.147-0.002,0.301-0.004,0.456-0.006c0.155,0.012,0.306,0.056,0.46,0.083
				c-0.345-0.229-0.68-0.317-0.906-0.378c0,0,0.128,0.009,0.319,0.022c0.197-0.006,0.44,0.075,0.688,0.143
				c0.249,0.069,0.498,0.139,0.685,0.19c0.191,0.048,0.305,0.097,0.305,0.097c0.202,0.139,0,0.1-0.349,0.077
				c0.139,0.023,0.265,0.061,0.36,0.089c0.617,0.368,0.229,0.326-0.284,0.223c-0.207-0.117-0.415-0.235-0.618-0.35
				c-0.251-0.017-0.488-0.025-0.652-0.01c-0.171,0.045-0.266,0.102-0.23,0.169c0.127-0.027,0.353,0.029,0.598,0.104
				c-0.124-0.005-0.203,0-0.158,0.039c0.054,0.042,0.247,0.059,0.555,0.105l0.306,0.353l0.138-0.041l2.314,1.218
				c1.798,0.556,3.423,0.91,6.161,2.049c-0.742-0.146-0.263,0.193-0.384,0.364c-0.645-0.534-2.128-0.867-3.507-1.544
				c0.719,0.353,0.519,0.369,0.318,0.316l2.575,0.954c-0.125,0.128,0.478,0.357,1.101,0.717c-0.354-0.528,1.95,0.644,3.008,1.013
				c0.016,0.13-0.274,0.124-1.5-0.464c1.261,0.85,1.926,0.447,3.177,1.251c-0.303-0.135-0.458-0.225-0.601-0.227
				c0.746,0.23,2.439,1.088,1.993,0.992l-0.303-0.135c1.99,0.95,6.108,2.785,6.525,2.663c0.003,0.042-0.405,0.191-0.55,0.188
				l3.975,0.763c-0.417,0.078,0.553,1.156-1.167,0.524c0.464,0.25,1.038,0.555,2.081,0.936c-0.312-0.18-0.667-0.691-0.213-0.508
				c1.111,0.804,0.789,0.519,2.2,1.416c-0.466-0.27,0.234-0.37,1.001-0.007c-0.146-0.003-0.092,0.372-0.391,0.279l2.077,0.535
				c-0.508-0.157-0.217,0.25,0.17,0.542c-0.17-0.158,1.657,0.763,2.186,0.962l-0.779-0.45c2.146,1.04,2.361,0.497,4.505,1.495
				c-0.292-0.048-0.841,0.14,0.234,0.681c0.582,0.054,2.604,0.172,4.571,0.906l0.318,0.266l1.514,0.552
				c-1.03-0.152-3.835-0.763-5.328-1.183c0.776,0.449,0.173,0.221,1.393,0.766c0.387,0.289-0.728-0.16-1.088-0.317l2.803,1.35
				c-0.032-0.261,2.259,0.782,2.228,0.563l-3.171-1.189c-0.032-0.26,2.042,0.231,4.032,1.182c0.472,0.313-0.547,0.188-0.537,0.275
				c0.293,0.049,1.965,0.733,2.125,0.866l-0.9-0.278c1.083,0.585,1.947,0.561,3.199,1.366c0.458,0.224,1.265,0.893,1.398,0.808
				c-0.649-0.577-0.47-1.363,0.113-1.309c0.155,0.09,2.332,1.331,2.807,1.686c0.681,0.53-1.343-0.087-0.765,0.365
				c0.055-0.042,0.507,0.081,0.692,0.139c0.465,0.269-0.28,0.081,0.789,0.537c0.269-0.127,2.142,0.997,0.577,0.052
				c1.061,0.412,1.081,0.543,2.299,1.087c-0.326-0.31,1.297,0.042,2.359,0.455c-0.085,0.024,0.116,0.199,0.215,0.281
				c2.11,0.984,3.206,1.596,5.18,2.497c0.16,0.133,1.087,0.628,0.64,0.532c0.301,0.093,0.593,0.142,1.205,0.414
				c1.098,0.716-1.371-0.591-0.569,0.034c0.132-0.085,1.651,0.552,2.554,0.873c-0.184-0.308-1.99-0.95-2.895-1.271
				c0.114-0.257,1.75,0.165,3.868,0.986c1.67,0.684,0.637,0.49,0.938,0.583c3.063,1.449,2.83,0.75,5.307,2.101
				c0.94,0.625-0.103,0.345,0.069,0.565c-1.364-0.547-2.005-1.038-2.914-1.444l1.081,0.585c-0.451-0.141-1.362-0.505-1.827-0.774
				c0.784,0.534,5.195,2.4,7.514,3.62c0.446,0.137,1.202,0.414,0.887,0.19l-0.764-0.32c-0.632-0.446,1.501,0.464,0.575-0.032
				c1.052,0.368,2.249,0.738,3.638,1.46l0.182,0.307c-0.005-0.068-0.877-0.533-1.304-0.659c0.63,0.188,2.064,1.244,2.824,1.296
				l-0.938-0.583c1.058,0.369,2.399,0.742,3.634,1.375c-0.49-0.445-0.302-0.111-1.099-0.734c0.654,0.621-3.216-1.479-2.099-0.63
				c-0.805-0.667-1.542-0.83-2.646-1.589c0.009,0.078,0.373,0.312-0.671-0.2c-0.056-0.004-0.18-0.033-0.258-0.052
				c-0.03-0.017-0.041-0.022-0.069-0.037l0.056,0.034c-0.05-0.011-0.055-0.011,0.021,0.013c0.239,0.142,0.429,0.267,0.496,0.339
				c-0.589-0.098-2.27-0.869-2.87-1.055c-0.614-0.315,0.295,0.049-0.019-0.172l-0.899-0.278c-0.022-0.175-1.564-0.985-0.049-0.392
				l-1.328-0.612c-0.749-0.434-1.812-0.954-2.503-1.2c-0.614-0.315-1.653-0.571-1.059-0.429l-2.125-0.866l-0.003-0.042
				c-2.052-0.956-4.341-1.705-6.582-3.023c-0.71-0.282-1.445-0.566-2.587-1.132l-0.173-0.221c-0.908-0.364-2.618-1.334-3.056-1.386
				c-0.816-0.754-4.289-2.037-5.827-2.806l-0.13,0.127c-1.073-0.5-2.126-0.927-3.49-1.474l0.021,0.173
				c-1.204-0.414-2.921-1.447-4.751-2.263c0.147,0.004,0.604,0.229,0.916,0.409c-2.038-1.299-4.697-1.87-6.571-2.994
				c-0.514-0.174-0.864-0.354-1.193-0.545c0.045,0.021,0.088,0.037,0.125,0.049c-0.051-0.024-0.124-0.058-0.201-0.094
				c-0.207-0.122-0.424-0.25-0.651-0.384c0.19,0.126,0.375,0.244,0.542,0.335c-0.382-0.17-0.966-0.417-1.546-0.64l-0.173-0.255
				c-0.047-0.02-0.084-0.035-0.133-0.056c-0.529-0.306-0.477-0.134-0.229,0.111c-0.296-0.106-0.57-0.196-0.788-0.252
				c-0.343-0.441-1.518-0.595-2.017-1.126c-0.436-0.05-2.879-1.2-3.299-1.08c-0.003-0.042-0.163-0.134,0.143,0.002
				c-0.615-0.315-1.231-0.631-1.829-0.816l-0.182-0.307l-1.489-0.377c-0.783-0.493-1.098-0.716-0.205-0.481
				c-2.102-0.692-1.661-0.657-3.463-1.215l0.138-0.082c-0.612-0.273-1.658-0.556-1.979-0.821c-1.258-0.849-6.72-3.099-10.118-4.903
				c0.516,0.662-1.551-0.897-1.815-0.687c-0.165-0.176-0.631-0.445-0.032-0.26c-1.82-0.73-2.618-1.353-3.956-1.683
				c-0.166-0.177,0.438,0.051,0.28-0.081c-0.151-0.047-0.6-0.186-0.763-0.32c-0.159-0.133,0.293,0.048,0.592,0.141
				c-1.828-0.815-2.13-0.642-2.373-0.461c-0.417-0.278-0.805-0.427-1.159-0.535c-0.354-0.103-0.675-0.193-1.076-0.128
				c-0.35-0.131-0.982-0.305,0.356-0.165c-0.187-0.027-0.566-0.083-1.031-0.152c-0.466-0.088-1.025,0.018-1.561,0.034
				c-0.527,0.088-1.02,0.26-1.386,0.371c-0.351,0.158-0.559,0.318-0.556,0.369c-0.116,0.026-0.354,0.138-0.581,0.256
				c-0.233,0.109-0.405,0.309-0.483,0.367c-0.332,0.253-0.607,0.428-0.806,0.617c-0.186,0.203-0.34,0.37-0.493,0.536
				c-0.142,0.175-0.324,0.319-0.459,0.556c-0.135,0.235-0.293,0.511-0.498,0.868l0.259-0.376c-0.13,0.675-0.557,1.191-1.049,2.339
				l-0.009-0.044c-1.351,2.518-0.43,1.158-1.787,3.628l0.208-0.073c0.204,0.381-1.217,2.184-1.774,3.722l0.327-0.498
				c-0.263,0.86-1.458,2.072-1.867,2.868c-0.108,0.166,0.083-0.299,0.176-0.556c-1.156,2.048,0.065,0.362-0.615,1.973
				c-0.235,0.245-0.088-0.498-0.595,0.564c-0.326,0.495-1.079,3.253-1.941,4.622c0.226-0.286,0.45-0.568,0.174,0.196
				c-0.487,1.145-1.693,2.922-1.909,4.058c-0.087,0.135-0.132,0.178-0.155,0.176c-0.152,0.47-0.49,1.107-0.686,1.906
				c-0.271,0.744-0.255,1.487-0.225,1.791c-0.382,0.427-0.23,2.123,0.434,3.437c0.18,0.322,0.343,0.642,0.516,0.922
				c0.206,0.262,0.393,0.5,0.552,0.702c0.285,0.433,0.544,0.646,0.442,0.744c0,0,0.15,0.132,0.375,0.331
				c0.113,0.098,0.245,0.213,0.386,0.336c0.162,0.094,0.335,0.195,0.508,0.295c0.703,0.434,1.365,0.701,1.365,0.702l-0.092,0.016
				c1.687,0.805,2.338,0.968,2.985,1.128c0.379,0.211,0.072,0.123,0.029,0.133c2.441,1.225,2.698,1.318,4.884,2.035l0.149,0.249
				c0.604,0.17,3.484,1.872,6,2.807c-0.032,0.006-0.096,0.012-0.299-0.055c2.822,1.072,6.373,3.405,7.626,3.316l1.872,0.689
				c-2.321-1.108,0.456-0.079-0.465-0.608c0.935,0.387,2.305,1.249,1.161,0.762l-0.166-0.108c-0.544,0.097,2.863,1.426,2.712,1.592
				c4.61,2.083,9.028,4.286,13.334,6.263l-0.395-0.447l1.498,0.697c0.372,0.231,0.451,0.415-0.618-0.083
				c0.507,0.383,1.849,0.715,1.9,0.68c2.061,1.048-0.938-0.114-0.295,0.185l0.882,0.382l-0.186-0.116
				c0.75,0.232,0.858,0.166,2.144,0.765c0.796,0.416,0.356,0.327,0.673,0.482c-0.01,0.015,0.095,0.071,0.49,0.23l1.886,0.883
				l-0.678-0.521c0.879,0.296,1.779,0.821,0.995,0.225c1.144,0.89,7.021,3.331,7.765,3.784c1.235,0.408,2.396,0.94,3.829,1.611
				c-0.342-0.199-0.465-0.494,0.765,0.096c-0.639,0.199,2.192,1.211,3.063,1.96c-0.808-0.602,3.549,1.56,2.269,0.644
				c1.02,0.505-0.007,0.181,0.736,0.635c2.536,0.966,5.384,2.576,8.456,3.911c0.072-0.031-0.402-0.346,0.289-0.127l1.487,0.999
				c0.613,0.248,0.693-0.055,1.708,0.63c-0.135-0.115-0.336-0.288,0.076-0.121c2.925,1.489,5.998,2.824,9.07,4.194
				c1.536,0.685,3.071,1.378,4.588,2.103c0.77,0.357,1.486,0.745,2.284,1.103c0.428,0.156,0.849,0.358,1.291,0.479
				c0.452,0.08,0.908,0.185,1.369,0.246c-0.498-0.09-0.574-0.15-0.438-0.146c0.068,0,0.19,0.009,0.343,0.023
				c0.152-0.002,0.335-0.023,0.523-0.035c-0.49,0.006,0.006-0.145-0.093-0.218c0,0,0.187,0.001,0.466,0.001c0.141,0,0.305,0,0.481,0
				c0.174-0.02,0.355-0.063,0.541-0.096c0.365-0.082,0.755-0.116,1.016-0.229c0.266-0.105,0.442-0.176,0.442-0.176
				c0.102-0.11,0.332-0.255,0.623-0.415c0.267-0.206,0.577-0.448,0.885-0.686c0.589-0.502,1.038-1.12,1.068-1.281l-0.597,0.728
				c0.327-0.552-0.079-0.306-0.537-0.014c-0.519,0.238-1.125,0.477-1.141,0.297c-0.439,0.451-1.254,0.75-2.154,0.847
				c-0.442,0.098-0.928,0.006-1.402,0.064c-0.475-0.063-0.974-0.045-1.48-0.089c-0.398-0.206,0.383,0.023,0.175-0.126
				c-0.502-0.038-1.096-0.151-2.191-0.756l0.14,0.026c-3.143-1.395-4.429-2.129-7.906-3.812l0.194,0.263
				c-0.746-0.363-0.885-0.481-1.221-0.678c-0.967-0.177,2.114,0.979,1.215,0.858c-0.868-0.748-5.323-2.431-5.85-3.07
				c-1.161-0.531,0.265,0.321-0.896-0.211l-0.267-0.229l-0.347-0.019c-0.752-0.365-1.085-0.652-1.08-0.742
				c0.182,0.094,0.535,0.218,0.736,0.302c-0.94-0.556-2.802-1.232-3.125-1.422l1.09,0.564c-3.208-1.36-7.026-3.242-10.173-4.455
				l0.2,0.174c-2.396-0.94-1.84-0.928-4.436-2.041l0.102,0.027c-0.545-0.167-1.247-0.445-1.947-0.774
				c0.686,0.217-1.148-0.709-0.258-0.409c-2.6-1.021-1.305-0.467-3.095-0.978l-0.336-0.289c-0.616-0.158-0.688-0.126-1.984-0.682
				c1.096,0.383-0.741-0.544,0.495-0.135c-2.579-1.472-4.111-1.573-5.182-2.495c-1.377-0.251,2.25,1.234,1.529,0.985
				c0.534,0.366-1.126-0.232-1.958-0.648c-0.856-0.398-1.281-1.063-3.447-2.044c0.215,0.101,0.241,0.083,0.455,0.183
				c-0.773-0.448-1.635-0.615-2.569-1.196c-0.643-0.065-1.286-0.599-1.554-0.432l2.009,0.849c-1.154-0.45-2.337-0.649-4.127-1.63
				c0.166,0.017,0.746,0.204,1.141,0.342c-0.508-0.317-1.064-0.429-1.593-0.757c0.27-0.167,2.436,1.046,3.724,1.412
				c-0.534-0.366-2.359-0.864-1.635-0.849c-1.021-0.066-2.113-1.013-3.692-1.428l0.162-0.1c-0.242-0.083-0.754-0.234-1.179-0.433
				l0.859,0.166c-1.26-0.382-2.224-1.181-3.4-1.612c2.383,1.08,0.455,0.417,1.415,0.98c-3.026-1.146-1.518-1.146-4.839-2.575
				c0.455,0.183,1.633,0.849,0.906,0.598c-0.612-0.314-1.414-0.747-1.764-0.997c-2.194-0.963,0.267,0.3-0.702-0.034
				c-0.662-0.514-1.103-0.416-2.083-0.795l0.059-0.149c-2.441-1.226-0.796,0.005-2.981-1.127l1.039,0.228l-1.19-0.479l0.317-0.057
				c-1.326-0.455-1.707-0.667-2.927-1.279c0.242,0.235-0.284,0.191-1.386-0.305c-0.71-0.429,0.484,0.053-1.084-0.637
				c0.393,0.068,0.832,0.13,1.449,0.573c0.091-0.016,0.389,0.066,0.482,0.053c-0.763-0.469-2.02-0.948-2.585-1.204
				c0.215,0.104,0.471,0.23,0.594,0.313l-2.353-0.827c-0.33-0.217-0.028-0.133,0.271-0.049c-0.466-0.192-0.812-0.27-1.49-0.563
				c0.228-0.039,0.242-0.181,1.219,0.196l-2.212-0.849c-0.121-0.117-1.041-0.645-0.742-0.562c-1.161-0.613-3.034-1.104-4.574-1.917
				c-0.093-0.014-0.267-0.067-0.612-0.203c-1.476-0.705-2.728-1.451-4.564-2.091l-0.904-0.669c-1.403-0.581,1.232,0.886-1.104-0.082
				c-1.658-0.673-0.524-0.458-1.07-0.778c-0.429-0.13-1.049-0.294-1.569-0.573c-0.142-0.07-0.286-0.142-0.434-0.215
				c-0.139-0.088-0.257-0.214-0.389-0.326c-0.25-0.239-0.537-0.464-0.69-0.808C42.972,95.511,43.299,95.714,43.617,96.02z
				 M45.896,80.019c-0.12,0.344-0.324,1.044-0.521,1.247C45.379,80.814,45.592,80.561,45.896,80.019z M62.291,62.775
				c-0.268-0.063-0.636-0.26-1.04-0.511C61.568,62.394,61.917,62.56,62.291,62.775z M134.873,94.605l-0.037-0.008
				C134.125,94.205,134.377,94.346,134.873,94.605z M136.374,95.366c0.163,0.049,0.161,0.024,0.105-0.025
				c-0.124-0.012-0.467-0.166-0.854-0.354C135.716,95.074,135.903,95.191,136.374,95.366z M90.317,119.117l-0.28-0.174
				C90.728,119.207,90.522,119.159,90.317,119.117z"/>
		</g>
		<g>
			<path fill="#DD8911" d="M59.322,61.814c-0.087-0.037-0.108-0.07-0.124-0.102C59.062,61.723,59.055,61.754,59.322,61.814z"/>
		</g>
		<g>
			<path fill="#DD8911" d="M53.971,100.846l0.051,0.025c0.033,0.005,0.052,0.002,0.065-0.002L53.971,100.846z"/>
		</g>
		<g>
			<path fill="#DD8911" d="M112.13,85.82c-0.305-0.164-0.468-0.271-0.572-0.352C111.525,85.497,111.654,85.592,112.13,85.82z"/>
		</g>
		<g>
			<path fill="#DD8911" d="M144.587,98.806l-0.996-0.407c0.477,0.208,0.631,0.317,0.86,0.449
				C144.443,98.804,144.281,98.67,144.587,98.806z"/>
		</g>
		<g>
			<path fill="#DD8911" d="M152.675,103.583c0.15,0.047,0.303,0.136,0.453,0.182l-0.008-0.085
				C152.509,103.406,152.057,103.267,152.675,103.583z"/>
		</g>
		<g>
			<path fill="#DD8911" d="M145.271,99.705c0.022,0.159,0.655,0.396,1.352,0.686c-0.041-0.019-0.079-0.036-0.122-0.055
				C146.782,100.256,146.026,99.98,145.271,99.705z"/>
		</g>
		<g>
			<path fill="#DD8911" d="M146.784,100.459c0.215,0.091,0.431,0.186,0.635,0.286C147.531,100.713,147.169,100.614,146.784,100.459z
				"/>
		</g>
		<g>
			<path fill="#DD8911" d="M138.35,96.167c0.311,0.18,0.275-0.064,0.438,0.07C139.222,96.246,136.532,95.439,138.35,96.167z"/>
		</g>
		<g>
			<polygon fill="#DD8911" points="145.644,100.364 145.467,100.1 145.026,100.047 			"/>
		</g>
		<g>
			<path fill="#DD8911" d="M140.278,97.786l1.077,0.541c-0.005-0.033,0.14,0.015,0.317,0.082
				C140.999,98.096,140.273,97.729,140.278,97.786z"/>
		</g>
		<g>
			<path fill="#DD8911" d="M141.673,98.409c0.35,0.163,0.687,0.313,0.893,0.376C142.375,98.7,141.962,98.519,141.673,98.409z"/>
		</g>
		<g>
			<polygon fill="#DD8911" points="144.124,99.727 143.814,99.547 143.045,99.184 			"/>
		</g>
		<g>
			<path fill="#DD8911" d="M128.511,92.39l-1.217-0.501c-0.146-0.003,0.166,0.177,0.621,0.359
				C128.218,92.342,128.672,92.524,128.511,92.39z"/>
		</g>
		<g>
			<path fill="#DD8911" d="M131.938,94.453c-0.309-0.179-0.314-0.222-0.475-0.355l-0.121,0.172L131.938,94.453z"/>
		</g>
		<g>
			<path fill="#DD8911" d="M128.43,92.909c-0.143-0.002-1.805-0.641-0.283,0.038C128.292,92.95,129.51,93.453,128.43,92.909z"/>
		</g>
		<g>
			<polygon fill="#DD8911" points="110.517,84.462 110.821,84.598 110.919,84.27 			"/>
		</g>
		<g>
			<path fill="#DD8911" d="M94.295,77.965c1.384,0.72,0.423-0.037,1.663,0.639c0.366,0.079-1.012-0.552-0.643-0.46
				C94.425,77.832,93.995,77.583,94.295,77.965z"/>
		</g>
		<g>
			<path fill="#DD8911" d="M95.314,78.144c0.142,0.047,0.294,0.098,0.458,0.152C95.517,78.203,95.393,78.164,95.314,78.144z"/>
		</g>
		<g>
			<path fill="#DD8911" d="M146.967,140.206c0.028,0.035,0.823-0.774,0.823-0.775l-0.57,0.466
				C147.22,139.896,146.98,140.22,146.967,140.206z"/>
		</g>
		<g>
			<path fill="#DD8911" d="M148.12,138.414l0.317-0.113l0.157-0.664C148.481,137.854,148.257,138.279,148.12,138.414z"/>
		</g>
		<g>
			<path fill="#DD8911" d="M47.446,77.667l-0.016-0.09c-0.115,0.117-0.217,0.33-0.419,0.753L47.446,77.667z"/>
		</g>
		<g>
			<polygon fill="#DD8911" points="41.806,89.863 41.875,89.678 41.564,89.979 			"/>
		</g>
		<g>
			<path fill="#DD8911" d="M46.69,97.162c-0.426-0.185-0.928-0.402-1.358-0.588C46.271,96.961,46.705,97.436,46.69,97.162z"/>
		</g>
	</g>
	<g>
		<g>
			<polygon fill="#DD8911" points="102.016,67.742 103.625,67.65 102.721,68.982 103.305,70.482 101.758,70.033 100.511,71.055 
				100.459,69.445 99.104,68.574 100.62,68.027 101.029,66.469 			"/>
		</g>
	</g>
	<g>
		<g>
			<polygon fill="#DD8911" points="113.015,70.125 114.304,69.161 114.286,70.772 115.601,71.7 114.065,72.179 113.589,73.72 
				112.657,72.405 111.046,72.429 112.007,71.136 111.487,69.611 			"/>
		</g>
	</g>
	<g>
		<g>
			<polygon fill="#DD8911" points="122.532,77.65 124.075,77.196 123.497,78.699 124.407,80.027 122.8,79.941 121.817,81.219 
				121.399,79.662 119.882,79.121 121.235,78.246 121.28,76.635 			"/>
		</g>
	</g>
	<g>
		<g>
			<polygon fill="#DD8911" points="96.622,133.345 95.013,133.241 96.072,132.03 95.673,130.47 97.154,131.101 98.515,130.239 
				98.373,131.843 99.613,132.87 98.042,133.229 97.448,134.728 			"/>
		</g>
	</g>
	<g>
		<g>
			<polygon fill="#DD8911" points="86.898,130.466 85.587,131.403 85.642,129.794 84.346,128.835 85.895,128.39 86.406,126.862 
				87.307,128.198 88.918,128.212 87.927,129.481 88.413,131.017 			"/>
		</g>
	</g>
	<g>
		<g>
			<polygon fill="#DD8911" points="78.1,123.845 76.516,124.136 77.25,122.702 76.485,121.282 78.075,121.538 79.187,120.374 
				79.436,121.964 80.887,122.661 79.45,123.392 79.236,124.987 			"/>
		</g>
	</g>
</g>
</svg>
