<?xml version="1.0" encoding="utf-8"?>
<!-- Generator: Adobe Illustrator 16.0.0, SVG Export Plug-In . SVG Version: 6.00 Build 0)  -->
<!DOCTYPE svg PUBLIC "-//W3C//DTD SVG 1.1//EN" "http://www.w3.org/Graphics/SVG/1.1/DTD/svg11.dtd">
<svg version="1.1" id="图层_1" xmlns="http://www.w3.org/2000/svg" xmlns:xlink="http://www.w3.org/1999/xlink" x="0px" y="0px"
	 width="200px" height="200px" viewBox="0 0 200 200" enable-background="new 0 0 200 200" xml:space="preserve">
<g opacity="0.3">
	<g>
		<g>
			<g>
				<path fill="#DD8911" d="M113.638,55.7c-0.163-0.066-0.281-0.059-0.313,0.119C113.484,55.891,113.607,55.881,113.638,55.7z"/>
			</g>
		</g>
		<g>
			<g>
				<path fill="#DD8911" d="M137.212,74.146l0.138-0.456c-0.385-0.075-0.816,0.041-0.717,0.402
					C136.696,74.318,136.944,74.23,137.212,74.146z"/>
			</g>
		</g>
		<g>
			<g>
				<path fill="#DD8911" d="M90.983,54.65c-0.347,0.094-0.102,0.496,0.074,0.447C91.25,55.052,91.122,54.617,90.983,54.65z"/>
			</g>
		</g>
		<g>
			<g>
				<path fill="#DD8911" d="M129.222,65.353c0.431,0.132,0.491-0.714,0.029-0.558C128.996,64.876,128.997,65.286,129.222,65.353z"/>
			</g>
		</g>
		<g>
			<g>
				<path fill="#DD8911" d="M144.099,93.332c-0.246,0.063-0.296,0.568-0.152,0.736c0.121,0.143,0.684-0.068,0.978,0.252
					c-0.017-0.209-0.026-0.42-0.049-0.627C144.613,93.527,144.227,93.296,144.099,93.332z"/>
			</g>
		</g>
		<g>
			<g>
				<path fill="#DD8911" d="M88.83,55.077c0.024,0.448,0.178,0.919,0.317,1.03c0.767,0.597,0.751-0.86,1.218-0.568
					c0.489,0.299-0.937,1.239-1.249,0.915c0.015,0.09,0.004,0.199-0.012,0.311c9.128-2.617,19.084-2.242,28.351,1.696
					c0.131,0.012,0.264,0.018,0.32-0.047c0.244-0.272-0.178-0.825,0.296-0.978c0.2-0.063,0.463,0.225,0.685,0.271
					c0.343,0.068,0.461-0.173,0.764,0.013c-0.6,0.636,0.362,0.972,0.623,0.251c0.015-0.034,0.013-0.097,0.007-0.164
					c-0.259-0.127-0.509-0.26-0.77-0.383c-2.868-1.321-5.809-2.309-8.775-2.974c0.052,0.221-0.178,0.541-0.444,0.512
					c-0.313-0.041-0.452-0.47-0.188-0.642C102.875,52.831,95.634,53.154,88.83,55.077z M113.638,55.7
					c-0.03,0.181-0.153,0.19-0.313,0.119C113.356,55.642,113.475,55.634,113.638,55.7z M91.058,55.098
					c-0.176,0.049-0.421-0.354-0.074-0.447C91.122,54.617,91.25,55.052,91.058,55.098z"/>
			</g>
		</g>
		<g>
			<g>
				<path fill="#DD8911" d="M143.907,102.748c-0.445,0.039-0.34,0.721-0.071,0.693C144.046,103.42,144.25,102.723,143.907,102.748z"
					/>
			</g>
		</g>
		<g>
			<g>
				<path fill="#DD8911" d="M143.252,102.07c0.364-0.359,0.673-1.401,0.409-1.745c-0.017,0.172-0.16,0.299-0.322,0.414
					C143.313,101.182,143.289,101.627,143.252,102.07z"/>
			</g>
		</g>
		<g>
			<g>
				<path fill="#DD8911" d="M143.633,96.257c-0.132,0.029-0.212,0.139-0.256,0.271c0.007,0.193,0.012,0.389,0.018,0.586
					c0.048,0.117,0.113,0.199,0.2,0.199C143.914,97.316,144.215,96.128,143.633,96.257z"/>
			</g>
		</g>
		<g>
			<g>
				<path fill="#DD8911" d="M143.251,94.474c0.047-0.008,0.086-0.014,0.086-0.014c0.422,0.014,0.491,0.357,0.662,0.125
					c0.25-0.336-0.433-0.547-0.803-0.768C143.22,94.037,143.23,94.255,143.251,94.474z"/>
			</g>
		</g>
		<g>
			<g>
				<path fill="#DD8911" d="M143.551,99.302c0.313-0.299,0.111-0.832-0.134-1.178c0.002,0.406-0.011,0.816-0.021,1.225
					C143.467,99.339,143.526,99.324,143.551,99.302z"/>
			</g>
		</g>
		<g>
			<g>
				<path fill="#DD8911" d="M143.07,103.717c-0.013,0.094-0.023,0.189-0.034,0.287l0.107,0.049
					C143.154,103.934,143.138,103.82,143.07,103.717z"/>
			</g>
		</g>
		<g>
			<g>
				<path fill="#DD8911" d="M145.083,98.912c-0.152,0.305-0.2,0.602-0.014,0.777C145.077,99.431,145.078,99.169,145.083,98.912z"/>
			</g>
		</g>
		<g>
			<g>
				<path fill="#DD8911" d="M136.13,72.521c-0.141-0.019-0.772-0.322-1.095-0.539c-0.101-0.07-0.204-0.269-0.326-0.31
					c-0.069-0.022-0.163-0.036-0.259-0.052c0.752,0.984,1.465,1.998,2.128,3.039c0.119,0.092,0.217,0.207,0.209,0.333
					c3.464,5.549,5.649,11.859,6.367,18.433c0.203-0.086,0.521-0.15,0.6-0.338c0.142-0.336-0.349-1.582-0.135-2.318
					c0.215-0.754,0.168-1.098-0.517-1.299c0.546-0.256,0.388-0.547,0.766-0.914c0.049-0.047,0.108-0.086,0.173-0.121
					c-1.198-5.502-3.389-10.74-6.488-15.411l-0.095,0.309c-0.325-0.059-0.464-0.882-0.585-0.955
					C136.633,72.243,136.486,72.565,136.13,72.521z M137.35,73.689l-0.138,0.456c-0.268,0.085-0.516,0.173-0.579-0.054
					C136.533,73.73,136.965,73.614,137.35,73.689z"/>
			</g>
		</g>
		<g>
			<g>
				<path fill="#DD8911" d="M87.035,55.622c0.14,0.14,0.331,0.224,0.534,0.162c0.097-0.03,0.194-0.206,0.24-0.396
					C87.552,55.466,87.292,55.539,87.035,55.622z"/>
			</g>
		</g>
		<g>
			<g>
				<path fill="#DD8911" d="M87.816,56.356c-0.26,0.285-0.604,0.305-0.749,0.633c-0.084,0.188-0.127,0.34-0.147,0.468
					c0.36-0.122,0.719-0.245,1.082-0.359c-0.009-0.125-0.002-0.24,0.034-0.321c0.087-0.188,1.286-0.651,0.511-0.994
					C88.145,55.614,88.04,56.107,87.816,56.356z"/>
			</g>
		</g>
		<g>
			<g>
				<path fill="#DD8911" d="M74.595,63.249c-0.179-0.056-0.297-0.237-0.544-0.263c-0.165-0.013-0.588,0.328-0.748,0.106
					c-0.079-0.112,0.085-0.572,0.482-0.559c0.071,0.004,0.353,0.142,0.378,0.13c0.372-0.14,0.426-0.455,0.53-0.685
					c-0.164-0.057-0.33-0.104-0.48-0.155c-1.213,1.012-2.371,2.099-3.487,3.245l1.561,0.814c0.891-0.894,1.802-1.756,2.753-2.563
					C74.835,63.297,74.673,63.274,74.595,63.249z"/>
			</g>
		</g>
		<g>
			<g>
				<path fill="#DD8911" d="M120.621,58.474c-0.409,0.373-1.109,0.185-1.401,0.783c0.84,0.402,1.658,0.832,2.458,1.283
					c0.209-0.303,0.111-0.791,0.195-1.131c0.039-0.156,0.146-0.375,0.273-0.57c-0.344-0.186-0.685-0.375-1.031-0.555
					c-0.015,0.309,0.341,0.258,0.024,0.555C120.902,59.06,120.654,58.841,120.621,58.474z"/>
			</g>
		</g>
		<g>
			<g>
				<path fill="#DD8911" d="M81.874,58.448c-0.19-0.01-0.333-0.321-0.52-0.361c-0.518-0.123-0.83,0.383-0.872,0.807
					c0.272-0.02,0.754-0.341,0.622,0.26c-0.591-0.285-0.697,0.405-0.537,0.621c0.07,0.101,0.396-0.027,0.551,0.021
					c0.044,0.014,0.092,0.039,0.143,0.067c0.076-0.04,0.15-0.083,0.229-0.12c-0.108-0.123-0.164-0.26-0.104-0.363
					c0.145-0.256,0.487-0.106,0.739,0.051c0.597-0.29,1.203-0.564,1.815-0.828c-0.306,0.042-0.426,0.279-0.634,0.201
					c-0.335-0.123-0.341-0.807-0.659-0.832C82.474,57.95,82.1,58.469,81.874,58.448z"/>
			</g>
		</g>
		<g>
			<g>
				<path fill="#DD8911" d="M75.351,62.017c-0.049,0.012-0.209,0.04-0.186,0.158C75.279,62.854,76.172,61.756,75.351,62.017z"/>
			</g>
		</g>
		<g>
			<g>
				<path fill="#DD8911" d="M75.252,63.561c0.082-0.058,0.162-0.116,0.242-0.172c-0.041-0.1-0.202-0.165-0.309-0.142
					C74.892,63.32,75.067,63.513,75.252,63.561z"/>
			</g>
		</g>
		<g>
			<g>
				<path fill="#DD8911" d="M82.582,57.732c0.164,0.315,0.559-0.296,0.97-0.214c0.471,0.098,0.606,0.828,0.848,0.889
					c0,0,0.011,0,0.015,0c0.16-0.063,0.317-0.13,0.48-0.194c0.165-0.146,0.282-0.315,0.278-0.285c0.038-0.528-0.8-0.231-0.843-0.891
					c0.272,0.132,0.661-0.293,0.969-0.212c0.106,0.028,0.163,0.387,0.287,0.436c0.426,0.189,1.209-0.32,1.301-0.607
					c0.096-0.29-0.278-0.449-0.136-0.93c-0.271,0.09-0.537,0.189-0.805,0.287c-0.033,0.284-0.209,0.592-0.419,0.523
					c-0.147-0.046-0.33-0.114-0.516-0.193c-0.55,0.207-1.094,0.438-1.635,0.666c0.028,0.089,0.048,0.164,0.063,0.201
					C83.143,57.12,82.394,57.379,82.582,57.732z"/>
			</g>
		</g>
		<g>
			<g>
				<path fill="#DD8911" d="M72.253,63.951c-0.09,0.015-0.179-0.023-0.23-0.01c-0.014,0.01-0.026,0.021-0.037,0.032
					c-0.019,0.027-0.022,0.081-0.006,0.182C72.056,64.596,72.87,63.862,72.253,63.951z"/>
			</g>
		</g>
		<g>
			<g>
				<path fill="#DD8911" d="M118.44,58.888c0.072,0.032,0.148,0.059,0.221,0.093c0.165,0.077,0.324,0.165,0.488,0.242
					C119.126,58.568,118.845,58.687,118.44,58.888z"/>
			</g>
		</g>
		<g>
			<g>
				<path fill="#DD8911" d="M123.282,60.754c-0.269,0.016-0.533-0.307-0.814-0.313c-0.236-0.008-0.398,0.126-0.534,0.242
					c0.979,0.557,1.932,1.149,2.852,1.778c-0.062-0.226-0.018-0.57,0.195-0.638c0.313-0.099,0.356,0.701,0.063,0.819
					c1.08,0.754,2.124,1.544,3.12,2.384c-0.021-0.357,0.365-1.027,0.755-0.978c0.089,0.395-0.185,1.137-0.492,1.208
					c0.423,0.361,0.843,0.729,1.249,1.107c0.289-0.301,0.584-0.596,0.96-0.381c-0.021,0.475-0.268,0.674-0.567,0.758
					c0.19,0.178,0.379,0.355,0.562,0.541c0.034-0.018,0.072-0.035,0.12-0.055c0.135-0.044,0.375-0.009,0.407,0.047
					c0.12,0.236,0.003,0.336-0.166,0.355c1.001,1.014,1.945,2.075,2.834,3.176c0.275-0.316,1.078-0.359,1.221-0.244
					c0.19,0.148-0.14,0.379,0.185,0.551c0.387,0.208,0.493-0.086,0.819-0.207c-0.525-0.7-1.073-1.38-1.641-2.049
					c-0.173,0.002-0.321,0.018-0.376-0.018c-0.323-0.195,0-0.086-0.113-0.321c-0.083-0.171-0.107-0.273-0.091-0.343
					c-0.674-0.763-1.382-1.501-2.113-2.219c-0.337-0.04-0.573-0.162-0.515-0.448c0.002-0.014,0.01-0.023,0.015-0.037
					c-0.517-0.486-1.045-0.965-1.585-1.435c-0.031-0.002-0.059-0.006-0.08-0.014c-0.108-0.043-0.142-0.107-0.16-0.191
					c-1.24-1.055-2.542-2.051-3.915-2.976c-0.193,0.167-0.363,0.378-0.347,0.726c-0.667-0.246,0.089-0.559,0.176-0.841
					c-0.743-0.497-1.512-0.964-2.291-1.414c-0.001,0.259-0.06,0.521-0.215,0.715c0.192,0.265,0.937-0.34,1.088,0.106
					C123.967,60.391,123.41,60.744,123.282,60.754z M129.251,64.795c0.462-0.156,0.401,0.689-0.029,0.558
					C128.997,65.286,128.996,64.876,129.251,64.795z"/>
			</g>
		</g>
	</g>
	<g>
		<g>
			<g>
				<path fill="#DD8911" d="M83.507,143.373c0.367,0.393,1.295-0.432,0.703-0.684C83.739,142.496,83.195,143.045,83.507,143.373z"/>
			</g>
		</g>
		<g>
			<g>
				<path fill="#DD8911" d="M78.911,140.49c-0.205,0.01-0.398-0.961-0.717-0.871c-0.141,0.045-0.361,0.551-0.336,0.646
					C77.901,140.4,78.754,140.838,78.911,140.49z"/>
			</g>
		</g>
		<g>
			<g>
				<path fill="#DD8911" d="M126.53,136.906C127.299,136.754,126.496,136.014,126.53,136.906L126.53,136.906z"/>
			</g>
		</g>
		<g>
			<g>
				<path fill="#DD8911" d="M126.772,135.207c-0.106,0.045-0.523,0.605-0.337,0.863C126.934,136.75,127.505,134.912,126.772,135.207
					z"/>
			</g>
		</g>
		<g>
			<g>
				<path fill="#DD8911" d="M130.905,131.092c-0.016,0.018-0.032,0.033-0.05,0.051C131.004,132.125,132.186,131.283,130.905,131.092
					z"/>
			</g>
		</g>
		<g>
			<g>
				<path fill="#DD8911" d="M126.117,136.195C125.17,136.174,125.822,137.193,126.117,136.195L126.117,136.195z"/>
			</g>
		</g>
		<g>
			<g>
				<path fill="#DD8911" d="M125.529,137.867c-0.007,0.025-0.005,0.045-0.007,0.07c0.254-0.184,0.506-0.379,0.759-0.566
					C126.023,137.395,125.642,137.568,125.529,137.867z"/>
			</g>
		</g>
		<g>
			<g>
				<path fill="#DD8911" d="M128.595,135.547c0.017-0.016,0.035-0.027,0.049-0.045c0.052-0.043,0.095-0.092,0.123-0.154
					c-0.273-0.313-0.716-0.145-0.837,0.195C128.092,135.695,128.391,135.684,128.595,135.547z"/>
			</g>
		</g>
		<g>
			<g>
				<path fill="#DD8911" d="M132.391,131.086c-0.725,0.139,0.12,1.006,0.366,0.402C132.856,131.252,132.493,131.066,132.391,131.086
					z"/>
			</g>
		</g>
		<g>
			<g>
				<path fill="#DD8911" d="M55.896,105.121c-0.032,0.273,0.501,0.52,0.459,0.795c-0.004,0.031-0.355,0.477-0.62,0.799
					c0.159,1.467,0.383,2.916,0.672,4.35c0.488,0.197,0.854,0.34,1.327-0.035c0.058-0.324-0.553-0.271-0.69-0.49
					c0.335-0.096,0.688-0.34,0.858-0.271c0.037,0.016,0.074,0.045,0.11,0.094c-0.395-2.002-0.651-4.039-0.774-6.094
					c-0.142-0.008-0.453-0.152-0.554-0.102c-0.184,0.102-0.08,0.332-0.334,0.641C56.106,105.1,55.942,104.809,55.896,105.121z"/>
			</g>
		</g>
		<g>
			<g>
				<path fill="#DD8911" d="M66.164,128.877C65.289,128.414,65.643,129.639,66.164,128.877L66.164,128.877z"/>
			</g>
		</g>
		<g>
			<g>
				<path fill="#DD8911" d="M64.662,128.734c-0.115,0.037-0.332,0.135-0.17,0.316C64.758,129.35,65.008,128.629,64.662,128.734z"/>
			</g>
		</g>
		<g>
			<g>
				<path fill="#DD8911" d="M55.705,96.525c0.156-0.037,0.307-0.088,0.433-0.178c0.025-0.023,0.507-0.572,0.781-0.893l-1.021-0.473
					C55.828,95.498,55.759,96.011,55.705,96.525z"/>
			</g>
		</g>
		<g>
			<g>
				<path fill="#DD8911" d="M66.386,129.752c0.163-0.109,0.372-0.121,0.592-0.113c-0.084-0.105-0.175-0.209-0.262-0.314
					c-0.001,0.049-0.009,0.094-0.032,0.143C66.594,129.637,66.457,129.422,66.386,129.752z"/>
			</g>
		</g>
		<g>
			<g>
				<path fill="#DD8911" d="M56.765,112.594c-0.006,0.031,0.474,0.828,0.281,1.195c0.718,2.701,1.669,5.318,2.848,7.822
					c0.557,0.145,0.963,0.354,0.552,0.963c-0.019,0.025-0.043,0.043-0.063,0.063c0.712,1.422,1.493,2.803,2.351,4.139
					c0.028-0.016,0.056-0.025,0.085-0.051c0.119-0.102,0.089-0.781,0.122-0.85c0.286-0.531,0.665-0.178,1.146-0.227
					c-0.117-0.182-0.223-0.365-0.331-0.547c-0.101,0.018-0.197,0.018-0.283-0.031c-0.189-0.104-0.34-0.59-0.34-1
					c-2.188-3.785-3.808-7.9-4.805-12.217l-0.002,0.008C58.051,112.396,56.89,112.18,56.765,112.594z"/>
			</g>
		</g>
		<g>
			<g>
				<path fill="#DD8911" d="M65.599,130.26c-0.07-0.01-0.177,0.047-0.296,0.107c4.076,5.141,9.329,9.396,15.613,12.297
					c7.767,3.586,16.088,4.646,24.108,3.518c-0.161-0.328,0.746-0.699,1.189-0.361c-0.03,0.066-0.082,0.133-0.14,0.193
					c6.271-1.033,12.329-3.398,17.771-6.941c-0.229-0.045-0.541-0.025-0.729-0.428c0.523-0.113,0.493-0.127,0.787-0.73
					c0.17-0.359,0.614-0.988,0.822-1.504c-9.725,6.979-21.78,9.916-33.417,7.721c-0.049,0.107-0.126,0.23-0.158,0.422
					c-0.081,0.471,0.216,0.615,0.073,0.906c-0.113,0.24-0.485,0.346-0.641,0.256c-0.544-0.293,0.173-0.746,0.246-1.256
					c0.02-0.137-0.008-0.287-0.063-0.438c-3.084-0.623-6.139-1.596-9.104-2.967c-5.624-2.6-10.389-6.332-14.183-10.816
					c-0.436,0.289-1.083,0.41-1.405,0.303C65.894,130.488,65.776,130.268,65.599,130.26z M84.21,142.689
					c0.592,0.252-0.336,1.076-0.703,0.684C83.195,143.045,83.739,142.496,84.21,142.689z M78.194,139.619
					c0.318-0.09,0.512,0.881,0.717,0.871c-0.157,0.348-1.01-0.09-1.053-0.225C77.833,140.17,78.054,139.664,78.194,139.619z"/>
			</g>
		</g>
		<g>
			<g>
				<path fill="#DD8911" d="M56.61,96.634c-0.012-0.125-0.262-0.23-0.385-0.113C55.9,96.826,56.651,97.007,56.61,96.634z"/>
			</g>
		</g>
	</g>
	<g>
		<g>
			<g>
				<path fill="#DD8911" d="M111.422,63.599c-0.121-0.048-0.207-0.046-0.228,0.075C111.314,63.729,111.404,63.723,111.422,63.599z"
					/>
			</g>
		</g>
		<g>
			<g>
				<path fill="#DD8911" d="M129.091,76.97l0.096-0.314c-0.285-0.061-0.604,0.015-0.521,0.266
					C128.72,77.081,128.897,77.025,129.091,76.97z"/>
			</g>
		</g>
		<g>
			<g>
				<path fill="#DD8911" d="M94.782,62.402c-0.252,0.059-0.062,0.346,0.063,0.315C94.988,62.69,94.885,62.382,94.782,62.402z"/>
			</g>
		</g>
		<g>
			<g>
				<path fill="#DD8911" d="M123.053,70.664c0.317,0.098,0.346-0.491,0.009-0.393C122.876,70.329,122.887,70.61,123.053,70.664z"/>
			</g>
		</g>
		<g>
			<g>
				<path fill="#DD8911" d="M134.536,90.519c-0.181,0.039-0.208,0.393-0.098,0.512c0.092,0.102,0.499-0.035,0.723,0.197
					c-0.017-0.145-0.029-0.291-0.048-0.439C134.916,90.667,134.629,90.498,134.536,90.519z"/>
			</g>
		</g>
		<g>
			<g>
				<path fill="#DD8911" d="M93.214,62.66c0.023,0.312,0.146,0.643,0.252,0.722c0.574,0.436,0.534-0.585,0.883-0.37
					c0.363,0.221-0.663,0.847-0.897,0.614c0.014,0.063,0.007,0.138-0.005,0.217c6.644-1.643,13.955-1.181,20.832,1.764
					c0.096,0.01,0.194,0.018,0.234-0.024c0.173-0.187-0.146-0.581,0.199-0.681c0.144-0.039,0.343,0.168,0.505,0.204
					c0.253,0.057,0.337-0.111,0.563,0.027c-0.427,0.427,0.286,0.683,0.46,0.185c0.009-0.023,0.008-0.064,0.004-0.112
					c-0.192-0.094-0.379-0.19-0.573-0.282c-2.13-0.984-4.309-1.731-6.499-2.261c0.045,0.156-0.117,0.378-0.313,0.35
					c-0.231-0.031-0.343-0.338-0.153-0.451C103.47,61.373,98.163,61.45,93.214,62.66z M111.422,63.599
					c-0.018,0.124-0.107,0.13-0.228,0.075C111.215,63.553,111.301,63.551,111.422,63.599z M94.845,62.718
					c-0.124,0.03-0.314-0.257-0.063-0.315C94.885,62.382,94.988,62.69,94.845,62.718z"/>
			</g>
		</g>
		<g>
			<g>
				<path fill="#DD8911" d="M134.585,97.099c-0.325,0.016-0.23,0.496-0.035,0.477C134.701,97.568,134.839,97.085,134.585,97.099z"/>
			</g>
		</g>
		<g>
			<g>
				<path fill="#DD8911" d="M134.091,96.609c0.263-0.242,0.466-0.963,0.265-1.213c-0.008,0.123-0.109,0.207-0.228,0.287
					C134.12,95.992,134.109,96.298,134.091,96.609z"/>
			</g>
		</g>
		<g>
			<g>
				<path fill="#DD8911" d="M134.253,92.556c-0.096,0.016-0.154,0.088-0.183,0.184c0.011,0.137,0.018,0.271,0.027,0.408
					c0.034,0.082,0.085,0.143,0.148,0.145C134.481,93.298,134.679,92.476,134.253,92.556z"/>
			</g>
		</g>
		<g>
			<g>
				<path fill="#DD8911" d="M133.936,91.3c0.036-0.004,0.063-0.008,0.063-0.008c0.31,0.016,0.366,0.26,0.489,0.102
					c0.177-0.23-0.328-0.391-0.605-0.553C133.903,90.994,133.916,91.148,133.936,91.3z"/>
			</g>
		</g>
		<g>
			<g>
				<path fill="#DD8911" d="M134.255,94.677c0.222-0.199,0.066-0.574-0.123-0.82c0.01,0.283,0.01,0.57,0.012,0.852
					C134.195,94.701,134.237,94.695,134.255,94.677z"/>
			</g>
		</g>
		<g>
			<g>
				<path fill="#DD8911" d="M133.993,97.757c-0.008,0.063-0.014,0.129-0.019,0.199l0.08,0.035
					C134.061,97.908,134.045,97.83,133.993,97.757z"/>
			</g>
		</g>
		<g>
			<g>
				<path fill="#DD8911" d="M135.37,94.441c-0.104,0.209-0.132,0.414,0.007,0.541C135.377,94.8,135.372,94.621,135.37,94.441z"/>
			</g>
		</g>
		<g>
			<g>
				<path fill="#DD8911" d="M128.266,75.81c-0.103-0.014-0.576-0.237-0.813-0.396c-0.077-0.052-0.157-0.19-0.246-0.222
					c-0.052-0.019-0.121-0.029-0.193-0.041c0.573,0.701,1.118,1.425,1.624,2.163c0.09,0.069,0.164,0.152,0.159,0.239
					c2.656,3.949,4.387,8.403,5.05,13.013c0.146-0.057,0.378-0.096,0.432-0.225c0.097-0.232-0.287-1.111-0.145-1.625
					c0.143-0.52,0.101-0.758-0.406-0.914c0.396-0.168,0.272-0.377,0.543-0.623c0.035-0.033,0.077-0.059,0.125-0.082
					c-0.99-3.868-2.704-7.578-5.077-10.903l-0.062,0.213c-0.239-0.047-0.359-0.626-0.449-0.678
					C128.628,75.63,128.526,75.851,128.266,75.81z M129.187,76.655l-0.096,0.314c-0.193,0.056-0.371,0.111-0.426-0.049
					C128.583,76.67,128.901,76.595,129.187,76.655z"/>
			</g>
		</g>
		<g>
			<g>
				<path fill="#DD8911" d="M91.907,63c0.104,0.103,0.248,0.165,0.394,0.128c0.072-0.02,0.14-0.143,0.169-0.274
					C92.283,62.903,92.094,62.949,91.907,63z"/>
			</g>
		</g>
		<g>
			<g>
				<path fill="#DD8911" d="M92.494,63.526c-0.184,0.196-0.439,0.205-0.536,0.429c-0.057,0.134-0.086,0.237-0.098,0.328
					c0.26-0.081,0.521-0.157,0.786-0.23c-0.009-0.087-0.007-0.169,0.017-0.226c0.062-0.126,0.93-0.427,0.354-0.682
					C92.722,63.018,92.65,63.361,92.494,63.526z"/>
			</g>
		</g>
		<g>
			<g>
				<path fill="#DD8911" d="M80.185,70.52c-0.133-0.034-0.23-0.163-0.412-0.175c-0.122-0.007-0.41,0.235-0.541,0.08
					c-0.065-0.074,0.031-0.4,0.322-0.395c0.05,0,0.267,0.094,0.284,0.088c0.266-0.105,0.286-0.325,0.35-0.486
					c-0.125-0.04-0.25-0.067-0.36-0.106c-0.832,0.725-1.621,1.501-2.373,2.319l1.188,0.546c0.602-0.637,1.222-1.253,1.873-1.829
					C80.361,70.55,80.242,70.536,80.185,70.52z"/>
			</g>
		</g>
		<g>
			<g>
				<path fill="#DD8911" d="M116.6,65.679c-0.289,0.253-0.808,0.107-1.01,0.519c0.624,0.304,1.231,0.616,1.828,0.948
					c0.149-0.208,0.067-0.549,0.12-0.787c0.026-0.107,0.1-0.261,0.19-0.393c-0.255-0.139-0.506-0.276-0.768-0.408
					c-0.005,0.218,0.253,0.187,0.028,0.389C116.821,66.094,116.634,65.938,116.6,65.679z"/>
			</g>
		</g>
		<g>
			<g>
				<path fill="#DD8911" d="M88.179,64.872c-0.142-0.012-0.252-0.229-0.389-0.265c-0.382-0.097-0.602,0.251-0.624,0.546
					c0.199-0.007,0.548-0.22,0.462,0.192c-0.44-0.209-0.504,0.269-0.381,0.426c0.054,0.07,0.291-0.009,0.405,0.028
					c0.033,0.012,0.067,0.027,0.102,0.048c0.06-0.024,0.112-0.056,0.167-0.08c-0.079-0.084-0.126-0.186-0.085-0.257
					c0.102-0.176,0.357-0.063,0.545,0.055c0.435-0.193,0.872-0.374,1.314-0.543c-0.223,0.02-0.307,0.184-0.46,0.126
					c-0.247-0.093-0.267-0.569-0.502-0.595C88.608,64.532,88.344,64.888,88.179,64.872z"/>
			</g>
		</g>
		<g>
			<g>
				<path fill="#DD8911" d="M83.466,67.232c-0.035,0.006-0.151,0.024-0.132,0.104C83.434,67.813,84.063,67.065,83.466,67.232z"/>
			</g>
		</g>
		<g>
			<g>
				<path fill="#DD8911" d="M83.425,68.312c0.055-0.04,0.115-0.081,0.173-0.121c-0.03-0.065-0.15-0.118-0.229-0.099
					C83.154,68.134,83.288,68.271,83.425,68.312z"/>
			</g>
		</g>
		<g>
			<g>
				<path fill="#DD8911" d="M88.684,64.387c0.126,0.223,0.403-0.196,0.705-0.129c0.349,0.077,0.462,0.589,0.642,0.638l0.009,0.004
					c0.116-0.045,0.232-0.088,0.349-0.131c0.118-0.104,0.2-0.215,0.201-0.193c0.016-0.371-0.594-0.177-0.637-0.64
					c0.201,0.097,0.479-0.195,0.705-0.128c0.078,0.02,0.128,0.271,0.217,0.313c0.318,0.136,0.883-0.201,0.945-0.402
					c0.064-0.199-0.215-0.317-0.12-0.652c-0.195,0.059-0.392,0.12-0.584,0.182c-0.019,0.203-0.142,0.413-0.297,0.361
					c-0.11-0.037-0.242-0.09-0.38-0.146c-0.399,0.137-0.795,0.284-1.189,0.434c0.024,0.063,0.043,0.114,0.054,0.139
					C89.082,63.972,88.536,64.137,88.684,64.387z"/>
			</g>
		</g>
		<g>
			<g>
				<path fill="#DD8911" d="M81.232,68.521c-0.065,0.008-0.13-0.018-0.17-0.01c-0.008,0.007-0.018,0.012-0.027,0.021
					c-0.013,0.02-0.014,0.055,0,0.126C81.101,68.969,81.684,68.471,81.232,68.521z"/>
			</g>
		</g>
		<g>
			<g>
				<path fill="#DD8911" d="M115.01,65.924c0.055,0.026,0.111,0.042,0.166,0.069c0.123,0.055,0.238,0.123,0.36,0.18
					C115.507,65.718,115.303,65.792,115.01,65.924z"/>
			</g>
		</g>
		<g>
			<g>
				<path fill="#DD8911" d="M118.603,67.326c-0.199,0.008-0.399-0.222-0.607-0.233c-0.171-0.012-0.29,0.081-0.386,0.156
					c0.73,0.409,1.439,0.847,2.127,1.303c-0.047-0.159-0.023-0.4,0.133-0.442c0.229-0.063,0.274,0.495,0.062,0.576
					c0.809,0.544,1.59,1.124,2.338,1.727c-0.023-0.249,0.246-0.71,0.535-0.664c0.073,0.274-0.115,0.788-0.34,0.828
					c0.317,0.265,0.638,0.526,0.94,0.8c0.206-0.202,0.419-0.402,0.695-0.244c-0.005,0.332-0.182,0.468-0.398,0.518
					c0.141,0.13,0.282,0.256,0.423,0.39c0.024-0.012,0.052-0.021,0.087-0.034c0.097-0.029,0.273-0.002,0.298,0.04
					c0.094,0.165,0.011,0.235-0.111,0.246c0.752,0.729,1.466,1.489,2.141,2.274c0.195-0.213,0.785-0.228,0.892-0.145
					c0.142,0.107-0.097,0.265,0.146,0.395c0.288,0.147,0.358-0.057,0.594-0.135c-0.397-0.498-0.813-0.983-1.243-1.465
					c-0.127-0.002-0.234,0.01-0.276-0.022c-0.242-0.139-0.001-0.058-0.088-0.224c-0.065-0.122-0.085-0.192-0.073-0.24
					c-0.511-0.547-1.045-1.076-1.598-1.595c-0.249-0.036-0.421-0.123-0.385-0.323c0.003-0.012,0.006-0.018,0.009-0.023
					c-0.387-0.354-0.787-0.699-1.19-1.035c-0.024-0.003-0.044-0.006-0.058-0.012c-0.083-0.034-0.109-0.08-0.121-0.139
					c-0.934-0.764-1.909-1.487-2.937-2.16c-0.138,0.115-0.257,0.259-0.24,0.502c-0.492-0.188,0.056-0.391,0.114-0.588
					c-0.558-0.359-1.129-0.701-1.71-1.032c0.003,0.183-0.034,0.361-0.146,0.496c0.151,0.187,0.682-0.219,0.801,0.095
					C119.096,67.091,118.691,67.32,118.603,67.326z M123.062,70.271c0.337-0.099,0.309,0.49-0.009,0.393
					C122.887,70.61,122.876,70.329,123.062,70.271z"/>
			</g>
		</g>
	</g>
	<g>
		<g>
			<g>
				<path fill="#DD8911" d="M82.898,132.879c-0.104,0.031-0.265,0.396-0.242,0.463c0.031,0.102,0.661,0.42,0.775,0.172
					C83.279,133.518,83.13,132.816,82.898,132.879z"/>
			</g>
		</g>
		<g>
			<g>
				<path fill="#DD8911" d="M87.338,135.139c-0.346-0.141-0.743,0.25-0.511,0.49C87.099,135.916,87.773,135.324,87.338,135.139z"/>
			</g>
		</g>
		<g>
			<g>
				<path fill="#DD8911" d="M66.689,112.096c0.359,0.145,0.63,0.252,0.977-0.014c0.038-0.236-0.409-0.205-0.512-0.361
					c0.246-0.066,0.503-0.242,0.627-0.189c0.029,0.012,0.057,0.033,0.085,0.064c-0.041-0.191-0.065-0.391-0.102-0.586l-1.397-0.643
					C66.464,110.945,66.568,111.523,66.689,112.096z"/>
			</g>
		</g>
		<g>
			<g>
				<path fill="#DD8911" d="M73.984,125.031C73.337,124.691,73.607,125.582,73.984,125.031L73.984,125.031z"/>
			</g>
		</g>
		<g>
			<g>
				<path fill="#DD8911" d="M72.881,124.92c-0.083,0.025-0.245,0.096-0.122,0.229C72.954,125.363,73.133,124.848,72.881,124.92z"/>
			</g>
		</g>
		<g>
			<g>
				<path fill="#DD8911" d="M74.151,125.662c0.122-0.072,0.274-0.08,0.438-0.072c-0.064-0.078-0.131-0.156-0.196-0.232
					c0,0.037-0.007,0.07-0.022,0.104C74.305,125.586,74.201,125.428,74.151,125.662z"/>
			</g>
		</g>
		<g>
			<g>
				<path fill="#DD8911" d="M72.433,122.686c-0.086-0.131-0.162-0.266-0.245-0.398c-0.073,0.012-0.146,0.012-0.209-0.023
					c-0.141-0.078-0.254-0.43-0.254-0.727c-1.633-2.746-2.856-5.736-3.62-8.857l-0.002,0.006c-0.196,0.383-1.051,0.219-1.138,0.516
					c-0.004,0.021,0.354,0.605,0.215,0.867c0.545,1.953,1.265,3.854,2.146,5.67c0.41,0.109,0.711,0.264,0.412,0.701
					c-0.012,0.018-0.031,0.029-0.046,0.043c0.533,1.033,1.117,2.035,1.756,3.008c0.021-0.014,0.043-0.016,0.063-0.037
					c0.086-0.072,0.061-0.564,0.082-0.611C71.8,122.461,72.08,122.719,72.433,122.686z"/>
			</g>
		</g>
		<g>
			<g>
				<path fill="#DD8911" d="M114.41,132.561c-6.581,3.74-14.318,5.139-21.849,3.67c-0.032,0.076-0.092,0.168-0.112,0.303
					c-0.057,0.342,0.16,0.451,0.061,0.658c-0.081,0.172-0.354,0.242-0.47,0.18c-0.401-0.217,0.122-0.535,0.172-0.906
					c0.015-0.098-0.007-0.205-0.05-0.316c-2.269-0.471-4.521-1.197-6.706-2.211c-4.153-1.916-7.679-4.643-10.496-7.914
					c-0.317,0.205-0.795,0.289-1.028,0.213c-0.135-0.043-0.223-0.203-0.354-0.209c-0.052-0.006-0.129,0.031-0.216,0.076
					c3.029,3.742,6.92,6.855,11.558,8.992c5.73,2.65,11.851,3.471,17.734,2.717c-0.121-0.238,0.543-0.502,0.869-0.254
					c-0.021,0.047-0.059,0.092-0.1,0.137c4.354-0.666,8.553-2.201,12.361-4.498L114.41,132.561z M82.656,133.342
					c-0.022-0.066,0.139-0.432,0.242-0.463c0.231-0.063,0.381,0.639,0.533,0.635C83.317,133.762,82.688,133.443,82.656,133.342z
					 M86.827,135.629c-0.232-0.24,0.165-0.631,0.511-0.49C87.773,135.324,87.099,135.916,86.827,135.629z"/>
			</g>
		</g>
	</g>
	<g>
		<g>
			<path fill="#DD8911" d="M56.956,85.479c-0.015-0.608-0.074-1.146-0.175-1.611c3.37-0.955,6.749-2.728,10.138-5.316l0.903,1.228
				c-1.402,1.027-2.786,1.944-4.149,2.754L57.563,95.77l-1.351-0.623l5.3-11.483C59.953,84.434,58.435,85.038,56.956,85.479z
				 M61.008,77.858c-0.041-0.509-0.12-1.023-0.235-1.547c3.097-0.806,6.15-2.238,9.162-4.297l0.868,1.303
				C67.569,75.458,64.305,76.972,61.008,77.858z M77.155,89.169l1.376,0.635l-1.106,2.397l4.266,1.969l-0.565,1.224l-4.266-1.969
				l-2.813,6.095c-0.819,1.907-2.342,2.354-4.565,1.337c-0.484-0.213-0.967-0.426-1.451-0.639c-0.227-0.104-0.476-0.219-0.744-0.344
				c-0.228-0.104-0.568-0.262-1.022-0.471c0.173-0.421,0.302-0.953,0.385-1.598c0.54,0.289,1.025,0.539,1.46,0.75
				c0.214,0.108,0.449,0.222,0.702,0.338c0.21,0.098,0.555,0.256,1.034,0.479c0.846,0.4,1.477,0.523,1.895,0.369
				c0.424-0.121,0.81-0.57,1.158-1.348l2.585-5.604l-11.003-5.078l0.565-1.224l11.003,5.078L77.155,89.169z M65.274,90.604
				l1.423-0.431c0.988,2.457,1.651,4.15,1.987,5.082l-1.528,0.457C66.597,94.005,65.97,92.302,65.274,90.604z M71.04,76.749
				l6.31,2.912l1.607-3.482l1.363,0.629l-1.607,3.482l6.574,3.034l-0.559,1.211l-6.574-3.034l-1.922,4.165l7.735,3.569l-0.559,1.211
				l-16.595-7.658l0.559-1.211l7.496,3.459l1.922-4.164l-6.31-2.912L71.04,76.749z"/>
			<path fill="#DD8911" d="M105.814,88.481l1.401,0.646l-1.678,3.635l11.028,5.09l-0.611,1.324l-11.028-5.09l-1.968,4.266
				l7.104,3.279l-0.617,1.337c-3.175,2.901-6.744,4.765-10.708,5.589c1.513,2.494,4.538,5.314,9.077,8.46
				c-0.028,0.018-0.069,0.039-0.123,0.065c-0.563,0.291-1.027,0.577-1.391,0.857c-4.875-3.586-7.96-6.596-9.256-9.031
				c-3.3,0.518-7.682,0.25-13.145-0.801c0.003-0.406-0.064-0.979-0.203-1.717c5.216,1.08,9.405,1.423,12.568,1.025
				c-1.626-3.199-2.263-7.024-1.914-11.476l-2.41-1.112l0.594-1.287l9.021,4.164l1.969-4.266L92.03,88.136l0.611-1.325l11.495,5.306
				L105.814,88.481z M107.917,102.202l-12.039-5.557c-0.321,4.28,0.345,7.787,2.002,10.521
				C101.536,106.589,104.881,104.934,107.917,102.202z"/>
			<path fill="#DD8911" d="M118.909,111.041c0.098-0.7,0.159-1.351,0.182-1.952c4.153-2.236,7.978-5.248,11.47-9.033l1.311,1.109
				c-1.589,1.584-3.307,3.138-5.153,4.662l-8.316,18.02l-1.4-0.646l7.1-15.382C122.279,109.11,120.549,110.185,118.909,111.041z
				 M129.022,106.737l11.621,5.364l2.755-5.968l1.426,0.658l-2.754,5.968l3.672,1.694l-0.623,1.352l-3.672-1.695l-5.952,12.896
				c-0.994,2.398-2.695,3.031-5.102,1.9c-1.135-0.482-2.308-1.004-3.519-1.563c0.184-0.619,0.313-1.197,0.387-1.735
				c1.323,0.692,2.464,1.26,3.424,1.702c1.663,0.84,2.806,0.489,3.424-1.051l5.911-12.809l-11.621-5.363L129.022,106.737z
				 M127.816,112.335l1.532-0.334c0.732,2.481,1.491,5.326,2.275,8.535l-1.691,0.383
				C129.189,117.464,128.484,114.603,127.816,112.335z"/>
		</g>
	</g>
	<g>
		<g>
			<path fill="#DD8911" d="M148.946,137.411c-0.195,0.4-0.002,0.313-0.007,0.384C149.22,137.104,148.906,137.412,148.946,137.411z"
				/>
		</g>
		<g>
			<polygon fill="#DD8911" points="151.712,130.577 151.709,130.72 152.032,129.673 			"/>
		</g>
		<g>
			<path fill="#DD8911" d="M154.568,124.313c-0.486,0.492-1,2.286-1.585,3.368l-0.133,0.16l-0.056,0.583
				C153.386,127.054,154.073,125.239,154.568,124.313z"/>
		</g>
		<g>
			<path fill="#DD8911" d="M156.559,121.184c-0.179,0.168,0.257-0.757-0.382,0.767c0.045-0.067,0.06-0.091,0.086-0.13
				C156.325,121.686,156.411,121.499,156.559,121.184z"/>
		</g>
		<g>
			<path fill="#DD8911" d="M156.263,121.82C155.968,122.482,156.53,121.42,156.263,121.82L156.263,121.82z"/>
		</g>
		<g>
			<path fill="#DD8911" d="M157.603,118.75l-0.321,0.903c0.134-0.16,0.497-0.929,0.401-0.623
				C158.049,118.118,157.915,118.279,157.603,118.75z"/>
		</g>
		<g>
			<path fill="#DD8911" d="M157.82,117.854l-0.174,0.465C157.704,118.249,157.766,118.133,157.82,117.854z"/>
		</g>
		<g>
			<path fill="#DD8911" d="M157.279,119.304l0.367-0.985c-0.092,0.109-0.168,0.091-0.175,0.449
				C157.442,118.661,157.419,118.877,157.279,119.304z"/>
		</g>
		<g>
			<path fill="#DD8911" d="M157,119.829c-0.27,0.467-0.586,1.084-0.264,0.178C156.009,121.682,156.272,121.508,157,119.829z"/>
		</g>
		<g>
			<path fill="#DD8911" d="M154.49,123.89l-0.36,0.623l-0.185,0.598C154.038,124.812,154.576,123.881,154.49,123.89z"/>
		</g>
		<g>
			<path fill="#DD8911" d="M160.151,113.227c-0.026-0.079-0.247,0.311-0.333,0.361c0,0-0.052,0.194-0.104,0.389
				c-0.053,0.197-0.116,0.35-0.116,0.349C159.786,114.039,160.059,113.24,160.151,113.227z"/>
		</g>
		<g>
			<path fill="#DD8911" d="M159.818,113.588c0,0,0.074-0.289,0.149-0.578c0.088-0.284,0.124-0.576,0.111-0.579
				C159.804,113.442,159.729,113.629,159.818,113.588z"/>
		</g>
		<g>
			<polygon fill="#DD8911" points="157.651,117.588 157.098,119.243 157.787,117.283 			"/>
		</g>
		<g>
			<path fill="#DD8911" d="M160.147,108.622l0.295,0.646c0,0-0.124-0.29-0.248-0.581c-0.116-0.29-0.257-0.563-0.271-0.557
				C159.948,108.119,160.147,108.622,160.147,108.622z"/>
		</g>
		<g>
			<path fill="#DD8911" d="M158.646,105.938c0.393,0.349-0.316-0.673,0.068-0.277c-0.294-0.316-0.632-0.549-0.927-0.777
				c-0.287-0.242-0.605-0.389-0.911-0.516c0.154,0.084,0.309,0.168,0.468,0.254c0.148,0.104,0.284,0.237,0.431,0.367
				C158.047,105.269,158.398,105.524,158.646,105.938z"/>
		</g>
		<g>
			<path fill="#DD8911" d="M155.892,103.934c0.301,0.133,0.627,0.276,0.984,0.434C156.55,104.204,156.21,104.034,155.892,103.934z"
				/>
		</g>
		<g>
			<path fill="#DD8911" d="M160.215,110.426c0.008-0.091,0.129-0.283,0.033-0.95c0.021-0.001-0.049,0.485-0.065,0.485
				C160.192,110.103,160.203,110.263,160.215,110.426z"/>
		</g>
		<g>
			<path fill="#DD8911" d="M160.179,109.978l0.004-0.017c-0.037-0.504-0.187-0.833-0.205-0.982
				C159.989,109.107,160.132,109.394,160.179,109.978z"/>
		</g>
		<g>
			<path fill="#DD8911" d="M160.223,110.543c-0.003-0.042-0.005-0.075-0.008-0.117C160.204,110.473,160.201,110.498,160.223,110.543
				z"/>
		</g>
		<g>
			<path fill="#DD8911" d="M158.915,115.123c0.185-0.597,0.644-1.81,0.014-0.72C158.833,114.848,159.193,114.225,158.915,115.123z"
				/>
		</g>
		<g>
			<path fill="#DD8911" d="M160.083,111.116c0,0-0.041,0.306-0.084,0.608c-0.047,0.303-0.094,0.605-0.094,0.605
				c0.039-0.014,0.123-0.229,0.117,0.118c0,0,0.018-0.335,0.036-0.67C160.072,111.444,160.083,111.116,160.083,111.116z"/>
		</g>
		<g>
			<polygon fill="#DD8911" points="159.997,110.521 160.083,111.116 160.064,110.662 			"/>
		</g>
		<g>
			<path fill="#DD8911" d="M157.642,105.223c-0.421-0.354-0.966-0.604-1.545-0.938l0.921,0.575c0.305,0.194,0.546,0.472,0.814,0.695
				C157.935,105.587,158.226,105.739,157.642,105.223z"/>
		</g>
		<g>
			<path fill="#DD8911" d="M159.31,107.308c-0.02-0.034-0.043-0.074-0.061-0.104C159.271,107.275,159.295,107.331,159.31,107.308z"
				/>
		</g>
		<g>
			<polygon fill="#DD8911" points="150.721,101.809 150.798,101.872 150.826,101.858 			"/>
		</g>
		<g>
			<path fill="#DD8911" d="M157.903,105.654c0.398,0.354,0.565,0.629,0.799,0.837c-0.247-0.317-0.508-0.652-0.87-0.937
				C157.785,105.539,157.77,105.543,157.903,105.654z"/>
		</g>
		<g>
			<path fill="#DD8911" d="M154.366,103.313c0.224,0.128,0.47,0.27,0.729,0.417C154.891,103.588,154.464,103.315,154.366,103.313z"
				/>
		</g>
		<g>
			<path fill="#DD8911" d="M159.201,107.02l0.042,0.069C159.189,106.913,159.172,106.949,159.201,107.02z"/>
		</g>
		<g>
			<path fill="#DD8911" d="M159.201,107.02c-0.181-0.216-0.343-0.371-0.499-0.528c0.193,0.262,0.429,0.476,0.547,0.712
				C159.228,107.137,159.211,107.07,159.201,107.02z"/>
		</g>
		<g>
			<path fill="#DD8911" d="M148.718,101.9c0.133-0.085,1.337,0.33,2.274,0.912c1.02,0.356,0.56-0.33-0.194-0.94
				c-0.056,0.038-0.078,0.086-1.117-0.302c0.322,0.227,2.167,1.173,1.267,0.894c-1.364-0.547-1.075-0.541-1.695-0.9
				c0.482,0.4-1.799-0.556-1.608-0.204l1.207,0.456C148.857,101.86,148.407,101.721,148.718,101.9z"/>
		</g>
		<g>
			<path fill="#DD8911" d="M152.714,102.76l0.42,0.173c-0.462-0.235-0.779-0.438-1.359-0.815c-0.719-0.257-0.882-0.277-0.948-0.259
				l2.036,0.947L152.714,102.76z"/>
		</g>
		<g>
			<path fill="#DD8911" d="M154.997,103.781c-0.383-0.017-1.404-0.415-0.859,0.004c1.224,0.547,0.903,0.279,1.658,0.555
				c-1.981-0.863,0.598,0.185-0.789-0.536c0.402,0.168,0.733,0.274,1.09,0.48c-0.373-0.24-0.687-0.37-1.002-0.555
				c0.017,0.012,0.027,0.02,0.041,0.029l0.01,0.004l-0.003,0.001c0.078,0.055,0.1,0.077,0.009,0.024
				c-0.008-0.003-0.03-0.012-0.041-0.016C155.089,103.784,155.044,103.783,154.997,103.781c-0.556-0.286-0.072-0.075,0.113-0.009
				c0.008-0.004,0.026-0.003,0.032-0.009l-0.007-0.005l-2.002-0.826C153.543,103.142,154.065,103.375,154.997,103.781z"/>
		</g>
		<g>
			<path fill="#DD8911" d="M159.077,113.2c0.033-0.06,0.042-0.054,0.053-0.055C159.159,113.006,159.165,112.951,159.077,113.2z"/>
		</g>
		<g>
			<path fill="#DD8911" d="M159.431,112.365c0.004,0.164-0.009,0.301-0.184,0.798c-0.187,0.417-0.064-0.025-0.117-0.018
				c-0.062,0.303-0.261,1.087,0.127,0.166l0.031-0.155c0.089-0.206,0.185-0.431,0.279-0.65c0.058-0.226,0.113-0.446,0.163-0.639
				c0.102-0.381,0.182-0.638,0.182-0.556C159.751,111.573,159.629,111.803,159.431,112.365z"/>
		</g>
		<g>
			<path fill="#DD8911" d="M158.828,107.261c0,0-0.299-0.376-0.599-0.746c-0.149-0.186-0.295-0.373-0.444-0.477
				c-0.137-0.114-0.229-0.19-0.229-0.19s0.157,0.183,0.313,0.365c0.133,0.202,0.246,0.415,0.246,0.415l0.028-0.085
				C158.763,107.415,158.703,107.179,158.828,107.261z"/>
		</g>
		<g>
			<polygon fill="#DD8911" points="150.563,101.658 150.844,101.62 149.808,101.383 			"/>
		</g>
		<g>
			<polygon fill="#DD8911" points="148.427,100.705 148.56,100.621 147.963,100.437 			"/>
		</g>
		<g>
			<path fill="#DD8911" d="M41.999,88.726c-0.011,0.005-0.175,0.492-0.155,0.48C41.888,89,41.969,88.834,41.999,88.726z"/>
		</g>
		<g>
			<path fill="#DD8911" d="M43.596,85.242l-0.021-0.112C43.534,85.307,43.528,85.384,43.596,85.242z"/>
		</g>
		<g>
			<path fill="#DD8911" d="M96.101,76.888c-0.651-0.432-1.356-0.963-1.333-0.79l0.156,0.23
				C95.425,76.528,95.793,76.713,96.101,76.888z"/>
		</g>
		<g>
			<path fill="#DD8911" d="M59.881,61.439l0.199,0.114c0.194,0.013,0.376,0.026,0.542,0.038
				C60.399,61.545,60.146,61.493,59.881,61.439z"/>
		</g>
		<g>
			<path fill="#DD8911" d="M59.242,61.874l-0.907-0.207C58.54,61.727,58.833,61.796,59.242,61.874z"/>
		</g>
		<g>
			<path fill="#DD8911" d="M54.087,100.869l0.623,0.122C53.83,100.591,54.187,100.835,54.087,100.869z"/>
		</g>
		<g>
			<path fill="#DD8911" d="M126.586,90.815c-0.583-0.328-1.055-0.568-1.475-0.767C125.807,90.456,126.343,90.837,126.586,90.815z"/>
		</g>
		<g>
			<path fill="#DD8911" d="M41.229,86.717c-0.11,0.305-0.142,0.445-0.108,0.449C41.236,86.852,41.29,86.668,41.229,86.717z"/>
		</g>
		<g>
			<path fill="#DD8911" d="M123.362,89.252c0.104,0.06,0.202,0.117,0.307,0.177c0.452,0.18,0.906,0.365,1.442,0.62
				C124.598,89.746,123.997,89.431,123.362,89.252z"/>
		</g>
		<g>
			<path fill="#DD8911" d="M123.109,132.441c0.049,0.028,0.104,0.061,0.149,0.087C123.283,132.518,123.213,132.485,123.109,132.441z
				"/>
		</g>
		<g>
			<path fill="#DD8911" d="M143.277,141.803c-0.23,0.056-0.623,0.066-0.988,0.099C142.467,141.894,142.771,141.891,143.277,141.803z
				"/>
		</g>
		<g>
			<path fill="#DD8911" d="M139.881,96.744C140.336,96.94,139.959,96.762,139.881,96.744L139.881,96.744z"/>
		</g>
		<g>
			<path fill="#DD8911" d="M141.842,98.265c-0.104-0.029-0.186-0.044-0.21-0.019C141.684,98.231,141.755,98.24,141.842,98.265z"/>
		</g>
		<g>
			<path fill="#DD8911" d="M118.489,88.021c-0.014-0.006-0.024-0.011-0.04-0.019C118.573,88.089,118.552,88.073,118.489,88.021z"/>
		</g>
		<g>
			<path fill="#DD8911" d="M140.532,97.112c-0.167-0.09-0.355-0.192-0.56-0.302C140.066,96.861,140.237,96.953,140.532,97.112z"/>
		</g>
		<g>
			<path fill="#DD8911" d="M140.471,97.009c0.153,0.076,0.274,0.136,0.389,0.192C140.926,97.205,140.882,97.168,140.471,97.009z"/>
		</g>
		<g>
			<path fill="#DD8911" d="M139.247,96.463c0.261,0.116,0.499,0.232,0.726,0.347c-0.084-0.049-0.117-0.073-0.092-0.066
				C139.748,96.685,139.559,96.601,139.247,96.463z"/>
		</g>
		<g>
			<path fill="#DD8911" d="M85.939,115.935c0.029,0.018,0.06,0.037,0.092,0.058C86.512,116.145,86.307,116.062,85.939,115.935z"/>
		</g>
		<g>
			<path fill="#DD8911" d="M83.719,72.896c0.021,0.007,0.035,0.011,0.055,0.018c-0.021-0.011-0.046-0.025-0.065-0.036L83.719,72.896
				z"/>
		</g>
		<g>
			<path fill="#DD8911" d="M82.053,72.256c0.765,0.151,1.149,0.35,1.656,0.623l-0.363-0.623L82.053,72.256z"/>
		</g>
		<g>
			<path fill="#DD8911" d="M43.618,96.019c0.01-0.019-0.749-0.793-0.694-0.836c1.029,0.807,1.799,1.202,1.079,0.578
				c-0.174,0.128-1.005-0.496-1.579-1.362c-0.529-0.895-0.738-1.904-0.993-1.943c-0.017-0.001,0.038-0.73,0.038-0.73
				c0.011,0.206,0.04,0.236,0.048,0.438c0.056-0.7-0.056-0.94-0.088-1.261c-0.051-0.313-0.196-0.728,0.181-1.597
				c0.223-0.598,0.569-1.06,0.39-0.58l0.564-1.509c0.201-0.42,0.226-0.285,0.025,0.136l0.983-2.245l0.004,0.022
				c0.08-0.347,0.309-1.114,0.427-1.485c0.317-0.541-0.085,0.303,0.032,0.182l0.462-1.279c0.336-0.455-0.026,0.615-0.431,1.461
				c0.937-0.966,0.364-1.073,1.737-3.451l-0.478,1.188c0.575-0.644,0.905-1.593,1.651-2.845c-0.218,0.278-1.569,2.473-1.061,1.085
				c0.203-0.362,0.444-0.854,0.691-1.615c0.149,0.062,0.435-0.661,0.829-1.549l0.166,0.149c0.379-0.98,0.247-0.951,0.415-1.552
				c0.503-1.054,0.754-1.207,0.995-1.4c0.807-1.69-0.777,1.067,0.105-0.966c0.72-1.384,1.093-2.414,1.75-4.163
				c0.519-0.961,0.04,0.228,0.257-0.104l0.246-0.949c0.103-0.214,0.118-0.123,0.125-0.076c0.278-0.77-0.166-0.149,0.313-1.339
				c-0.028-0.19,0.298-0.802,0.742-1.438c0.245-0.291,0.424-0.66,0.71-0.944c0.292-0.275,0.502-0.624,0.754-0.887
				c0.324-0.166-0.054,0.202,0.089,0.198c0.363-0.312,0.61-0.57,0.833-0.729c0.236-0.142,0.407-0.245,0.571-0.344
				c0.316-0.235,0.627-0.334,1.412-0.673c0-0.001,1.428,0,1.416,0.061c-0.507-0.102-0.45-0.165-0.09-0.267
				c0.179-0.021,0.432-0.032,0.721-0.038c0.147-0.002,0.301-0.004,0.456-0.006c0.154,0.012,0.306,0.056,0.459,0.083
				c-0.344-0.229-0.68-0.317-0.906-0.378c0,0,0.128,0.009,0.319,0.022c0.197-0.006,0.439,0.074,0.688,0.143
				c0.249,0.069,0.498,0.138,0.685,0.19c0.191,0.048,0.305,0.097,0.305,0.097c0.202,0.139,0,0.1-0.349,0.077
				c0.139,0.023,0.264,0.061,0.36,0.089c0.617,0.368,0.229,0.326-0.284,0.223c-0.208-0.117-0.415-0.235-0.618-0.35
				c-0.251-0.017-0.488-0.025-0.652-0.01c-0.171,0.045-0.266,0.102-0.23,0.169c0.126-0.027,0.353,0.029,0.598,0.104
				c-0.124-0.005-0.203,0-0.158,0.039c0.054,0.042,0.247,0.059,0.555,0.105l0.305,0.352l0.139-0.041l2.314,1.218
				c1.798,0.556,3.423,0.91,6.16,2.049c-0.741-0.146-0.262,0.193-0.383,0.364c-0.645-0.534-2.128-0.867-3.507-1.544
				c0.719,0.353,0.518,0.369,0.318,0.316l2.575,0.955c-0.126,0.128,0.478,0.356,1.101,0.717c-0.354-0.528,1.95,0.644,3.008,1.014
				c0.016,0.13-0.274,0.124-1.501-0.465c1.261,0.851,1.926,0.447,3.178,1.251c-0.303-0.135-0.458-0.225-0.601-0.227
				c0.746,0.23,2.439,1.088,1.993,0.993l-0.303-0.136c1.99,0.95,6.108,2.785,6.525,2.664c0.003,0.042-0.405,0.19-0.549,0.188
				l3.974,0.763c-0.416,0.078,0.554,1.156-1.167,0.524c0.464,0.249,1.039,0.555,2.081,0.936c-0.312-0.18-0.668-0.691-0.213-0.508
				c1.111,0.804,0.79,0.519,2.201,1.415c-0.466-0.27,0.234-0.37,1.001-0.007c-0.146-0.003-0.093,0.372-0.391,0.279l2.077,0.535
				c-0.508-0.157-0.216,0.25,0.17,0.542c-0.17-0.158,1.658,0.763,2.186,0.962l-0.779-0.45c2.146,1.04,2.361,0.497,4.505,1.495
				c-0.292-0.048-0.841,0.14,0.233,0.681c0.582,0.054,2.604,0.172,4.571,0.906l0.318,0.266l1.514,0.552
				c-1.03-0.152-3.835-0.762-5.327-1.183c0.776,0.449,0.173,0.221,1.392,0.766c0.387,0.289-0.727-0.16-1.087-0.317l2.803,1.35
				c-0.031-0.261,2.259,0.782,2.228,0.563l-3.171-1.189c-0.032-0.26,2.042,0.232,4.032,1.182c0.472,0.313-0.547,0.189-0.537,0.275
				c0.293,0.049,1.966,0.733,2.126,0.867l-0.9-0.279c1.082,0.585,1.946,0.561,3.198,1.366c0.458,0.225,1.265,0.893,1.398,0.809
				c-0.649-0.577-0.47-1.364,0.113-1.309c0.156,0.09,2.332,1.331,2.807,1.686c0.681,0.53-1.343-0.087-0.765,0.366
				c0.055-0.042,0.507,0.081,0.692,0.138c0.465,0.269-0.28,0.081,0.789,0.538c0.269-0.127,2.142,0.997,0.578,0.052
				c1.061,0.412,1.08,0.543,2.298,1.087c-0.326-0.31,1.297,0.042,2.359,0.455c-0.085,0.025,0.116,0.199,0.215,0.282
				c2.11,0.983,3.206,1.596,5.18,2.497c0.16,0.133,1.087,0.628,0.64,0.532c0.301,0.093,0.593,0.142,1.205,0.414
				c1.098,0.716-1.371-0.591-0.569,0.034c0.132-0.085,1.651,0.552,2.554,0.873c-0.184-0.308-1.99-0.95-2.894-1.271
				c0.113-0.257,1.749,0.165,3.867,0.986c1.67,0.684,0.637,0.49,0.938,0.583c3.063,1.449,2.83,0.75,5.307,2.101
				c0.941,0.625-0.103,0.345,0.069,0.565c-1.364-0.547-2.005-1.038-2.914-1.444l1.081,0.585c-0.451-0.14-1.362-0.505-1.827-0.774
				c0.784,0.534,5.195,2.401,7.514,3.62c0.446,0.137,1.202,0.414,0.887,0.19l-0.764-0.32c-0.632-0.447,1.501,0.464,0.575-0.032
				c1.052,0.367,2.249,0.738,3.638,1.459l0.182,0.307c-0.005-0.067-0.877-0.533-1.304-0.659c0.63,0.188,2.064,1.244,2.824,1.296
				l-0.938-0.583c1.058,0.369,2.399,0.742,3.634,1.375c-0.49-0.445-0.302-0.112-1.099-0.734c0.654,0.62-3.216-1.479-2.099-0.63
				c-0.805-0.667-1.542-0.83-2.646-1.589c0.009,0.078,0.373,0.312-0.671-0.201c-0.056-0.004-0.18-0.033-0.258-0.052
				c-0.03-0.016-0.041-0.022-0.069-0.037l0.056,0.034c-0.05-0.011-0.055-0.011,0.021,0.013c0.239,0.141,0.429,0.267,0.496,0.339
				c-0.589-0.099-2.27-0.87-2.87-1.055c-0.614-0.315,0.295,0.049-0.019-0.173l-0.899-0.278c-0.022-0.175-1.564-0.986-0.049-0.392
				l-1.328-0.612c-0.749-0.434-1.812-0.954-2.503-1.2c-0.614-0.316-1.653-0.571-1.059-0.429l-2.125-0.866l-0.003-0.042
				c-2.052-0.956-4.341-1.705-6.582-3.023c-0.71-0.282-1.445-0.566-2.587-1.133l-0.173-0.221c-0.908-0.364-2.618-1.335-3.056-1.386
				c-0.816-0.755-4.289-2.037-5.827-2.806l-0.129,0.126c-1.074-0.5-2.127-0.927-3.491-1.473l0.021,0.173
				c-1.204-0.414-2.921-1.447-4.751-2.264c0.147,0.004,0.604,0.229,0.917,0.409c-2.039-1.299-4.698-1.87-6.572-2.994
				c-0.514-0.174-0.864-0.354-1.193-0.545c0.045,0.021,0.089,0.037,0.125,0.049c-0.05-0.024-0.124-0.058-0.201-0.094
				c-0.207-0.122-0.424-0.25-0.651-0.384c0.19,0.126,0.375,0.244,0.542,0.335c-0.381-0.17-0.966-0.417-1.545-0.64l-0.174-0.255
				c-0.047-0.02-0.084-0.035-0.133-0.056c-0.529-0.306-0.477-0.134-0.23,0.111c-0.296-0.106-0.57-0.196-0.788-0.252
				c-0.343-0.441-1.518-0.596-2.017-1.126c-0.437-0.05-2.879-1.2-3.299-1.08c-0.003-0.042-0.163-0.134,0.143,0.003
				c-0.615-0.315-1.231-0.631-1.829-0.816l-0.182-0.307l-1.489-0.377c-0.783-0.493-1.098-0.716-0.205-0.481
				c-2.103-0.693-1.661-0.657-3.463-1.215l0.138-0.082c-0.611-0.273-1.657-0.555-1.978-0.821c-1.258-0.849-6.72-3.099-10.118-4.903
				c0.516,0.662-1.551-0.898-1.815-0.688c-0.165-0.176-0.631-0.445-0.032-0.26c-1.82-0.73-2.618-1.353-3.956-1.683
				c-0.166-0.177,0.438,0.051,0.28-0.081c-0.151-0.047-0.601-0.186-0.763-0.32c-0.159-0.133,0.293,0.048,0.592,0.141
				c-1.827-0.815-2.13-0.642-2.373-0.461c-0.417-0.278-0.805-0.427-1.159-0.535c-0.354-0.104-0.675-0.193-1.077-0.128
				c-0.35-0.131-0.981-0.305,0.356-0.165c-0.187-0.027-0.566-0.083-1.031-0.152c-0.465-0.088-1.025,0.018-1.561,0.034
				c-0.527,0.088-1.02,0.26-1.385,0.371c-0.351,0.158-0.56,0.318-0.556,0.369c-0.116,0.026-0.354,0.137-0.581,0.256
				c-0.233,0.11-0.405,0.309-0.483,0.367c-0.331,0.253-0.607,0.428-0.805,0.617c-0.186,0.203-0.34,0.37-0.493,0.536
				c-0.142,0.174-0.324,0.319-0.459,0.556c-0.135,0.235-0.293,0.511-0.498,0.868l0.259-0.376c-0.13,0.675-0.557,1.191-1.048,2.339
				l-0.009-0.044c-1.351,2.518-0.43,1.158-1.788,3.628l0.208-0.073c0.204,0.381-1.217,2.184-1.774,3.722l0.327-0.498
				c-0.263,0.86-1.458,2.072-1.867,2.868c-0.108,0.165,0.083-0.299,0.176-0.557c-1.156,2.048,0.065,0.363-0.615,1.973
				c-0.235,0.245-0.088-0.498-0.595,0.564c-0.326,0.495-1.08,3.252-1.941,4.622c0.226-0.286,0.45-0.568,0.173,0.196
				c-0.487,1.145-1.692,2.922-1.908,4.058c-0.087,0.134-0.132,0.178-0.155,0.176c-0.152,0.47-0.49,1.106-0.686,1.906
				c-0.271,0.744-0.254,1.487-0.225,1.791c-0.383,0.427-0.23,2.123,0.433,3.437c0.18,0.322,0.343,0.642,0.517,0.922
				c0.206,0.262,0.393,0.5,0.551,0.703c0.285,0.432,0.544,0.646,0.442,0.744c0,0,0.15,0.132,0.375,0.331
				c0.113,0.099,0.245,0.213,0.387,0.336c0.162,0.094,0.334,0.195,0.507,0.295c0.704,0.435,1.365,0.702,1.365,0.702l-0.091,0.015
				c1.686,0.805,2.338,0.968,2.985,1.129c0.379,0.211,0.072,0.123,0.029,0.133c2.441,1.225,2.698,1.318,4.885,2.035l0.149,0.249
				c0.604,0.17,3.484,1.872,6,2.807c-0.032,0.006-0.095,0.012-0.298-0.055c2.822,1.072,6.373,3.406,7.626,3.316l1.872,0.689
				c-2.321-1.108,0.456-0.079-0.465-0.608c0.935,0.387,2.305,1.249,1.161,0.762l-0.165-0.108c-0.545,0.097,2.863,1.427,2.712,1.592
				c4.61,2.084,9.028,4.286,13.334,6.263l-0.395-0.447l1.498,0.698c0.372,0.231,0.451,0.414-0.618-0.084
				c0.507,0.383,1.849,0.716,1.9,0.681c2.061,1.047-0.938-0.115-0.295,0.184l0.882,0.382l-0.186-0.115
				c0.75,0.232,0.857,0.165,2.143,0.764c0.796,0.417,0.356,0.328,0.673,0.482c-0.01,0.015,0.096,0.071,0.49,0.231l1.886,0.882
				l-0.678-0.521c0.879,0.297,1.78,0.821,0.995,0.225c1.144,0.891,7.021,3.331,7.765,3.785c1.235,0.408,2.396,0.939,3.829,1.61
				c-0.342-0.199-0.465-0.493,0.765,0.096c-0.639,0.2,2.192,1.212,3.063,1.961c-0.808-0.602,3.549,1.56,2.269,0.644
				c1.02,0.504-0.007,0.181,0.736,0.635c2.537,0.965,5.384,2.576,8.456,3.911c0.072-0.031-0.402-0.346,0.289-0.127l1.487,0.999
				c0.613,0.248,0.693-0.056,1.708,0.63c-0.135-0.115-0.336-0.289,0.076-0.121c2.925,1.489,5.998,2.824,9.07,4.194
				c1.536,0.685,3.071,1.378,4.588,2.103c0.77,0.357,1.486,0.745,2.284,1.103c0.428,0.156,0.849,0.358,1.291,0.479
				c0.452,0.08,0.908,0.185,1.369,0.246c-0.498-0.09-0.574-0.15-0.438-0.146c0.068,0,0.19,0.009,0.343,0.023
				c0.152-0.002,0.335-0.023,0.523-0.035c-0.49,0.006,0.006-0.145-0.093-0.218c0,0,0.187,0.001,0.466,0.002
				c0.141-0.001,0.305-0.001,0.481-0.001c0.174-0.02,0.355-0.063,0.541-0.096c0.365-0.082,0.755-0.116,1.016-0.229
				c0.266-0.105,0.442-0.176,0.442-0.176c0.102-0.11,0.332-0.255,0.623-0.415c0.267-0.206,0.577-0.448,0.885-0.686
				c0.589-0.502,1.038-1.12,1.068-1.281l-0.597,0.728c0.327-0.552-0.079-0.306-0.537-0.014c-0.519,0.238-1.125,0.477-1.141,0.297
				c-0.439,0.451-1.254,0.75-2.154,0.847c-0.443,0.098-0.928,0.006-1.402,0.064c-0.475-0.063-0.974-0.044-1.48-0.089
				c-0.398-0.206,0.383,0.023,0.175-0.126c-0.502-0.038-1.096-0.151-2.191-0.756l0.14,0.026c-3.143-1.395-4.429-2.129-7.906-3.812
				l0.194,0.263c-0.746-0.364-0.885-0.481-1.221-0.678c-0.967-0.177,2.114,0.979,1.215,0.858c-0.868-0.749-5.323-2.431-5.85-3.071
				c-1.161-0.531,0.265,0.321-0.896-0.21L123.8,132.9l-0.347-0.019c-0.752-0.365-1.085-0.652-1.08-0.742
				c0.182,0.094,0.535,0.218,0.736,0.302c-0.94-0.556-2.802-1.232-3.125-1.422l1.09,0.563c-3.208-1.359-7.026-3.241-10.173-4.454
				l0.2,0.173c-2.396-0.939-1.84-0.928-4.436-2.04l0.102,0.026c-0.545-0.167-1.247-0.445-1.947-0.773
				c0.686,0.217-1.148-0.71-0.258-0.41c-2.6-1.021-1.305-0.466-3.095-0.978l-0.335-0.288c-0.617-0.158-0.688-0.127-1.985-0.682
				c1.096,0.383-0.741-0.544,0.496-0.136c-2.58-1.472-4.111-1.572-5.183-2.494c-1.377-0.252,2.251,1.233,1.529,0.985
				c0.534,0.365-1.126-0.232-1.958-0.649c-0.855-0.397-1.28-1.063-3.447-2.043c0.215,0.1,0.241,0.083,0.455,0.182
				c-0.773-0.448-1.635-0.615-2.569-1.196c-0.642-0.065-1.286-0.599-1.554-0.431l2.009,0.848c-1.154-0.449-2.336-0.649-4.127-1.629
				c0.166,0.017,0.746,0.204,1.141,0.341c-0.509-0.317-1.064-0.428-1.593-0.757c0.27-0.167,2.436,1.047,3.724,1.412
				c-0.534-0.365-2.358-0.864-1.634-0.849c-1.021-0.065-2.113-1.013-3.693-1.428l0.163-0.1c-0.243-0.083-0.754-0.234-1.18-0.432
				l0.859,0.166c-1.26-0.382-2.224-1.182-3.4-1.613c2.384,1.081,0.456,0.417,1.415,0.98c-3.025-1.146-1.518-1.146-4.839-2.575
				c0.455,0.183,1.633,0.849,0.906,0.598c-0.612-0.314-1.414-0.746-1.764-0.997c-2.193-0.963,0.267,0.3-0.701-0.034
				c-0.663-0.513-1.104-0.416-2.083-0.795l0.059-0.149c-2.441-1.226-0.796,0.005-2.981-1.127l1.039,0.228l-1.19-0.479l0.317-0.057
				c-1.326-0.455-1.706-0.666-2.927-1.278c0.242,0.234-0.284,0.19-1.386-0.306c-0.71-0.429,0.485,0.053-1.084-0.637
				c0.393,0.068,0.832,0.13,1.449,0.574c0.091-0.017,0.389,0.065,0.482,0.052c-0.763-0.469-2.02-0.948-2.585-1.204
				c0.215,0.104,0.471,0.231,0.594,0.313l-2.353-0.827c-0.331-0.217-0.028-0.133,0.271-0.048c-0.466-0.193-0.812-0.271-1.491-0.564
				c0.228-0.039,0.243-0.181,1.219,0.196l-2.212-0.848c-0.121-0.118-1.041-0.646-0.742-0.563c-1.161-0.613-3.034-1.104-4.574-1.917
				c-0.093-0.014-0.267-0.067-0.611-0.203c-1.476-0.705-2.728-1.451-4.565-2.091l-0.903-0.669c-1.403-0.581,1.232,0.885-1.104-0.082
				c-1.658-0.673-0.524-0.458-1.069-0.778c-0.429-0.13-1.049-0.294-1.569-0.573c-0.142-0.07-0.287-0.142-0.434-0.215
				c-0.139-0.088-0.258-0.213-0.389-0.326c-0.25-0.239-0.538-0.464-0.69-0.808C42.973,95.511,43.299,95.713,43.618,96.019z
				 M45.897,80.019c-0.12,0.344-0.325,1.044-0.521,1.246C45.379,80.814,45.592,80.56,45.897,80.019z M62.291,62.774
				c-0.267-0.063-0.635-0.26-1.039-0.511C61.568,62.394,61.917,62.559,62.291,62.774z M134.873,94.606l-0.037-0.009
				C134.125,94.205,134.377,94.347,134.873,94.606z M136.374,95.366c0.163,0.05,0.161,0.024,0.105-0.025
				c-0.124-0.012-0.467-0.165-0.854-0.354C135.716,95.074,135.903,95.191,136.374,95.366z M90.317,119.117l-0.28-0.173
				C90.728,119.207,90.522,119.159,90.317,119.117z"/>
		</g>
		<g>
			<path fill="#DD8911" d="M59.322,61.814c-0.087-0.037-0.108-0.07-0.124-0.102C59.062,61.722,59.056,61.753,59.322,61.814z"/>
		</g>
		<g>
			<path fill="#DD8911" d="M53.972,100.846l0.051,0.025c0.033,0.005,0.052,0.002,0.065-0.002L53.972,100.846z"/>
		</g>
		<g>
			<path fill="#DD8911" d="M112.13,85.82c-0.304-0.164-0.468-0.271-0.572-0.352C111.525,85.497,111.655,85.593,112.13,85.82z"/>
		</g>
		<g>
			<path fill="#DD8911" d="M144.587,98.807l-0.996-0.407c0.477,0.208,0.631,0.317,0.86,0.449
				C144.443,98.805,144.28,98.671,144.587,98.807z"/>
		</g>
		<g>
			<path fill="#DD8911" d="M152.675,103.584c0.15,0.047,0.303,0.136,0.453,0.182l-0.008-0.085
				C152.509,103.407,152.057,103.268,152.675,103.584z"/>
		</g>
		<g>
			<path fill="#DD8911" d="M145.271,99.706c0.022,0.159,0.655,0.396,1.352,0.687c-0.041-0.019-0.079-0.036-0.122-0.056
				C146.782,100.257,146.026,99.981,145.271,99.706z"/>
		</g>
		<g>
			<path fill="#DD8911" d="M146.784,100.46c0.215,0.091,0.431,0.185,0.635,0.285C147.531,100.714,147.169,100.614,146.784,100.46z"
				/>
		</g>
		<g>
			<path fill="#DD8911" d="M138.35,96.168c0.311,0.179,0.275-0.064,0.438,0.069C139.222,96.247,136.532,95.439,138.35,96.168z"/>
		</g>
		<g>
			<polygon fill="#DD8911" points="145.644,100.365 145.467,100.101 145.026,100.048 			"/>
		</g>
		<g>
			<path fill="#DD8911" d="M140.278,97.786l1.077,0.542c-0.005-0.033,0.14,0.015,0.317,0.082
				C140.999,98.097,140.273,97.729,140.278,97.786z"/>
		</g>
		<g>
			<path fill="#DD8911" d="M141.673,98.41c0.35,0.163,0.687,0.313,0.893,0.376C142.375,98.701,141.962,98.519,141.673,98.41z"/>
		</g>
		<g>
			<polygon fill="#DD8911" points="144.124,99.728 143.813,99.548 143.045,99.185 			"/>
		</g>
		<g>
			<path fill="#DD8911" d="M128.511,92.391l-1.217-0.501c-0.146-0.003,0.166,0.177,0.621,0.359
				C128.218,92.342,128.672,92.525,128.511,92.391z"/>
		</g>
		<g>
			<path fill="#DD8911" d="M131.938,94.454c-0.309-0.179-0.314-0.222-0.475-0.355l-0.121,0.172L131.938,94.454z"/>
		</g>
		<g>
			<path fill="#DD8911" d="M128.43,92.909c-0.143-0.002-1.805-0.641-0.283,0.038C128.292,92.951,129.51,93.453,128.43,92.909z"/>
		</g>
		<g>
			<polygon fill="#DD8911" points="110.517,84.462 110.821,84.598 110.92,84.27 			"/>
		</g>
		<g>
			<path fill="#DD8911" d="M94.295,77.965c1.384,0.72,0.424-0.037,1.663,0.639c0.366,0.079-1.013-0.552-0.644-0.46
				C94.425,77.832,93.996,77.583,94.295,77.965z"/>
		</g>
		<g>
			<path fill="#DD8911" d="M95.314,78.144c0.143,0.047,0.294,0.098,0.459,0.152C95.517,78.203,95.394,78.164,95.314,78.144z"/>
		</g>
		<g>
			<path fill="#DD8911" d="M146.967,140.207c0.028,0.035,0.823-0.774,0.823-0.775l-0.57,0.466
				C147.22,139.896,146.98,140.221,146.967,140.207z"/>
		</g>
		<g>
			<path fill="#DD8911" d="M148.12,138.415l0.317-0.113l0.157-0.664C148.481,137.855,148.257,138.28,148.12,138.415z"/>
		</g>
		<g>
			<path fill="#DD8911" d="M47.447,77.667l-0.016-0.09c-0.115,0.117-0.217,0.33-0.419,0.753L47.447,77.667z"/>
		</g>
		<g>
			<polygon fill="#DD8911" points="41.806,89.863 41.875,89.677 41.564,89.978 			"/>
		</g>
		<g>
			<path fill="#DD8911" d="M46.69,97.162c-0.426-0.185-0.927-0.402-1.357-0.588C46.271,96.961,46.705,97.436,46.69,97.162z"/>
		</g>
	</g>
	<g>
		<g>
			<polygon fill="#DD8911" points="102.017,67.741 103.625,67.649 102.721,68.981 103.305,70.481 101.758,70.032 100.512,71.055 
				100.46,69.444 99.104,68.573 100.62,68.026 101.028,66.469 			"/>
		</g>
	</g>
	<g>
		<g>
			<polygon fill="#DD8911" points="113.015,70.124 114.305,69.16 114.286,70.771 115.602,71.699 114.065,72.179 113.59,73.72 
				112.658,72.404 111.047,72.429 112.008,71.136 111.488,69.61 			"/>
		</g>
	</g>
	<g>
		<g>
			<polygon fill="#DD8911" points="122.532,77.649 124.075,77.195 123.498,78.698 124.407,80.026 122.8,79.94 121.817,81.219 
				121.4,79.661 119.883,79.12 121.235,78.245 121.281,76.635 			"/>
		</g>
	</g>
	<g>
		<g>
			<polygon fill="#DD8911" points="96.622,133.346 95.013,133.24 96.072,132.029 95.673,130.471 97.154,131.1 98.515,130.238 
				98.373,131.842 99.613,132.869 98.043,133.23 97.448,134.727 			"/>
		</g>
	</g>
	<g>
		<g>
			<polygon fill="#DD8911" points="86.898,130.467 85.587,131.404 85.643,129.795 84.347,128.836 85.896,128.391 86.406,126.861 
				87.308,128.197 88.918,128.211 87.928,129.482 88.413,131.018 			"/>
		</g>
	</g>
	<g>
		<g>
			<polygon fill="#DD8911" points="78.101,123.846 76.517,124.135 77.25,122.701 76.485,121.283 78.075,121.539 79.188,120.375 
				79.437,121.965 80.888,122.662 79.45,123.393 79.236,124.988 			"/>
		</g>
	</g>
</g>
</svg>
