<?xml version="1.0" encoding="utf-8"?>
<!-- Generator: Adobe Illustrator 16.0.0, SVG Export Plug-In . SVG Version: 6.00 Build 0)  -->
<!DOCTYPE svg PUBLIC "-//W3C//DTD SVG 1.1//EN" "http://www.w3.org/Graphics/SVG/1.1/DTD/svg11.dtd">
<svg version="1.1" id="图层_1" xmlns="http://www.w3.org/2000/svg" xmlns:xlink="http://www.w3.org/1999/xlink" x="0px" y="0px"
	 width="200px" height="200px" viewBox="0 0 200 200" enable-background="new 0 0 200 200" xml:space="preserve">
<g>
	<rect x="77.031" y="4.478" fill="#2481C5" width="45.938" height="15.659"/>
</g>
<g>
	<rect x="92.17" y="12.308" fill="#2481C5" width="15.659" height="16.705"/>
</g>
<g>
	<path fill="#2481C5" d="M100,194.478c-47.203,0-85.604-38.4-85.604-85.604c0-47.203,38.401-85.604,85.604-85.604
		c47.204,0,85.604,38.401,85.604,85.604C185.604,156.077,147.204,194.478,100,194.478z M100,38.928
		c-38.569,0-69.946,31.376-69.946,69.945c0,38.57,31.376,69.946,69.946,69.946s69.946-31.376,69.946-69.946
		C169.946,70.304,138.569,38.928,100,38.928z"/>
</g>
<g>
	<path fill="#2481C5" d="M100,114.614c-4.325,0-7.83-3.505-7.83-7.829V54.587c0-4.325,3.505-7.83,7.83-7.83
		c4.325,0,7.829,3.505,7.829,7.83v52.198C107.829,111.109,104.325,114.614,100,114.614z"/>
</g>
<g>
	<path fill="#2481C5" d="M147.491,145.409c-1.461,0-2.936-0.407-4.254-1.26L95.74,113.354c-3.627-2.352-4.661-7.199-2.309-10.829
		c2.355-3.63,7.197-4.658,10.83-2.309l47.496,30.794c3.629,2.353,4.662,7.2,2.311,10.83
		C152.567,144.152,150.054,145.409,147.491,145.409z"/>
</g>
</svg>
